<svg xmlns="http://www.w3.org/2000/svg" xmlns:xlink="http://www.w3.org/1999/xlink" width="500" zoomAndPan="magnify" viewBox="0 0 375 149.999998" height="200" preserveAspectRatio="xMidYMid meet" version="1.0"><defs><g/></defs><g fill="#ffffff" fill-opacity="1"><g transform="translate(1.664066, 100.874996)"><g><path d="M 26.875 -42.421875 L 26.875 -37.34375 L 14.203125 -37.34375 L 14.203125 -24.359375 L 24.9375 -24.359375 L 24.9375 -19.21875 L 14.203125 -19.21875 L 14.203125 -5.078125 L 27.765625 -5.078125 L 27.3125 0 L 3.53125 0 L 3.53125 -42.421875 Z M 26.875 -42.421875 "/></g></g></g><g fill="#ffffff" fill-opacity="1"><g transform="translate(30.39076, 100.874996)"><g><path d="M 24.234375 -42.421875 L 35.09375 0 L 24.234375 0 L 21.796875 -10.484375 L 9.90625 -10.484375 L 7.515625 0 L -0.25 0 L 11.4375 -42.421875 Z M 11.125 -15.5625 L 20.640625 -15.5625 L 15.8125 -36.125 Z M 11.125 -15.5625 "/></g></g></g><g fill="#ffffff" fill-opacity="1"><g transform="translate(65.544009, 100.874996)"><g><path d="M 29.5625 -42.421875 L 29.125 -37.34375 L 19.921875 -37.34375 L 19.921875 0 L 9.25 0 L 9.25 -37.34375 L -0.25 -37.34375 L -0.25 -42.421875 Z M 29.5625 -42.421875 "/></g></g></g><g fill="#5e4e2b" fill-opacity="1"><g transform="translate(94.722654, 100.874996)"><g><path d="M 21.015625 -34.0625 C 23.972656 -34.0625 26.328125 -33.503906 28.078125 -32.390625 C 29.835938 -31.273438 30.71875 -29.5625 30.71875 -27.25 C 30.71875 -25.28125 30.097656 -23.78125 28.859375 -22.75 C 27.617188 -21.726562 26.078125 -21.21875 24.234375 -21.21875 C 22.953125 -21.21875 22.03125 -21.453125 21.46875 -21.921875 C 21.769531 -22.691406 22.015625 -23.585938 22.203125 -24.609375 C 22.398438 -25.640625 22.5 -26.539062 22.5 -27.3125 C 22.5 -29.289062 21.660156 -30.28125 19.984375 -30.28125 C 18.234375 -30.28125 16.679688 -29.238281 15.328125 -27.15625 C 13.984375 -25.082031 12.957031 -22.617188 12.25 -19.765625 C 11.539062 -16.910156 11.1875 -14.394531 11.1875 -12.21875 C 11.1875 -10.070312 11.601562 -8.410156 12.4375 -7.234375 C 13.269531 -6.054688 14.648438 -5.46875 16.578125 -5.46875 C 18.378906 -5.46875 20 -5.976562 21.4375 -7 C 22.875 -8.03125 23.914062 -9.40625 24.5625 -11.125 C 25.375 -10.78125 25.960938 -10.316406 26.328125 -9.734375 C 26.691406 -9.160156 26.875 -8.421875 26.875 -7.515625 C 26.875 -5.804688 26.269531 -4.285156 25.0625 -2.953125 C 23.863281 -1.628906 22.257812 -0.59375 20.25 0.15625 C 18.238281 0.90625 16.03125 1.28125 13.625 1.28125 C 9.644531 1.28125 6.613281 0.15625 4.53125 -2.09375 C 2.457031 -4.34375 1.421875 -7.71875 1.421875 -12.21875 C 1.421875 -16.15625 2.203125 -19.796875 3.765625 -23.140625 C 5.328125 -26.484375 7.585938 -29.140625 10.546875 -31.109375 C 13.503906 -33.078125 16.992188 -34.0625 21.015625 -34.0625 Z M 21.015625 -34.0625 "/></g></g></g><g fill="#5e4e2b" fill-opacity="1"><g transform="translate(124.284801, 100.874996)"><g><path d="M 30.140625 -8.15625 C 29.929688 -6.875 29.828125 -5.976562 29.828125 -5.46875 C 29.828125 -4.65625 30.03125 -3.988281 30.4375 -3.46875 C 30.84375 -2.957031 31.453125 -2.679688 32.265625 -2.640625 C 31.921875 -1.347656 31.128906 -0.375 29.890625 0.28125 C 28.648438 0.945312 27.300781 1.28125 25.84375 1.28125 C 24.507812 1.28125 23.347656 0.96875 22.359375 0.34375 C 21.378906 -0.269531 20.738281 -1.175781 20.4375 -2.375 C 19.457031 -1.175781 18.140625 -0.269531 16.484375 0.34375 C 14.835938 0.96875 13.050781 1.28125 11.125 1.28125 C 7.644531 1.28125 5.132812 0.234375 3.59375 -1.859375 C 2.050781 -3.960938 1.28125 -7.03125 1.28125 -11.0625 C 1.28125 -15.175781 2 -18.976562 3.4375 -22.46875 C 4.875 -25.957031 7.023438 -28.757812 9.890625 -30.875 C 12.765625 -33 16.21875 -34.0625 20.25 -34.0625 C 22.5625 -34.0625 24.722656 -33.632812 26.734375 -32.78125 L 35.03125 -33.8125 Z M 24.171875 -28.671875 C 23.566406 -29.179688 22.859375 -29.566406 22.046875 -29.828125 C 21.234375 -30.085938 20.460938 -30.21875 19.734375 -30.21875 C 17.722656 -30.21875 16.132812 -29.195312 14.96875 -27.15625 C 13.8125 -25.125 12.875 -21.984375 12.15625 -17.734375 C 11.375 -13.960938 10.984375 -10.75 10.984375 -8.09375 C 10.984375 -6.425781 11.238281 -5.109375 11.75 -4.140625 C 12.269531 -3.179688 13.195312 -2.703125 14.53125 -2.703125 C 16.375 -2.703125 17.828125 -3.609375 18.890625 -5.421875 C 19.960938 -7.242188 20.71875 -9.398438 21.15625 -11.890625 Z M 24.171875 -28.671875 "/></g></g></g><g fill="#5e4e2b" fill-opacity="1"><g transform="translate(160.530573, 100.874996)"><g><path d="M 14.59375 -27.765625 C 15.488281 -29.734375 16.757812 -31.273438 18.40625 -32.390625 C 20.0625 -33.503906 21.960938 -34.0625 24.109375 -34.0625 C 26.378906 -34.0625 28.113281 -33.441406 29.3125 -32.203125 C 30.507812 -30.960938 31.109375 -29.269531 31.109375 -27.125 C 31.109375 -24.6875 30.398438 -22.648438 28.984375 -21.015625 C 27.578125 -19.390625 25.78125 -18.578125 23.59375 -18.578125 C 22.90625 -18.578125 22.25 -18.671875 21.625 -18.859375 C 21.007812 -19.054688 20.550781 -19.367188 20.25 -19.796875 C 20.894531 -20.648438 21.429688 -21.71875 21.859375 -23 C 22.285156 -24.289062 22.5 -25.453125 22.5 -26.484375 C 22.5 -28.242188 21.769531 -29.125 20.3125 -29.125 C 18.769531 -29.125 17.492188 -28.113281 16.484375 -26.09375 C 15.484375 -24.082031 14.703125 -21.515625 14.140625 -18.390625 L 11.0625 0 L 0.703125 1.03125 L 7.203125 -32.78125 L 15.484375 -33.8125 Z M 14.59375 -27.765625 "/></g></g></g><g fill="#5e4e2b" fill-opacity="1"><g transform="translate(189.835663, 100.874996)"><g><path d="M 21.28125 -34.0625 C 27.832031 -34.0625 31.109375 -31.535156 31.109375 -26.484375 C 31.109375 -22.929688 29.53125 -20.164062 26.375 -18.1875 C 23.226562 -16.21875 18.957031 -15.234375 13.5625 -15.234375 L 11.3125 -15.234375 C 11.1875 -14.078125 11.125 -12.984375 11.125 -11.953125 C 11.125 -9.816406 11.550781 -8.203125 12.40625 -7.109375 C 13.257812 -6.015625 14.71875 -5.46875 16.78125 -5.46875 C 18.582031 -5.46875 20.253906 -5.863281 21.796875 -6.65625 C 23.335938 -7.445312 24.515625 -8.570312 25.328125 -10.03125 C 26.359375 -9.5625 26.875 -8.617188 26.875 -7.203125 C 26.875 -5.660156 26.28125 -4.234375 25.09375 -2.921875 C 23.914062 -1.617188 22.320312 -0.59375 20.3125 0.15625 C 18.300781 0.90625 16.09375 1.28125 13.6875 1.28125 C 9.707031 1.28125 6.664062 0.179688 4.5625 -2.015625 C 2.46875 -4.222656 1.421875 -7.601562 1.421875 -12.15625 C 1.421875 -15.96875 2.15625 -19.539062 3.625 -22.875 C 5.101562 -26.21875 7.332031 -28.914062 10.3125 -30.96875 C 13.289062 -33.03125 16.945312 -34.0625 21.28125 -34.0625 Z M 19.859375 -30.59375 C 17.972656 -30.59375 16.320312 -29.457031 14.90625 -27.1875 C 13.5 -24.914062 12.453125 -21.914062 11.765625 -18.1875 C 14.847656 -18.1875 17.4375 -18.976562 19.53125 -20.5625 C 21.632812 -22.15625 22.6875 -24.300781 22.6875 -27 C 22.6875 -29.394531 21.742188 -30.59375 19.859375 -30.59375 Z M 19.859375 -30.59375 "/></g></g></g><g fill="#ffffff" fill-opacity="1"><g transform="translate(220.113275, 100.874996)"><g><path d="M 26.875 -42.421875 L 26.875 -37.34375 L 14.203125 -37.34375 L 14.203125 -23.46875 L 24.9375 -23.46875 L 24.9375 -18.3125 L 14.203125 -18.3125 L 14.203125 0 L 3.53125 0 L 3.53125 -42.421875 Z M 26.875 -42.421875 "/></g></g></g><g fill="#ffffff" fill-opacity="1"><g transform="translate(247.68319, 100.874996)"><g><path d="M 34.0625 -17.609375 C 34.0625 -13.328125 33.625 -9.800781 32.75 -7.03125 C 31.875 -4.269531 30.332031 -2.171875 28.125 -0.734375 C 25.914062 0.703125 22.863281 1.421875 18.96875 1.421875 C 13.257812 1.421875 9.179688 0.0703125 6.734375 -2.625 C 4.296875 -5.332031 3.078125 -9.617188 3.078125 -15.484375 L 3.078125 -42.421875 L 13.75 -42.421875 L 13.75 -16.203125 C 13.75 -13.328125 13.878906 -11.007812 14.140625 -9.25 C 14.398438 -7.5 14.976562 -6.109375 15.875 -5.078125 C 16.78125 -4.046875 18.109375 -3.53125 19.859375 -3.53125 C 21.660156 -3.53125 23 -4.078125 23.875 -5.171875 C 24.757812 -6.265625 25.328125 -7.734375 25.578125 -9.578125 C 25.835938 -11.421875 25.96875 -13.863281 25.96875 -16.90625 L 25.96875 -42.421875 L 34.0625 -42.421875 Z M 34.0625 -17.609375 "/></g></g></g><g fill="#ffffff" fill-opacity="1"><g transform="translate(284.892943, 100.874996)"><g><path d="M 3.53125 -42.421875 L 14.203125 -42.421875 L 14.203125 -5.265625 L 26.9375 -5.265625 L 26.421875 0 L 3.53125 0 Z M 3.53125 -42.421875 "/></g></g></g><g fill="#ffffff" fill-opacity="1"><g transform="translate(312.141529, 100.874996)"><g><path d="M 3.53125 -42.421875 L 14.203125 -42.421875 L 14.203125 -5.265625 L 26.9375 -5.265625 L 26.421875 0 L 3.53125 0 Z M 3.53125 -42.421875 "/></g></g></g><g fill="#ffffff" fill-opacity="1"><g transform="translate(339.390116, 100.874996)"><g><path d="M 22.046875 -19.40625 L 22.046875 0 L 11.375 0 L 11.375 -18.703125 L 0.0625 -42.421875 L 11.25 -42.421875 L 18.3125 -25.328125 L 24.75 -42.421875 L 33.6875 -42.421875 Z M 22.046875 -19.40625 "/></g></g></g></svg>