<svg xmlns="http://www.w3.org/2000/svg" xmlns:xlink="http://www.w3.org/1999/xlink" width="500" zoomAndPan="magnify" viewBox="0 0 375 374.999991" height="500" preserveAspectRatio="xMidYMid meet" version="1.0"><defs><g/><clipPath id="4346bd59ef"><path d="M 17.25 -0.0195312 L 357.75 -0.0195312 C 362.324219 -0.0195312 366.710938 1.796875 369.949219 5.03125 C 373.183594 8.265625 375 12.652344 375 17.230469 L 375 357.75 C 375 362.324219 373.183594 366.710938 369.949219 369.949219 C 366.710938 373.183594 362.324219 375 357.75 375 L 17.25 375 C 12.675781 375 8.289062 373.183594 5.050781 369.949219 C 1.816406 366.710938 0 362.324219 0 357.75 L 0 17.230469 C 0 12.652344 1.816406 8.265625 5.050781 5.03125 C 8.289062 1.796875 12.675781 -0.0195312 17.25 -0.0195312 Z M 17.25 -0.0195312 " clip-rule="nonzero"/></clipPath></defs><g clip-path="url(#4346bd59ef)"><path fill="#658e48" d="M 0 -0.0195312 L 375 -0.0195312 L 375 374.980469 L 0 374.980469 Z M 0 -0.0195312 " fill-opacity="1" fill-rule="nonzero"/></g><g fill="#ffffff" fill-opacity="1"><g transform="translate(77.882812, 142.37044)"><g><path d="M 63.28125 -99.921875 L 63.28125 -87.96875 L 33.453125 -87.96875 L 33.453125 -57.390625 L 58.75 -57.390625 L 58.75 -45.265625 L 33.453125 -45.265625 L 33.453125 -11.96875 L 65.40625 -11.96875 L 64.34375 0 L 8.328125 0 L 8.328125 -99.921875 Z M 63.28125 -99.921875 "/></g></g></g><g fill="#ffffff" fill-opacity="1"><g transform="translate(145.556197, 142.37044)"><g><path d="M 57.078125 -99.921875 L 82.671875 0 L 57.078125 0 L 51.328125 -24.671875 L 23.3125 -24.671875 L 17.71875 0 L -0.609375 0 L 26.953125 -99.921875 Z M 26.1875 -36.640625 L 48.59375 -36.640625 L 37.25 -85.09375 Z M 26.1875 -36.640625 "/></g></g></g><g fill="#ffffff" fill-opacity="1"><g transform="translate(228.369039, 142.37044)"><g><path d="M 69.640625 -99.921875 L 68.59375 -87.96875 L 46.9375 -87.96875 L 46.9375 0 L 21.796875 0 L 21.796875 -87.96875 L -0.609375 -87.96875 L -0.609375 -99.921875 Z M 69.640625 -99.921875 "/></g></g></g><g fill="#5e4e2b" fill-opacity="1"><g transform="translate(39.750002, 226.833794)"><g><path d="M 49.53125 -80.28125 C 56.5 -80.28125 62.050781 -78.96875 66.1875 -76.34375 C 70.332031 -73.71875 72.40625 -69.675781 72.40625 -64.21875 C 72.40625 -59.570312 70.9375 -56.035156 68 -53.609375 C 65.070312 -51.191406 61.441406 -49.984375 57.109375 -49.984375 C 54.078125 -49.984375 51.90625 -50.539062 50.59375 -51.65625 C 51.300781 -53.46875 51.878906 -55.582031 52.328125 -58 C 52.785156 -60.425781 53.015625 -62.550781 53.015625 -64.375 C 53.015625 -69.019531 51.046875 -71.34375 47.109375 -71.34375 C 42.960938 -71.34375 39.300781 -68.894531 36.125 -64 C 32.945312 -59.101562 30.523438 -53.296875 28.859375 -46.578125 C 27.191406 -39.859375 26.359375 -33.925781 26.359375 -28.78125 C 26.359375 -23.726562 27.34375 -19.8125 29.3125 -17.03125 C 31.28125 -14.257812 34.535156 -12.875 39.078125 -12.875 C 43.316406 -12.875 47.128906 -14.082031 50.515625 -16.5 C 53.898438 -18.925781 56.347656 -22.160156 57.859375 -26.203125 C 59.773438 -25.398438 61.160156 -24.316406 62.015625 -22.953125 C 62.878906 -21.585938 63.3125 -19.84375 63.3125 -17.71875 C 63.3125 -13.675781 61.894531 -10.085938 59.0625 -6.953125 C 56.238281 -3.828125 52.453125 -1.382812 47.703125 0.375 C 42.960938 2.144531 37.765625 3.03125 32.109375 3.03125 C 22.722656 3.03125 15.578125 0.378906 10.671875 -4.921875 C 5.773438 -10.222656 3.328125 -18.175781 3.328125 -28.78125 C 3.328125 -38.070312 5.171875 -46.65625 8.859375 -54.53125 C 12.546875 -62.40625 17.875 -68.664062 24.84375 -73.3125 C 31.8125 -77.957031 40.039062 -80.28125 49.53125 -80.28125 Z M 49.53125 -80.28125 "/></g></g></g><g fill="#5e4e2b" fill-opacity="1"><g transform="translate(109.418412, 226.833794)"><g><path d="M 71.03125 -19.234375 C 70.53125 -16.203125 70.28125 -14.082031 70.28125 -12.875 C 70.28125 -10.957031 70.757812 -9.390625 71.71875 -8.171875 C 72.675781 -6.960938 74.113281 -6.304688 76.03125 -6.203125 C 75.226562 -3.179688 73.363281 -0.890625 70.4375 0.671875 C 67.507812 2.242188 64.328125 3.03125 60.890625 3.03125 C 57.753906 3.03125 55.023438 2.296875 52.703125 0.828125 C 50.390625 -0.628906 48.878906 -2.773438 48.171875 -5.609375 C 45.847656 -2.773438 42.738281 -0.628906 38.84375 0.828125 C 34.957031 2.296875 30.742188 3.03125 26.203125 3.03125 C 18.023438 3.03125 12.117188 0.554688 8.484375 -4.390625 C 4.847656 -9.335938 3.03125 -16.554688 3.03125 -26.046875 C 3.03125 -35.742188 4.71875 -44.707031 8.09375 -52.9375 C 11.476562 -61.164062 16.550781 -67.78125 23.3125 -72.78125 C 30.082031 -77.78125 38.21875 -80.28125 47.71875 -80.28125 C 53.164062 -80.28125 58.265625 -79.269531 63.015625 -77.25 L 82.546875 -79.671875 Z M 56.953125 -67.5625 C 55.535156 -68.769531 53.867188 -69.675781 51.953125 -70.28125 C 50.035156 -70.882812 48.21875 -71.1875 46.5 -71.1875 C 41.75 -71.1875 38.007812 -68.785156 35.28125 -63.984375 C 32.5625 -59.191406 30.34375 -51.800781 28.625 -41.8125 C 26.8125 -32.914062 25.90625 -25.335938 25.90625 -19.078125 C 25.90625 -15.140625 26.507812 -12.035156 27.71875 -9.765625 C 28.925781 -7.492188 31.097656 -6.359375 34.234375 -6.359375 C 38.578125 -6.359375 42.007812 -8.503906 44.53125 -12.796875 C 47.050781 -17.085938 48.816406 -22.160156 49.828125 -28.015625 Z M 56.953125 -67.5625 "/></g></g></g><g fill="#5e4e2b" fill-opacity="1"><g transform="translate(194.837943, 226.833794)"><g><path d="M 34.390625 -65.4375 C 36.503906 -70.082031 39.503906 -73.71875 43.390625 -76.34375 C 47.285156 -78.96875 51.753906 -80.28125 56.796875 -80.28125 C 62.148438 -80.28125 66.238281 -78.816406 69.0625 -75.890625 C 71.894531 -72.960938 73.3125 -68.972656 73.3125 -63.921875 C 73.3125 -58.160156 71.644531 -53.363281 68.3125 -49.53125 C 64.976562 -45.695312 60.738281 -43.78125 55.59375 -43.78125 C 53.976562 -43.78125 52.4375 -44.003906 50.96875 -44.453125 C 49.5 -44.910156 48.414062 -45.644531 47.71875 -46.65625 C 49.226562 -48.675781 50.488281 -51.195312 51.5 -54.21875 C 52.507812 -57.25 53.015625 -59.976562 53.015625 -62.40625 C 53.015625 -66.539062 51.296875 -68.609375 47.859375 -68.609375 C 44.222656 -68.609375 41.21875 -66.234375 38.84375 -61.484375 C 36.476562 -56.742188 34.640625 -50.6875 33.328125 -43.3125 L 26.046875 0 L 1.671875 2.421875 L 16.96875 -77.25 L 36.5 -79.671875 Z M 34.390625 -65.4375 "/></g></g></g><g fill="#5e4e2b" fill-opacity="1"><g transform="translate(263.900538, 226.833794)"><g><path d="M 50.140625 -80.28125 C 65.585938 -80.28125 73.3125 -74.320312 73.3125 -62.40625 C 73.3125 -54.019531 69.597656 -47.503906 62.171875 -42.859375 C 54.753906 -38.210938 44.679688 -35.890625 31.953125 -35.890625 L 26.65625 -35.890625 C 26.351562 -33.171875 26.203125 -30.597656 26.203125 -28.171875 C 26.203125 -23.117188 27.210938 -19.304688 29.234375 -16.734375 C 31.253906 -14.160156 34.6875 -12.875 39.53125 -12.875 C 43.769531 -12.875 47.707031 -13.804688 51.34375 -15.671875 C 54.976562 -17.546875 57.753906 -20.195312 59.671875 -23.625 C 62.097656 -22.519531 63.3125 -20.300781 63.3125 -16.96875 C 63.3125 -13.332031 61.921875 -9.972656 59.140625 -6.890625 C 56.367188 -3.804688 52.609375 -1.382812 47.859375 0.375 C 43.117188 2.144531 37.921875 3.03125 32.265625 3.03125 C 22.867188 3.03125 15.695312 0.429688 10.75 -4.765625 C 5.800781 -9.972656 3.328125 -17.925781 3.328125 -28.625 C 3.328125 -37.613281 5.066406 -46.046875 8.546875 -53.921875 C 12.035156 -61.796875 17.289062 -68.15625 24.3125 -73 C 31.332031 -77.851562 39.941406 -80.28125 50.140625 -80.28125 Z M 46.796875 -72.09375 C 42.359375 -72.09375 38.472656 -69.414062 35.140625 -64.0625 C 31.804688 -58.71875 29.332031 -51.648438 27.71875 -42.859375 C 34.988281 -42.859375 41.097656 -44.726562 46.046875 -48.46875 C 50.992188 -52.207031 53.46875 -57.253906 53.46875 -63.609375 C 53.46875 -69.265625 51.242188 -72.09375 46.796875 -72.09375 Z M 46.796875 -72.09375 "/></g></g></g><g fill="#ffffff" fill-opacity="1"><g transform="translate(7.312504, 333.865231)"><g><path d="M 63.1875 -99.765625 L 63.1875 -87.828125 L 33.40625 -87.828125 L 33.40625 -55.171875 L 58.65625 -55.171875 L 58.65625 -43.078125 L 33.40625 -43.078125 L 33.40625 0 L 8.3125 0 L 8.3125 -99.765625 Z M 63.1875 -99.765625 "/></g></g></g><g fill="#ffffff" fill-opacity="1"><g transform="translate(72.160217, 333.865231)"><g><path d="M 80.109375 -41.421875 C 80.109375 -31.335938 79.078125 -23.046875 77.015625 -16.546875 C 74.953125 -10.046875 71.320312 -5.109375 66.125 -1.734375 C 60.9375 1.640625 53.757812 3.328125 44.59375 3.328125 C 31.1875 3.328125 21.609375 0.15625 15.859375 -6.1875 C 10.117188 -12.539062 7.25 -22.617188 7.25 -36.421875 L 7.25 -99.765625 L 32.34375 -99.765625 L 32.34375 -38.09375 C 32.34375 -31.34375 32.644531 -25.898438 33.25 -21.765625 C 33.851562 -17.628906 35.210938 -14.351562 37.328125 -11.9375 C 39.453125 -9.519531 42.578125 -8.3125 46.703125 -8.3125 C 50.941406 -8.3125 54.09375 -9.59375 56.15625 -12.15625 C 58.21875 -14.726562 59.550781 -18.179688 60.15625 -22.515625 C 60.757812 -26.847656 61.0625 -32.59375 61.0625 -39.75 L 61.0625 -99.765625 L 80.109375 -99.765625 Z M 80.109375 -41.421875 "/></g></g></g><g fill="#ffffff" fill-opacity="1"><g transform="translate(159.681959, 333.865231)"><g><path d="M 8.3125 -99.765625 L 33.40625 -99.765625 L 33.40625 -12.390625 L 63.328125 -12.390625 L 62.125 0 L 8.3125 0 Z M 8.3125 -99.765625 "/></g></g></g><g fill="#ffffff" fill-opacity="1"><g transform="translate(223.77387, 333.865231)"><g><path d="M 8.3125 -99.765625 L 33.40625 -99.765625 L 33.40625 -12.390625 L 63.328125 -12.390625 L 62.125 0 L 8.3125 0 Z M 8.3125 -99.765625 "/></g></g></g><g fill="#ffffff" fill-opacity="1"><g transform="translate(287.865769, 333.865231)"><g><path d="M 51.84375 -45.65625 L 51.84375 0 L 26.75 0 L 26.75 -43.984375 L 0.15625 -99.765625 L 26.453125 -99.765625 L 43.078125 -59.5625 L 58.1875 -99.765625 L 79.203125 -99.765625 Z M 51.84375 -45.65625 "/></g></g></g></svg>