<?xml version="1.0" encoding="UTF-8"?>
<svg version="1.1" xmlns="http://www.w3.org/2000/svg" width="240" height="130">
<path d="M0 0 C1.28297875 -0.00785502 1.28297875 -0.00785502 2.59187627 -0.01586872 C5.4629296 -0.03089134 8.33380506 -0.03157438 11.20489502 -0.03224182 C13.26144716 -0.03986185 15.31799645 -0.04828907 17.37454224 -0.0574646 C22.96557878 -0.07943349 28.55656063 -0.08821187 34.14763546 -0.09329104 C37.64063861 -0.09693217 41.13362738 -0.10317099 44.62662506 -0.11029243 C56.81255219 -0.13479643 68.9984367 -0.14784063 81.18438721 -0.15138245 C92.54290162 -0.15501717 103.90114572 -0.18490576 115.25957751 -0.22678703 C125.01087965 -0.26148176 134.76209218 -0.27693076 144.51345563 -0.27762848 C150.33764328 -0.27842165 156.16155575 -0.28717873 161.98567963 -0.31562614 C167.46541356 -0.34179208 172.94464391 -0.34401991 178.42441177 -0.3279705 C180.43353752 -0.32615479 182.44269212 -0.33285775 184.45175552 -0.34878922 C187.19938883 -0.36924563 189.94525952 -0.35870073 192.69287109 -0.34057617 C193.48393903 -0.35377614 194.27500696 -0.36697611 195.09004664 -0.38057607 C201.66704817 -0.28179728 206.45856896 2.16854865 211.13152575 6.78762251 C216.0735822 12.48412888 216.89901042 16.61764156 216.89093018 24.0466156 C216.8976474 24.93167786 216.90436462 25.81674011 216.9112854 26.72862244 C216.9302862 29.65531529 216.93419097 32.58177896 216.93634033 35.50852966 C216.94276795 37.54631138 216.94949628 39.58409217 216.95651245 41.62187195 C216.96849123 45.89563637 216.97219277 50.16931994 216.9710083 54.44309998 C216.97080534 59.90842185 216.99808132 65.3732224 217.03255272 70.83842087 C217.05483944 75.04901998 217.05884526 79.25949413 217.05778885 83.47014618 C217.06014314 85.48429914 217.06895693 87.49845563 217.08445358 89.51255035 C217.10414459 92.33677139 217.09826276 95.1598749 217.08624268 97.9841156 C217.09748169 98.80933716 217.1087207 99.63455872 217.12030029 100.48478699 C217.049297 107.08084761 215.17131773 112.23366627 210.88946533 117.29759216 C210.06575439 117.9666156 210.06575439 117.9666156 209.22540283 118.64915466 C208.68141846 119.11063904 208.13743408 119.57212341 207.57696533 120.04759216 C202.72547867 123.05819851 198.00067274 123.52421116 192.38946533 123.52571106 C191.68620117 123.5286812 190.98293701 123.53165134 190.25836182 123.53471148 C187.91395801 123.54231873 185.56980717 123.53587108 183.22540283 123.52952576 C181.53969148 123.53227715 179.85398142 123.53595795 178.16827393 123.54049683 C174.5440699 123.54859657 170.91992752 123.55078039 167.29571533 123.54854965 C161.56389335 123.54571335 155.83219429 123.56007974 150.10040283 123.57752991 C133.8035465 123.62452861 117.50669894 123.64850216 101.20977783 123.65501404 C92.20464549 123.65876414 83.19965263 123.67678723 74.19458008 123.7101084 C68.49765942 123.7303262 62.80109841 123.73269114 57.10415649 123.72182822 C53.55946204 123.71922113 50.01497707 123.73322462 46.47033691 123.75190926 C44.82805139 123.75723136 43.18572728 123.75573411 41.54345703 123.74687386 C39.29891756 123.73574182 37.05579358 123.74919449 34.81134033 123.76863098 C32.92874512 123.77026528 32.92874512 123.77026528 31.00811768 123.7719326 C26.96430177 124.36790194 24.85376495 125.86438657 21.60040283 128.27415466 C12.75605963 131.47729626 1.787698 131.90883631 -7.08709717 128.52415466 C-14.28442797 125.06991731 -19.39413057 120.14179768 -22.45002747 112.7245636 C-23.63231693 108.42853128 -23.70250547 104.52468753 -23.70599365 100.09104919 C-23.71431717 99.18618774 -23.72264069 98.28132629 -23.73121643 97.3490448 C-23.75524215 94.36830804 -23.76407899 91.38779037 -23.77069092 88.40696716 C-23.77966208 86.32720374 -23.78878401 84.24744096 -23.79804993 82.16767883 C-23.81452171 77.81171604 -23.82223689 73.45582996 -23.82513428 69.09983826 C-23.83051967 63.52910478 -23.86821449 57.95909584 -23.91387844 52.38856697 C-23.9436758 48.09390146 -23.95085841 43.79941 -23.95186043 39.50465012 C-23.95605648 37.45140638 -23.96846597 35.39816182 -23.98937798 33.34502029 C-24.01635081 30.46815965 -24.01144955 27.59297334 -23.9989624 24.71604919 C-24.01379669 23.87526825 -24.02863098 23.0344873 -24.04391479 22.16822815 C-23.96045857 15.38774378 -21.66314828 10.57114431 -16.8860693 5.74511909 C-11.30734355 0.89753902 -7.27831984 -0.02197245 0 0 Z " fill="#FDFDFD" transform="translate(23.39959716796875,-0.2741546630859375)"/>
<path d="M0 0 C21.13164136 -0.07010147 42.26326352 -0.12299378 63.3949976 -0.15543652 C73.2069748 -0.17090107 83.01887973 -0.19198275 92.83081055 -0.22631836 C101.38354381 -0.25623329 109.93622472 -0.275578 118.48900884 -0.28226548 C123.01705655 -0.28617419 127.5449545 -0.29535166 132.07295418 -0.31719017 C136.33696209 -0.33758838 140.60075888 -0.34382706 144.86481094 -0.33932304 C146.42767548 -0.34014675 147.99054725 -0.34609258 149.55336952 -0.35761642 C151.69253916 -0.37261323 153.83091889 -0.36892813 155.97010803 -0.36076355 C157.16567353 -0.36352893 158.36123903 -0.36629431 159.59303379 -0.36914349 C166.14593956 0.34086135 170.6831363 2.94310252 175 8 C176.81693314 11.02240244 177.25507463 13.25537574 177.2746582 16.76513672 C177.28419022 17.70646454 177.29372223 18.64779236 177.30354309 19.61764526 C177.30217598 21.13335617 177.30217598 21.13335617 177.30078125 22.6796875 C177.30506638 23.72520782 177.3093515 24.77072815 177.31376648 25.84793091 C177.31950675 28.05860673 177.32001227 30.26930145 177.31567383 32.47998047 C177.31251825 35.85547283 177.33596226 39.230085 177.36132812 42.60546875 C177.36360163 44.75520723 177.36430437 46.90494806 177.36328125 49.0546875 C177.372491 50.06111298 177.38170074 51.06753845 177.39118958 52.10446167 C177.35581032 57.48697082 177.07796797 61.37873971 174 66 C168.29315351 71.45872273 164.00933188 73.25250089 156.1726532 73.24050903 C155.16169113 73.24307231 155.16169113 73.24307231 154.13030559 73.24568737 C151.87932295 73.24897305 149.62864057 73.237994 147.37768555 73.22705078 C145.76120511 73.22648647 144.14472416 73.22680362 142.52824402 73.22793579 C138.14433742 73.22850952 133.76054031 73.21675196 129.37665915 73.20278788 C124.79357696 73.19028386 120.21049225 73.18911028 115.62739563 73.18673706 C106.95062595 73.18052133 98.27390669 73.16410924 89.59715921 73.14403808 C79.71815728 73.12168199 69.83915293 73.11068638 59.960132 73.10064721 C39.64005987 73.07974311 19.32003311 73.0445653 -1 73 C-0.71707061 72.34714807 -0.43414122 71.69429613 -0.14263821 71.0216608 C1.83758765 66.29986769 3.50076086 62.24254172 3.50170898 57.05053711 C3.51108994 55.99922104 3.52047089 54.94790497 3.53013611 53.86473083 C3.51890213 52.7633931 3.50766815 51.66205536 3.49609375 50.52734375 C3.49754898 49.36425186 3.49900421 48.20115997 3.50050354 47.00282288 C3.49885248 44.55809001 3.48738089 42.11334587 3.46655273 39.66870117 C3.43755604 35.94469715 3.44597088 32.22211583 3.45898438 28.49804688 C3.45274704 26.11197231 3.44435615 23.7259022 3.43359375 21.33984375 C3.43652939 20.23648178 3.43946503 19.13311981 3.44248962 17.99632263 C3.42980545 16.94815872 3.41712128 15.89999481 3.40405273 14.82006836 C3.39864975 13.91091171 3.39324677 13.00175507 3.38768005 12.06504822 C2.85218703 7.83137172 1.45491707 3.9976555 0 0 Z " fill="#EE8102" transform="translate(57,44)"/>
<path d="M0 0 C36.3 0 72.6 0 110 0 C110 0.33 110 0.66 110 1 C102.74 1 95.48 1 88 1 C88 24.43 88 47.86 88 72 C95.26 72 102.52 72 110 72 C110 72.33 110 72.66 110 73 C73.37 73 36.74 73 -1 73 C0.32 69.7 1.64 66.4 3 63 C3.57239458 59.89248246 3.57239458 59.89248246 3.50170898 57.05053711 C3.51108994 55.99922104 3.52047089 54.94790497 3.53013611 53.86473083 C3.51890213 52.7633931 3.50766815 51.66205536 3.49609375 50.52734375 C3.49754898 49.36425186 3.49900421 48.20115997 3.50050354 47.00282288 C3.49885248 44.55809001 3.48738089 42.11334587 3.46655273 39.66870117 C3.43755604 35.94469715 3.44597088 32.22211583 3.45898438 28.49804688 C3.45274704 26.11197231 3.44435615 23.7259022 3.43359375 21.33984375 C3.43652939 20.23648178 3.43946503 19.13311981 3.44248962 17.99632263 C3.42980545 16.94815872 3.41712128 15.89999481 3.40405273 14.82006836 C3.39864975 13.91091171 3.39324677 13.00175507 3.38768005 12.06504822 C2.96442107 7.91984701 2.96442107 7.91984701 0 0 Z " fill="#FDCA07" transform="translate(57,44)"/>
<path d="M0 0 C6.65748467 3.04283809 10.82249296 7.86414523 13.84999084 14.45759583 C14.85183824 17.3211632 15.0682239 19.50600147 15.10327148 22.5300293 C15.11925888 23.57849533 15.13524628 24.62696136 15.15171814 25.7071991 C15.15708084 26.83120621 15.16244354 27.95521332 15.16796875 29.11328125 C15.18151146 30.86497368 15.18151146 30.86497368 15.19532776 32.65205383 C15.2098246 35.12242066 15.21871558 37.59282583 15.22241211 40.06323242 C15.23427792 43.82081857 15.28344741 47.57674606 15.33398438 51.33398438 C15.34345272 53.73957536 15.35068578 56.14517639 15.35546875 58.55078125 C15.37500107 59.66466721 15.39453339 60.77855316 15.41465759 61.92619324 C15.36795648 70.10368509 13.6852128 76.89757394 8.05686951 83.07328796 C0.89169403 89.77077544 -5.8477135 90.79834668 -15.47265625 90.5703125 C-23.99215422 89.64253471 -29.42397469 85.66997248 -34.828125 79.2265625 C-37.55916633 75.1300005 -38.45534788 71.50543306 -38.52539062 66.61450195 C-38.54460571 65.52599442 -38.5638208 64.43748688 -38.58361816 63.31599426 C-38.59211792 62.14823959 -38.60061768 60.98048492 -38.609375 59.77734375 C-38.62077515 58.56515671 -38.63217529 57.35296967 -38.6439209 56.10404968 C-38.66279922 53.53953531 -38.67588027 50.97497265 -38.68359375 48.41040039 C-38.70297014 44.50775317 -38.7650161 40.60722953 -38.828125 36.70507812 C-38.84118992 34.20834579 -38.85168896 31.71159844 -38.859375 29.21484375 C-38.8840686 28.05721024 -38.90876221 26.89957672 -38.9342041 25.7068634 C-38.89095102 17.74927613 -37.14571558 12.45114168 -32.203125 6.1640625 C-29.71875 3.91015625 -29.71875 3.91015625 -27.453125 2.6015625 C-26.69515625 2.14652344 -25.9371875 1.69148438 -25.15625 1.22265625 C-18.15346816 -2.57285151 -7.6508515 -1.99668564 0 0 Z " fill="#058243" transform="translate(42.203125,35.8359375)"/>
<path d="M0 0 C34.53846154 0 34.53846154 0 40.8125 5.4375 C44.02271066 9.19803249 45.24702732 11.81313834 45.2746582 16.76513672 C45.28895622 18.17712845 45.28895622 18.17712845 45.30354309 19.61764526 C45.30263168 20.6281192 45.30172028 21.63859314 45.30078125 22.6796875 C45.30506638 23.72520782 45.3093515 24.77072815 45.31376648 25.84793091 C45.31950675 28.05860673 45.32001227 30.26930145 45.31567383 32.47998047 C45.31251825 35.85547283 45.33596226 39.230085 45.36132812 42.60546875 C45.36360163 44.75520723 45.36430437 46.90494806 45.36328125 49.0546875 C45.372491 50.06111298 45.38170074 51.06753845 45.39118958 52.10446167 C45.35581032 57.48697082 45.07796797 61.37873971 42 66 C35.75587185 71.97264432 30.99154117 73.32469327 22.5 73.1875 C21.77296875 73.18685547 21.0459375 73.18621094 20.296875 73.18554688 C13.47123335 73.13258931 6.84744043 72.52672619 0 72 C0 48.24 0 24.48 0 0 Z " fill="#E64113" transform="translate(189,44)"/>
<path d="M0 0 C14.19 0 28.38 0 43 0 C43 24.09 43 48.18 43 73 C28.48 73 13.96 73 -1 73 C0.32 69.7 1.64 66.4 3 63 C3.57239458 59.89248246 3.57239458 59.89248246 3.50170898 57.05053711 C3.51108994 55.99922104 3.52047089 54.94790497 3.53013611 53.86473083 C3.51890213 52.7633931 3.50766815 51.66205536 3.49609375 50.52734375 C3.49754898 49.36425186 3.49900421 48.20115997 3.50050354 47.00282288 C3.49885248 44.55809001 3.48738089 42.11334587 3.46655273 39.66870117 C3.43755604 35.94469715 3.44597088 32.22211583 3.45898438 28.49804688 C3.45274704 26.11197231 3.44435615 23.7259022 3.43359375 21.33984375 C3.43652939 20.23648178 3.43946503 19.13311981 3.44248962 17.99632263 C3.42980545 16.94815872 3.41712128 15.89999481 3.40405273 14.82006836 C3.39864975 13.91091171 3.39324677 13.00175507 3.38768005 12.06504822 C2.96442107 7.91984701 2.96442107 7.91984701 0 0 Z " fill="#88BB2F" transform="translate(57,44)"/>
<path d="M0 0 C1.23556641 0.01740234 1.23556641 0.01740234 2.49609375 0.03515625 C3.32238281 0.04417969 4.14867188 0.05320313 5 0.0625 C5.63808594 0.07410156 6.27617188 0.08570313 6.93359375 0.09765625 C8.93129656 5.89873627 10.92502565 11.7011605 12.91503906 17.50488281 C13.5929762 19.48019534 14.2720093 21.45513208 14.95214844 23.4296875 C15.92799732 26.26334782 16.89993285 29.09832388 17.87109375 31.93359375 C18.17732666 32.82009613 18.48355957 33.70659851 18.79907227 34.6199646 C19.07936279 35.44066437 19.35965332 36.26136414 19.6484375 37.10693359 C19.897146 37.83085297 20.14585449 38.55477234 20.40209961 39.30062866 C20.93359375 41.09765625 20.93359375 41.09765625 20.93359375 43.09765625 C17.96359375 43.09765625 14.99359375 43.09765625 11.93359375 43.09765625 C9.89923844 39.36800486 8.93359375 37.42860583 8.93359375 33.09765625 C4.64359375 33.09765625 0.35359375 33.09765625 -4.06640625 33.09765625 C-4.72640625 36.39765625 -5.38640625 39.69765625 -6.06640625 43.09765625 C-9.36640625 43.09765625 -12.66640625 43.09765625 -16.06640625 43.09765625 C-14.5217972 34.958399 -11.91119277 27.20830106 -9.27075195 19.37451172 C-8.49697942 17.07708967 -7.73142674 14.77704162 -6.96679688 12.4765625 C-6.47834241 11.01676711 -5.9894272 9.55712579 -5.5 8.09765625 C-5.27082382 7.40921631 -5.04164764 6.72077637 -4.80552673 6.01147461 C-2.81649642 0.13310475 -2.81649642 0.13310475 0 0 Z " fill="#F5FAF7" transform="translate(28.06640625,59.90234375)"/>
<path d="M0 0 C3.196875 -0.0825 6.39375 -0.165 9.6875 -0.25 C10.68612061 -0.28641602 11.68474121 -0.32283203 12.71362305 -0.36035156 C16.98285395 -0.41369006 19.36670269 -0.38848656 23.08203125 1.890625 C25.38413109 4.42246596 25.94636247 5.39657773 26.25 8.8125 C25.97212427 12.35541555 25.02619474 14.12955745 23 17 C23.66 17.515625 24.32 18.03125 25 18.5625 C27 21 27 21 27.5 24.5 C26.92936321 28.49445751 26.14975126 29.59136668 23 32 C20.54724859 33.2263757 18.9494219 33.11415314 16.2109375 33.09765625 C15.36321777 33.09515869 14.51549805 33.09266113 13.64208984 33.09008789 C12.5639502 33.08098389 11.48581055 33.07187988 10.375 33.0625 C6.95125 33.041875 3.5275 33.02125 0 33 C0 22.11 0 11.22 0 0 Z " fill="#B9D788" transform="translate(66,63)"/>
<path d="M0 0 C2.866875 -0.061875 5.73375 -0.12375 8.6875 -0.1875 C10.02880981 -0.22846802 10.02880981 -0.22846802 11.3972168 -0.27026367 C16.10967096 -0.31941229 19.17658813 -0.06163152 23 3 C27.64418077 8.28920588 28.2962437 11.31928516 28.21484375 18.23828125 C27.82684775 23.2257934 26.11332861 25.97017103 22.5 29.3125 C19.25230681 31.5046929 16.82083239 32.12647242 12.98828125 32.09765625 C11.96408081 32.09390991 11.96408081 32.09390991 10.91918945 32.09008789 C9.62887817 32.07643188 9.62887817 32.07643188 8.3125 32.0625 C4.1978125 32.0315625 4.1978125 32.0315625 0 32 C0 21.44 0 10.88 0 0 Z " fill="#F5B870" transform="translate(153,64)"/>
<path d="M0 0 C7.26 0 14.52 0 22 0 C22 2.31 22 4.62 22 7 C17.05 7 12.1 7 7 7 C7 9.31 7 11.62 7 14 C11.29 14 15.58 14 20 14 C20 15.98 20 17.96 20 20 C15.71 20 11.42 20 7 20 C7 22.31 7 24.62 7 27 C12.28 27 17.56 27 23 27 C23 28.98 23 30.96 23 33 C15.41 33 7.82 33 0 33 C0 22.11 0 11.22 0 0 Z " fill="#F09177" transform="translate(198,63)"/>
<path d="M0 0 C2.76565128 1.45710966 4.60421707 2.55871473 5.828125 5.49609375 C5.84875 6.07359375 5.869375 6.65109375 5.890625 7.24609375 C2.140625 10.24609375 2.140625 10.24609375 -0.109375 10.24609375 C-0.50125 9.75109375 -0.893125 9.25609375 -1.296875 8.74609375 C-3.16532966 6.92738028 -3.16532966 6.92738028 -6.546875 6.80859375 C-10.06221468 6.9996999 -10.06221468 6.9996999 -12.546875 8.68359375 C-14.8738341 12.49980667 -14.73241544 15.89279839 -14.109375 20.24609375 C-13.40100412 22.94205666 -13.40100412 22.94205666 -11.109375 24.24609375 C-8.04873165 24.7281731 -5.15019219 24.88656948 -2.109375 24.24609375 C-1.449375 23.25609375 -0.789375 22.26609375 -0.109375 21.24609375 C4.640625 23.12109375 4.640625 23.12109375 6.890625 24.24609375 C5.49477708 27.6193929 3.96696889 29.28842037 0.890625 31.24609375 C-4.69177952 33.10689526 -10.16069469 33.18434723 -15.484375 30.62109375 C-20.31596326 26.24965676 -22.87956259 22.00384265 -23.421875 15.49609375 C-23.35169081 10.7235688 -21.86703393 8.12172252 -19.109375 4.24609375 C-13.65769774 -0.8066803 -7.16427957 -2.56056659 0 0 Z " fill="#FEE16E" transform="translate(129.109375,63.75390625)"/>
<path d="M0 0 C8.07692308 0 8.07692308 0 12 3 C13.84438013 6.68876027 13.48788734 10.97330313 13 15 C11.11484777 17.57637471 9.80665143 18.59667428 7 20 C4.69 20 2.38 20 0 20 C0 13.4 0 6.8 0 0 Z " fill="#EE8305" transform="translate(160,70)"/>
<path d="M0 0 C4.10703441 0.85563217 5.55401113 2.24378009 8 5.625 C8.625 9.125 8.625 9.125 8 12.625 C5.55804571 16.00064269 4.0769435 17.37820045 0 18.3125 C-4.35321372 17.31488852 -5.65945491 15.34233632 -8 11.625 C-8.625 8.5625 -8.625 8.5625 -8 5.625 C-5.54405875 2.30225596 -4.0743356 0.84881992 0 0 Z " fill="#868686" transform="translate(135,12.375)"/>
<path d="M0 0 C1.588125 -0.061875 3.17625 -0.12375 4.8125 -0.1875 C6.15248047 -0.23970703 6.15248047 -0.23970703 7.51953125 -0.29296875 C10 0 10 0 11.8125 1.328125 C13.60385359 3.85016229 13.18499541 5.97840832 13 9 C13 12.11257569 13.17361624 14.10765685 14 17 C12.35 16.67 10.7 16.34 9 16 C8.67 14.68 8.34 13.36 8 12 C7.01 12 6.02 12 5 12 C5 13.65 5 15.3 5 17 C3.35 17 1.7 17 0 17 C0 11.39 0 5.78 0 0 Z " fill="#8E8E8E" transform="translate(145,13)"/>
<path d="M0 0 C1.588125 -0.061875 3.17625 -0.12375 4.8125 -0.1875 C6.15248047 -0.23970703 6.15248047 -0.23970703 7.51953125 -0.29296875 C10 0 10 0 11.8515625 1.23828125 C13.37397395 3.57368113 13.08369863 4.67214693 12.5625 7.375 C11.97653118 11.19626474 12.08881481 13.51489759 14 17 C12.35 17 10.7 17 9 17 C8.34 15.02 7.68 13.04 7 11 C6.01 11 5.02 11 4 11 C4 12.98 4 14.96 4 17 C2.68 17 1.36 17 0 17 C0 11.39 0 5.78 0 0 Z " fill="#868686" transform="translate(65,13)"/>
<path d="M0 0 C4.22999675 1.05749919 4.54930356 1.20032488 6.75 4.5625 C7.17796875 5.20316406 7.6059375 5.84382813 8.046875 6.50390625 C8.36140625 6.99761719 8.6759375 7.49132812 9 8 C9.33 5.36 9.66 2.72 10 0 C11.32 0 12.64 0 14 0 C14 5.61 14 11.22 14 17 C8.82530321 15.7063258 8.08244463 14.19554964 5 10 C5 9.34 5 8.68 5 8 C4.34 8 3.68 8 3 8 C3 10.64 3 13.28 3 16 C2.01 16 1.02 16 0 16 C0 10.72 0 5.44 0 0 Z " fill="#828282" transform="translate(16,13)"/>
<path d="M0 0 C3.96 0 7.92 0 12 0 C12 0.99 12 1.98 12 3 C9.36 3 6.72 3 4 3 C4 4.32 4 5.64 4 7 C6.31 7 8.62 7 11 7 C11 7.99 11 8.98 11 10 C8.69 10 6.38 10 4 10 C4 10.99 4 11.98 4 13 C6.64 13 9.28 13 12 13 C12 14.32 12 15.64 12 17 C8.04 17 4.08 17 0 17 C0 11.39 0 5.78 0 0 Z " fill="#8A8A8A" transform="translate(161,13)"/>
<path d="M0 0 C1.32 0 2.64 0 4 0 C4.33 3.96 4.66 7.92 5 12 C6.65 12.33 8.3 12.66 10 13 C10.33 8.71 10.66 4.42 11 0 C12.32 0 13.64 0 15 0 C15.45663381 9.65695939 15.45663381 9.65695939 13.9375 14.125 C12 16 12 16 8.625 17.125 C5 17 5 17 2.0625 15.3125 C-1.01861877 10.36403653 -0.40776458 5.68151984 0 0 Z " fill="#868686" transform="translate(33,13)"/>
<path d="M0 0 C2.1640625 0.0234375 2.1640625 0.0234375 4.625 0.375 C5.85089844 0.54128906 5.85089844 0.54128906 7.1015625 0.7109375 C7.72804688 0.80632813 8.35453125 0.90171875 9 1 C8.34 2.32 7.68 3.64 7 5 C5.35 4.67 3.7 4.34 2 4 C1.67 4.66 1.34 5.32 1 6 C2.11375 6.28875 3.2275 6.5775 4.375 6.875 C8 8 8 8 10 10 C9.8125 12.5 9.8125 12.5 9 15 C5.53001271 17.31332486 4.07490752 17.33957563 0 17 C-0.99 16.34 -1.98 15.68 -3 15 C-2.67 14.01 -2.34 13.02 -2 12 C0.31 12.33 2.62 12.66 5 13 C5 12.34 5 11.68 5 11 C4.05125 10.71125 3.1025 10.4225 2.125 10.125 C-1 9 -1 9 -3 7 C-2.67028521 3.70285207 -2.3773161 2.3773161 0 0 Z " fill="#878787" transform="translate(100,13)"/>
<path d="M0 0 C3.5149153 0.67306889 4.71363628 1.82543696 6.9375 4.5625 C3.36105152 5.8005014 0.60055234 5.31176071 -3.0625 4.5625 C-3.10491723 6.89544775 -3.10342937 9.22952567 -3.0625 11.5625 C-2.01025333 12.83806818 -2.01025333 12.83806818 0.375 12.6875 C2.92728622 12.73556676 2.92728622 12.73556676 4.9375 11.5625 C5.5975 11.8925 6.2575 12.2225 6.9375 12.5625 C6.375 14.5 6.375 14.5 4.9375 16.5625 C1.625 17.5625 1.625 17.5625 -2.0625 17.5625 C-4.86439446 15.79608828 -6.57774911 14.53200178 -8.0625 11.5625 C-8.60285146 7.50986402 -8.40449395 6.02519769 -5.9375 2.6875 C-3.0625 0.5625 -3.0625 0.5625 0 0 Z " fill="#898989" transform="translate(119.0625,12.4375)"/>
<path d="M0 0 C4.62 0 9.24 0 14 0 C14 0.99 14 1.98 14 3 C12.35 3 10.7 3 9 3 C9 7.62 9 12.24 9 17 C7.68 17 6.36 17 5 17 C5 12.71 5 8.42 5 4 C3.35 4 1.7 4 0 4 C0 2.68 0 1.36 0 0 Z " fill="#8B8B8B" transform="translate(49,13)"/>
<path d="M0 0 C1.64574566 -0.02688151 3.29161413 -0.04634123 4.9375 -0.0625 C5.85402344 -0.07410156 6.77054687 -0.08570312 7.71484375 -0.09765625 C10 0 10 0 11 1 C11.125 3.5 11.125 3.5 11 6 C10 7 10 7 7.71484375 7.09765625 C6.34005859 7.08025391 6.34005859 7.08025391 4.9375 7.0625 C4.01839844 7.05347656 3.09929687 7.04445313 2.15234375 7.03515625 C1.44207031 7.02355469 0.73179688 7.01195313 0 7 C0 4.69 0 2.38 0 0 Z " fill="#86BB31" transform="translate(74,83)"/>
<path d="M0 0 C2.57146057 2.57146057 2.80117997 4.6050417 3.625 8.125 C3.88539062 9.22070312 4.14578125 10.31640625 4.4140625 11.4453125 C4.70410156 12.70988281 4.70410156 12.70988281 5 14 C2.03 14 -0.94 14 -4 14 C-2 4.42857143 -2 4.42857143 0 0 Z " fill="#178B50" transform="translate(30,72)"/>
<path d="M0 0 C1.64574566 -0.02688151 3.29161413 -0.04634123 4.9375 -0.0625 C5.85402344 -0.07410156 6.77054687 -0.08570312 7.71484375 -0.09765625 C10 0 10 0 11 1 C11.04063832 2.66617115 11.042721 4.33388095 11 6 C8.59454362 7.20272819 7.05003047 7.10071472 4.375 7.0625 C3.14910156 7.04896484 3.14910156 7.04896484 1.8984375 7.03515625 C0.95871094 7.01775391 0.95871094 7.01775391 0 7 C0 4.69 0 2.38 0 0 Z " fill="#8ABD37" transform="translate(73,70)"/>
<path d="M0 0 C4.55555556 0.55555556 4.55555556 0.55555556 6 2 C6.125 5.5 6.125 5.5 6 9 C5 10 5 10 2.5625 10.1875 C0 10 0 10 -2 8 C-2.25 5 -2.25 5 -2 2 C-1.34 1.34 -0.68 0.68 0 0 Z " fill="#F6F6F6" transform="translate(133,16)"/>
<path d="M0 0 C1.32 0 2.64 0 4 0 C4 5.61 4 11.22 4 17 C2.68 17 1.36 17 0 17 C0 11.39 0 5.78 0 0 Z " fill="#8B8B8B" transform="translate(81,13)"/>
<path d="M0 0 C2.31 0 4.62 0 7 0 C7 1.32 7 2.64 7 4 C4.36 4 1.72 4 -1 4 C-0.67 2.68 -0.34 1.36 0 0 Z " fill="#9A9A9A" transform="translate(88,21)"/>
<path d="M0 0 C1.65 0 3.3 0 5 0 C5 1.65 5 3.3 5 5 C3.35 5 1.7 5 0 5 C0 3.35 0 1.7 0 0 Z " fill="#E6E6E6" transform="translate(149,16)"/>
<path d="M0 0 C2.475 0.495 2.475 0.495 5 1 C4.67 2.32 4.34 3.64 4 5 C2.68 5 1.36 5 0 5 C0 3.35 0 1.7 0 0 Z " fill="#F2F2F2" transform="translate(69,16)"/>
</svg>
