<?xml version="1.0" encoding="UTF-8"?>
<svg version="1.1" xmlns="http://www.w3.org/2000/svg" width="240" height="130">
<path d="M0 0 C1.28297875 -0.00785502 1.28297875 -0.00785502 2.59187627 -0.01586872 C5.4629296 -0.03089134 8.33380506 -0.03157438 11.20489502 -0.03224182 C13.26144716 -0.03986185 15.31799645 -0.04828907 17.37454224 -0.0574646 C22.96557878 -0.07943349 28.55656063 -0.08821187 34.14763546 -0.09329104 C37.64063861 -0.09693217 41.13362738 -0.10317099 44.62662506 -0.11029243 C56.81255219 -0.13479643 68.9984367 -0.14784063 81.18438721 -0.15138245 C92.54290162 -0.15501717 103.90114572 -0.18490576 115.25957751 -0.22678703 C125.01087965 -0.26148176 134.76209218 -0.27693076 144.51345563 -0.27762848 C150.33764328 -0.27842165 156.16155575 -0.28717873 161.98567963 -0.31562614 C167.46541356 -0.34179208 172.94464391 -0.34401991 178.42441177 -0.3279705 C180.43353752 -0.32615479 182.44269212 -0.33285775 184.45175552 -0.34878922 C187.19938883 -0.36924563 189.94525952 -0.35870073 192.69287109 -0.34057617 C193.48393903 -0.35377614 194.27500696 -0.36697611 195.09004664 -0.38057607 C201.66704817 -0.28179728 206.45856896 2.16854865 211.13152575 6.78762251 C216.0735822 12.48412888 216.89901042 16.61764156 216.89093018 24.0466156 C216.8976474 24.93167786 216.90436462 25.81674011 216.9112854 26.72862244 C216.9302862 29.65531529 216.93419097 32.58177896 216.93634033 35.50852966 C216.94276795 37.54631138 216.94949628 39.58409217 216.95651245 41.62187195 C216.96849123 45.89563637 216.97219277 50.16931994 216.9710083 54.44309998 C216.97080534 59.90842185 216.99808132 65.3732224 217.03255272 70.83842087 C217.05483944 75.04901998 217.05884526 79.25949413 217.05778885 83.47014618 C217.06014314 85.48429914 217.06895693 87.49845563 217.08445358 89.51255035 C217.10414459 92.33677139 217.09826276 95.1598749 217.08624268 97.9841156 C217.09748169 98.80933716 217.1087207 99.63455872 217.12030029 100.48478699 C217.049297 107.08084761 215.17131773 112.23366627 210.88946533 117.29759216 C210.06575439 117.9666156 210.06575439 117.9666156 209.22540283 118.64915466 C208.68141846 119.11063904 208.13743408 119.57212341 207.57696533 120.04759216 C201.26840221 123.96239221 194.70980341 123.55551245 187.53985596 123.52952576 C186.32942123 123.53314621 185.11898651 123.53676666 183.87187195 123.54049683 C181.24779771 123.54738209 178.62398055 123.55078411 175.99992371 123.54854965 C171.84751475 123.54570717 167.69527463 123.56010257 163.54290771 123.57752991 C151.73836785 123.62446999 139.93384053 123.6484997 128.12921143 123.65501404 C121.6027265 123.65876758 115.07643374 123.67681694 108.55003119 123.7101084 C104.42529067 123.73029049 100.3010468 123.73270918 96.17627716 123.72182822 C93.00442466 123.71860287 89.83273741 123.74132413 86.66094971 123.75999451 C84.95418312 123.74773582 84.95418312 123.74773582 83.2129364 123.73522949 C76.93665716 123.80103106 73.45219377 124.23832484 68.60040283 128.27415466 C58.62569675 131.88667797 47.0814355 131.7654747 37.42071533 127.34446716 C35.60040283 126.27415466 35.60040283 126.27415466 33.60040283 124.27415466 C30.69535792 124.0766456 27.87773148 123.99725284 24.97149658 124.00071716 C23.19609988 123.98040846 21.42070931 123.95955734 19.64532471 123.93821716 C16.84994351 123.91572306 14.05480556 123.89919031 11.25933838 123.89329529 C8.55877694 123.88369415 5.8593094 123.84980478 3.15899658 123.81321716 C2.33677109 123.81826263 1.51454559 123.82330811 0.66740417 123.82850647 C-6.02615044 123.71665209 -12.26458042 122.17608664 -17.28999329 117.52430725 C-22.74116498 111.57791662 -23.69971111 106.23077734 -23.70599365 98.38816833 C-23.71431717 97.50296005 -23.72264069 96.61775177 -23.73121643 95.70571899 C-23.75527663 92.78447548 -23.76408385 89.86345545 -23.77069092 86.94212341 C-23.7796605 84.90577122 -23.78878241 82.8694197 -23.79804993 80.83306885 C-23.81453183 76.56528626 -23.82223855 72.29758204 -23.82513428 68.0297699 C-23.83051617 62.57222207 -23.86819207 57.11541505 -23.91387844 51.65807629 C-23.94368219 47.45176531 -23.95085857 43.24563199 -23.95186043 39.03922462 C-23.95605637 37.02784648 -23.96846543 35.01646751 -23.98937798 33.00519371 C-24.01636003 30.18568979 -24.01144663 27.36789348 -23.9989624 24.54832458 C-24.01379669 23.72467407 -24.02863098 22.90102356 -24.04391479 22.05241394 C-23.95956309 15.33207614 -21.61615061 10.52505749 -16.8860693 5.74446392 C-11.30621468 0.89826306 -7.2787199 -0.02197365 0 0 Z " fill="#FDFDFD" transform="translate(23.39959716796875,-0.2741546630859375)"/>
<path d="M0 0 C15.00358799 -0.07015891 30.00716323 -0.12302185 45.01088047 -0.15543652 C51.9777685 -0.17088895 58.94455445 -0.19194723 65.91137695 -0.22631836 C72.63518108 -0.25947467 79.35885726 -0.27685539 86.08274651 -0.28463173 C88.64756883 -0.29017328 91.21238538 -0.30099453 93.77716255 -0.31719017 C97.37053069 -0.33897786 100.96346116 -0.34196628 104.55688477 -0.34057617 C105.6164035 -0.351362 106.67592224 -0.36214783 107.76754761 -0.3732605 C115.13434175 -0.34243804 120.08680499 0.47523099 125.8125 5.4375 C129.02271066 9.19803249 130.24702732 11.81313834 130.2746582 16.76513672 C130.28419022 17.70646454 130.29372223 18.64779236 130.30354309 19.61764526 C130.30217598 21.13335617 130.30217598 21.13335617 130.30078125 22.6796875 C130.30506638 23.72520782 130.3093515 24.77072815 130.31376648 25.84793091 C130.31950675 28.05860673 130.32001227 30.26930145 130.31567383 32.47998047 C130.31251825 35.85547283 130.33596226 39.230085 130.36132812 42.60546875 C130.36360163 44.75520723 130.36430437 46.90494806 130.36328125 49.0546875 C130.372491 50.06111298 130.38170074 51.06753845 130.39118958 52.10446167 C130.35581032 57.48697082 130.07796797 61.37873971 127 66 C122.0695345 70.71609744 117.86028011 73.25538522 110.99491882 73.24050903 C109.52054604 73.24463303 109.52054604 73.24463303 108.01638794 73.24884033 C106.94967865 73.24164978 105.88296936 73.23445923 104.78393555 73.22705078 C103.08571907 73.22748886 103.08571907 73.22748886 101.35319519 73.22793579 C97.61429152 73.22654342 93.87558758 73.21098626 90.13671875 73.1953125 C87.54311736 73.19158205 84.94951456 73.18873523 82.35591125 73.18673706 C76.22907765 73.17988325 70.10232637 73.16412326 63.97552377 73.14403808 C56.99852527 73.12166349 50.02152331 73.11068173 43.04449785 73.10064721 C28.69629349 73.07975655 14.34814929 73.04459032 0 73 C0.21205896 72.34714807 0.42411793 71.69429613 0.64260292 71.0216608 C2.12544753 66.3054173 3.37510899 62.03518951 3.38818359 57.05053711 C3.39764008 55.99922104 3.40709656 54.94790497 3.4168396 53.86473083 C3.41076691 52.7633931 3.40469421 51.66205536 3.3984375 50.52734375 C3.40130768 49.36425186 3.40417786 48.20115997 3.40713501 47.00282288 C3.40916549 44.55811065 3.40370724 42.1133818 3.39111328 39.66870117 C3.37503143 35.94477775 3.39100524 32.22193718 3.41015625 28.49804688 C3.40817392 26.11197679 3.40433047 23.72590738 3.3984375 21.33984375 C3.40754654 19.6848008 3.40754654 19.6848008 3.4168396 17.99632263 C3.40738312 16.94815872 3.39792664 15.89999481 3.38818359 14.82006836 C3.38579681 13.91091171 3.38341003 13.00175507 3.38095093 12.06504822 C2.85446141 7.82902823 1.45634659 3.99810927 0 0 Z " fill="#EE8103" transform="translate(104,44)"/>
<path d="M0 0 C0.78246094 -0.02900391 1.56492187 -0.05800781 2.37109375 -0.08789062 C9.60331187 -0.16584986 14.66968034 1.97608757 20.125 6.6875 C24.74138093 12.07327776 27.46837909 16.31483217 27.56787109 23.45141602 C27.58393402 24.50003311 27.59999695 25.54865021 27.61654663 26.62904358 C27.66117777 31.4396187 27.7020902 36.25005686 27.72509766 41.06079102 C27.74161801 43.59115827 27.76885553 46.12147961 27.80712891 48.65161133 C27.86217102 52.31095455 27.88381804 55.96920358 27.8984375 59.62890625 C27.92110687 60.74906631 27.94377625 61.86922638 27.96713257 63.02333069 C27.945251 71.24364946 26.25993518 77.97338014 20.66586304 84.22145081 C14.7184058 89.89139626 8.58154407 91.47978204 0.5 91.8125 C-7.32786658 91.6115708 -12.94470744 89.71180188 -18.72265625 84.375 C-23.45289522 79.24652736 -25.84572447 74.85333488 -25.94726562 67.76293945 C-25.96648071 66.67443192 -25.9856958 65.58592438 -26.00549316 64.46443176 C-26.01399292 63.29667709 -26.02249268 62.12892242 -26.03125 60.92578125 C-26.04265015 59.71359421 -26.05405029 58.50140717 -26.0657959 57.25248718 C-26.08467422 54.68797281 -26.09775527 52.12341015 -26.10546875 49.55883789 C-26.12484514 45.65619067 -26.1868911 41.75566703 -26.25 37.85351562 C-26.26306492 35.35678329 -26.27356396 32.86003594 -26.28125 30.36328125 C-26.3059436 29.20564774 -26.33063721 28.04801422 -26.3560791 26.8553009 C-26.31282602 18.89771363 -24.56759058 13.59957918 -19.625 7.3125 C-17.140625 5.05859375 -17.140625 5.05859375 -14.875 3.75 C-14.11703125 3.29496094 -13.3590625 2.83992188 -12.578125 2.37109375 C-8.36177257 0.08583073 -4.73378562 0.05680543 0 0 Z " fill="#87BC32" transform="translate(76.625,34.6875)"/>
<path d="M0 0 C0.74121094 -0.020625 1.48242188 -0.04125 2.24609375 -0.0625 C8.77866993 -0.10858519 13.39034213 1.31329651 18.4375 5.6875 C21.64771066 9.44803249 22.87202732 12.06313834 22.8996582 17.01513672 C22.91395622 18.42712845 22.91395622 18.42712845 22.92854309 19.86764526 C22.92763168 20.8781192 22.92672028 21.88859314 22.92578125 22.9296875 C22.93006638 23.97520782 22.9343515 25.02072815 22.93876648 26.09793091 C22.94450675 28.30860673 22.94501227 30.51930145 22.94067383 32.72998047 C22.93751825 36.10547283 22.96096226 39.480085 22.98632812 42.85546875 C22.98860163 45.00520723 22.98930437 47.15494806 22.98828125 49.3046875 C22.997491 50.31111298 23.00670074 51.31753845 23.01618958 52.35446167 C22.98081032 57.73697082 22.70296797 61.62873971 19.625 66.25 C13.38087185 72.22264432 8.61654117 73.57469327 0.125 73.4375 C-0.60203125 73.43685547 -1.3290625 73.43621094 -2.078125 73.43554688 C-8.90376665 73.38258931 -15.52755957 72.77672619 -22.375 72.25 C-22.375 48.82 -22.375 25.39 -22.375 1.25 C-6.75569307 0.04851485 -6.75569307 0.04851485 0 0 Z " fill="#E64013" transform="translate(211.375,43.75)"/>
<path d="M0 0 C13.53 0 27.06 0 41 0 C41 23.76 41 47.52 41 72 C48.26 72 55.52 72 63 72 C63 72.33 63 72.66 63 73 C42.21 73 21.42 73 0 73 C0.99 69.7 1.98 66.4 3 63 C3.43400661 59.8874118 3.43400661 59.8874118 3.38818359 57.05053711 C3.39764008 55.99922104 3.40709656 54.94790497 3.4168396 53.86473083 C3.41076691 52.7633931 3.40469421 51.66205536 3.3984375 50.52734375 C3.40130768 49.36425186 3.40417786 48.20115997 3.40713501 47.00282288 C3.40916549 44.55811065 3.40370724 42.1133818 3.39111328 39.66870117 C3.37503143 35.94477775 3.39100524 32.22193718 3.41015625 28.49804688 C3.40817392 26.11197679 3.40433047 23.72590738 3.3984375 21.33984375 C3.40754654 19.6848008 3.40754654 19.6848008 3.4168396 17.99632263 C3.40738312 16.94815872 3.39792664 15.89999481 3.38818359 14.82006836 C3.38579681 13.91091171 3.38341003 13.00175507 3.38095093 12.06504822 C2.96776795 7.91928946 2.96776795 7.91928946 0 0 Z " fill="#FDCB07" transform="translate(104,44)"/>
<path d="M0 0 C1.25361328 0.00322266 2.50722656 0.00644531 3.79882812 0.00976562 C5.76432617 0.02233398 5.76432617 0.02233398 7.76953125 0.03515625 C9.10481606 0.04017308 10.44010266 0.04473566 11.77539062 0.04882812 C15.04431598 0.0606293 18.31315116 0.07709328 21.58203125 0.09765625 C21.37009125 0.60418228 21.15815125 1.11070831 20.93978882 1.63258362 C18.41064366 8.29463053 18.14465682 14.36295711 18.18359375 21.4375 C18.17928848 23.18070274 18.17928848 23.18070274 18.17489624 24.9591217 C18.17286372 27.40561412 18.17833645 29.85212308 18.19091797 32.29858398 C18.20696759 36.02039351 18.19104801 39.74111474 18.171875 43.46289062 C18.17385786 45.85026279 18.17770241 48.23763428 18.18359375 50.625 C18.17752106 51.72633774 18.17144836 52.82767548 18.16519165 53.96238708 C18.22687847 60.82036503 19.21578099 66.6536861 21.58203125 73.09765625 C17.06141683 73.21434043 12.54119278 73.2850727 8.01953125 73.34765625 C6.74271484 73.38117188 5.46589844 73.4146875 4.15039062 73.44921875 C-4.09314903 73.53486592 -8.96665205 73.17969332 -15.16015625 67.5 C-18.33735387 63.3915548 -19.53387058 60.58492466 -19.5949707 55.44604492 C-19.60780594 54.50464157 -19.62064117 53.56323822 -19.63386536 52.5933075 C-19.64125229 51.57767227 -19.64863922 50.56203705 -19.65625 49.515625 C-19.66432175 48.46868973 -19.67239349 47.42175446 -19.68070984 46.34309387 C-19.69454393 44.12645114 -19.7052691 41.90978718 -19.71313477 39.69311523 C-19.73034915 36.30867028 -19.77424246 32.92520178 -19.81835938 29.54101562 C-19.82848639 27.38672593 -19.83700247 25.23242793 -19.84375 23.078125 C-19.86125809 22.06856247 -19.87876617 21.05899994 -19.89680481 20.0188446 C-19.87516253 12.98473004 -18.76707523 9.54502503 -13.8203125 4.453125 C-9.02812828 0.63215678 -6.03821576 -0.02732224 0 0 Z " fill="#068243" transform="translate(29.41796875,43.90234375)"/>
<path d="M0 0 C4.021875 -0.103125 8.04375 -0.20625 12.1875 -0.3125 C13.44715576 -0.35802002 14.70681152 -0.40354004 16.00463867 -0.45043945 C24.02771329 -0.55036525 24.02771329 -0.55036525 26.88134766 1.06494141 C29.72684902 3.85310269 30.92926821 6.2785357 31.3125 10.1875 C30.92614976 14.90097295 29.55780736 17.08335749 27 21 C27.825 21.61875 28.65 22.2375 29.5 22.875 C32.06573905 25.43342925 32.43937421 27.41329227 32.5625 31 C32.37642651 34.37949685 32.01885614 35.96518867 30.375 39 C24.56234665 43.89486598 17.81395741 43.24465712 10.625 43.125 C7.11875 43.08375 3.6125 43.0425 0 43 C0 28.81 0 14.62 0 0 Z " fill="#FCFDFA" transform="translate(63,60)"/>
<path d="M0 0 C2.866875 -0.061875 5.73375 -0.12375 8.6875 -0.1875 C10.02880981 -0.22846802 10.02880981 -0.22846802 11.3972168 -0.27026367 C16.10967096 -0.31941229 19.17658813 -0.06163152 23 3 C27.64418077 8.28920588 28.2962437 11.31928516 28.21484375 18.23828125 C27.82684775 23.2257934 26.11332861 25.97017103 22.5 29.3125 C19.25230681 31.5046929 16.82083239 32.12647242 12.98828125 32.09765625 C11.96408081 32.09390991 11.96408081 32.09390991 10.91918945 32.09008789 C9.62887817 32.07643188 9.62887817 32.07643188 8.3125 32.0625 C4.1978125 32.0315625 4.1978125 32.0315625 0 32 C0 21.44 0 10.88 0 0 Z " fill="#F5B870" transform="translate(153,64)"/>
<path d="M0 0 C2.31 0 4.62 0 7 0 C10.10048172 6.69441157 12.74737963 13.49968019 15.25 20.4375 C15.61351563 21.42943359 15.97703125 22.42136719 16.3515625 23.44335938 C16.69445312 24.38888672 17.03734375 25.33441406 17.390625 26.30859375 C17.70032227 27.16251709 18.01001953 28.01644043 18.32910156 28.89624023 C19 31 19 31 19 33 C16.36 33 13.72 33 11 33 C10.34 31.02 9.68 29.04 9 27 C5.37 26.67 1.74 26.34 -2 26 C-2.33 28.31 -2.66 30.62 -3 33 C-5.64 33 -8.28 33 -11 33 C-10.30657022 28.94891025 -9.10847912 25.25008768 -7.71484375 21.38671875 C-7.3840255 20.46509697 -7.3840255 20.46509697 -7.04652405 19.52485657 C-6.34680121 17.57786976 -5.64223285 15.63267824 -4.9375 13.6875 C-4.45996441 12.36144406 -3.98274752 11.0352733 -3.50585938 9.70898438 C-2.3403697 6.47151306 -1.17164035 3.23524939 0 0 Z " fill="#6FB692" transform="translate(26,63)"/>
<path d="M0 0 C7.26 0 14.52 0 22 0 C22 2.31 22 4.62 22 7 C17.05 7 12.1 7 7 7 C7 9.31 7 11.62 7 14 C11.29 14 15.58 14 20 14 C20 15.98 20 17.96 20 20 C15.71 20 11.42 20 7 20 C7 22.31 7 24.62 7 27 C12.28 27 17.56 27 23 27 C23 28.98 23 30.96 23 33 C15.41 33 7.82 33 0 33 C0 22.11 0 11.22 0 0 Z " fill="#F09177" transform="translate(198,63)"/>
<path d="M0 0 C2.73938912 1.4160835 4.64755271 2.95439366 7 5 C6.66015625 6.921875 6.66015625 6.921875 6 9 C3.4375 10.25 3.4375 10.25 1 11 C0.649375 10.505 0.29875 10.01 -0.0625 9.5 C-2.97898206 7.2420784 -5.41642819 7.74403059 -9 8 C-9.99 8.33 -10.98 8.66 -12 9 C-13.34720087 16.74853283 -13.34720087 16.74853283 -11 24 C-7.82253509 25.58873246 -4.45987798 25.41026221 -1 25 C1.4595774 23.66169042 1.4595774 23.66169042 3 22 C4.65 22.99 6.3 23.98 8 25 C6.60415208 28.37329915 5.07634389 30.04232662 2 32 C-2.87608996 33.62536332 -8.21225607 34.12561736 -13.0703125 32.1640625 C-17.72006374 29.1648723 -20.30803474 25.2260702 -22 20 C-22.8325103 14.17242788 -21.46296549 9.67598166 -18 5 C-12.85184896 0.08909094 -6.95995197 -1.46644045 0 0 Z " fill="#FEE06D" transform="translate(132,63)"/>
<path d="M0 0 C8.07692308 0 8.07692308 0 12 3 C13.84438013 6.68876027 13.48788734 10.97330313 13 15 C11.11484777 17.57637471 9.80665143 18.59667428 7 20 C4.69 20 2.38 20 0 20 C0 13.4 0 6.8 0 0 Z " fill="#EE8305" transform="translate(160,70)"/>
<path d="M0 0 C4.10703441 0.85563217 5.55401113 2.24378009 8 5.625 C8.625 9.125 8.625 9.125 8 12.625 C5.55804571 16.00064269 4.0769435 17.37820045 0 18.3125 C-4.35321372 17.31488852 -5.65945491 15.34233632 -8 11.625 C-8.625 8.5625 -8.625 8.5625 -8 5.625 C-5.54405875 2.30225596 -4.0743356 0.84881992 0 0 Z " fill="#868686" transform="translate(135,12.375)"/>
<path d="M0 0 C1.588125 -0.061875 3.17625 -0.12375 4.8125 -0.1875 C6.15248047 -0.23970703 6.15248047 -0.23970703 7.51953125 -0.29296875 C10 0 10 0 11.8125 1.328125 C13.60385359 3.85016229 13.18499541 5.97840832 13 9 C13 12.11257569 13.17361624 14.10765685 14 17 C12.35 16.67 10.7 16.34 9 16 C8.67 14.68 8.34 13.36 8 12 C7.01 12 6.02 12 5 12 C5 13.65 5 15.3 5 17 C3.35 17 1.7 17 0 17 C0 11.39 0 5.78 0 0 Z " fill="#8E8E8E" transform="translate(145,13)"/>
<path d="M0 0 C1.588125 -0.061875 3.17625 -0.12375 4.8125 -0.1875 C6.15248047 -0.23970703 6.15248047 -0.23970703 7.51953125 -0.29296875 C10 0 10 0 11.8515625 1.23828125 C13.37397395 3.57368113 13.08369863 4.67214693 12.5625 7.375 C11.97653118 11.19626474 12.08881481 13.51489759 14 17 C12.35 17 10.7 17 9 17 C8.34 15.02 7.68 13.04 7 11 C6.01 11 5.02 11 4 11 C4 12.98 4 14.96 4 17 C2.68 17 1.36 17 0 17 C0 11.39 0 5.78 0 0 Z " fill="#868686" transform="translate(65,13)"/>
<path d="M0 0 C4.22999675 1.05749919 4.54930356 1.20032488 6.75 4.5625 C7.17796875 5.20316406 7.6059375 5.84382813 8.046875 6.50390625 C8.36140625 6.99761719 8.6759375 7.49132812 9 8 C9.33 5.36 9.66 2.72 10 0 C11.32 0 12.64 0 14 0 C14 5.61 14 11.22 14 17 C8.82530321 15.7063258 8.08244463 14.19554964 5 10 C5 9.34 5 8.68 5 8 C4.34 8 3.68 8 3 8 C3 10.64 3 13.28 3 16 C2.01 16 1.02 16 0 16 C0 10.72 0 5.44 0 0 Z " fill="#828282" transform="translate(16,13)"/>
<path d="M0 0 C3.96 0 7.92 0 12 0 C12 0.99 12 1.98 12 3 C9.36 3 6.72 3 4 3 C4 4.32 4 5.64 4 7 C6.31 7 8.62 7 11 7 C11 7.99 11 8.98 11 10 C8.69 10 6.38 10 4 10 C4 10.99 4 11.98 4 13 C6.64 13 9.28 13 12 13 C12 14.32 12 15.64 12 17 C8.04 17 4.08 17 0 17 C0 11.39 0 5.78 0 0 Z " fill="#8A8A8A" transform="translate(161,13)"/>
<path d="M0 0 C1.32 0 2.64 0 4 0 C4.33 3.96 4.66 7.92 5 12 C6.65 12.33 8.3 12.66 10 13 C10.33 8.71 10.66 4.42 11 0 C12.32 0 13.64 0 15 0 C15.45663381 9.65695939 15.45663381 9.65695939 13.9375 14.125 C12 16 12 16 8.625 17.125 C5 17 5 17 2.0625 15.3125 C-1.01861877 10.36403653 -0.40776458 5.68151984 0 0 Z " fill="#868686" transform="translate(33,13)"/>
<path d="M0 0 C2.1640625 0.0234375 2.1640625 0.0234375 4.625 0.375 C5.85089844 0.54128906 5.85089844 0.54128906 7.1015625 0.7109375 C7.72804688 0.80632813 8.35453125 0.90171875 9 1 C8.34 2.32 7.68 3.64 7 5 C5.35 4.67 3.7 4.34 2 4 C1.67 4.66 1.34 5.32 1 6 C2.11375 6.28875 3.2275 6.5775 4.375 6.875 C8 8 8 8 10 10 C9.8125 12.5 9.8125 12.5 9 15 C5.53001271 17.31332486 4.07490752 17.33957563 0 17 C-0.99 16.34 -1.98 15.68 -3 15 C-2.67 14.01 -2.34 13.02 -2 12 C0.31 12.33 2.62 12.66 5 13 C5 12.34 5 11.68 5 11 C4.05125 10.71125 3.1025 10.4225 2.125 10.125 C-1 9 -1 9 -3 7 C-2.67028521 3.70285207 -2.3773161 2.3773161 0 0 Z " fill="#878787" transform="translate(100,13)"/>
<path d="M0 0 C3.5149153 0.67306889 4.71363628 1.82543696 6.9375 4.5625 C3.36105152 5.8005014 0.60055234 5.31176071 -3.0625 4.5625 C-3.10491723 6.89544775 -3.10342937 9.22952567 -3.0625 11.5625 C-2.01025333 12.83806818 -2.01025333 12.83806818 0.375 12.6875 C2.92728622 12.73556676 2.92728622 12.73556676 4.9375 11.5625 C5.5975 11.8925 6.2575 12.2225 6.9375 12.5625 C6.375 14.5 6.375 14.5 4.9375 16.5625 C1.625 17.5625 1.625 17.5625 -2.0625 17.5625 C-4.86439446 15.79608828 -6.57774911 14.53200178 -8.0625 11.5625 C-8.60285146 7.50986402 -8.40449395 6.02519769 -5.9375 2.6875 C-3.0625 0.5625 -3.0625 0.5625 0 0 Z " fill="#898989" transform="translate(119.0625,12.4375)"/>
<path d="M0 0 C1.95803507 -0.05389087 3.91648909 -0.09274217 5.875 -0.125 C7.51082031 -0.15980469 7.51082031 -0.15980469 9.1796875 -0.1953125 C12 0 12 0 14 2 C14.25 4.5 14.25 4.5 14 7 C12 9 12 9 9.1796875 9.1953125 C8.08914062 9.17210938 6.99859375 9.14890625 5.875 9.125 C4.77929688 9.10695313 3.68359375 9.08890625 2.5546875 9.0703125 C1.71164063 9.04710938 0.86859375 9.02390625 0 9 C0 6.03 0 3.06 0 0 Z " fill="#85BB30" transform="translate(72,85)"/>
<path d="M0 0 C1.79133978 -0.05391993 3.58313899 -0.09275571 5.375 -0.125 C6.37273437 -0.14820312 7.37046875 -0.17140625 8.3984375 -0.1953125 C11 0 11 0 13 2 C13.25 4.5 13.25 4.5 13 7 C11 9 11 9 8.3984375 9.1953125 C7.40070313 9.17210938 6.40296875 9.14890625 5.375 9.125 C3.87066406 9.09792969 3.87066406 9.09792969 2.3359375 9.0703125 C1.56507812 9.04710938 0.79421875 9.02390625 0 9 C0 6.03 0 3.06 0 0 Z " fill="#8ABD37" transform="translate(72,68)"/>
<path d="M0 0 C4.62 0 9.24 0 14 0 C14 0.99 14 1.98 14 3 C12.35 3 10.7 3 9 3 C9 7.62 9 12.24 9 17 C7.68 17 6.36 17 5 17 C5 12.71 5 8.42 5 4 C3.35 4 1.7 4 0 4 C0 2.68 0 1.36 0 0 Z " fill="#8B8B8B" transform="translate(49,13)"/>
<path d="M0 0 C4.55555556 0.55555556 4.55555556 0.55555556 6 2 C6.125 5.5 6.125 5.5 6 9 C5 10 5 10 2.5625 10.1875 C0 10 0 10 -2 8 C-2.25 5 -2.25 5 -2 2 C-1.34 1.34 -0.68 0.68 0 0 Z " fill="#F6F6F6" transform="translate(133,16)"/>
<path d="M0 0 C1.32 0 2.64 0 4 0 C4 5.61 4 11.22 4 17 C2.68 17 1.36 17 0 17 C0 11.39 0 5.78 0 0 Z " fill="#8B8B8B" transform="translate(81,13)"/>
<path d="M0 0 C0.66 0 1.32 0 2 0 C2.99 3.63 3.98 7.26 5 11 C2.36 11 -0.28 11 -3 11 C-2.01 7.37 -1.02 3.74 0 0 Z " fill="#14894E" transform="translate(29,73)"/>
<path d="M0 0 C2.31 0 4.62 0 7 0 C7 1.32 7 2.64 7 4 C4.36 4 1.72 4 -1 4 C-0.67 2.68 -0.34 1.36 0 0 Z " fill="#9A9A9A" transform="translate(88,21)"/>
<path d="M0 0 C1.65 0 3.3 0 5 0 C5 1.65 5 3.3 5 5 C3.35 5 1.7 5 0 5 C0 3.35 0 1.7 0 0 Z " fill="#E6E6E6" transform="translate(149,16)"/>
<path d="M0 0 C2.475 0.495 2.475 0.495 5 1 C4.67 2.32 4.34 3.64 4 5 C2.68 5 1.36 5 0 5 C0 3.35 0 1.7 0 0 Z " fill="#F2F2F2" transform="translate(69,16)"/>
</svg>
