<?xml version="1.0" encoding="UTF-8"?>
<svg version="1.1" xmlns="http://www.w3.org/2000/svg" width="240" height="130">
<path d="M0 0 C1.28297875 -0.00785502 1.28297875 -0.00785502 2.59187627 -0.01586872 C5.4629296 -0.03089134 8.33380506 -0.03157438 11.20489502 -0.03224182 C13.26144716 -0.03986185 15.31799645 -0.04828907 17.37454224 -0.0574646 C22.96557878 -0.07943349 28.55656063 -0.08821187 34.14763546 -0.09329104 C37.64063861 -0.09693217 41.13362738 -0.10317099 44.62662506 -0.11029243 C56.81255219 -0.13479643 68.9984367 -0.14784063 81.18438721 -0.15138245 C92.54290162 -0.15501717 103.90114572 -0.18490576 115.25957751 -0.22678703 C125.01087965 -0.26148176 134.76209218 -0.27693076 144.51345563 -0.27762848 C150.33764328 -0.27842165 156.16155575 -0.28717873 161.98567963 -0.31562614 C167.46541356 -0.34179208 172.94464391 -0.34401991 178.42441177 -0.3279705 C180.43353752 -0.32615479 182.44269212 -0.33285775 184.45175552 -0.34878922 C187.19938883 -0.36924563 189.94525952 -0.35870073 192.69287109 -0.34057617 C193.48393903 -0.35377614 194.27500696 -0.36697611 195.09004664 -0.38057607 C201.66704817 -0.28179728 206.45856896 2.16854865 211.13152575 6.78762251 C216.0735822 12.48412888 216.89901042 16.61764156 216.89093018 24.0466156 C216.8976474 24.93167786 216.90436462 25.81674011 216.9112854 26.72862244 C216.9302862 29.65531529 216.93419097 32.58177896 216.93634033 35.50852966 C216.94276795 37.54631138 216.94949628 39.58409217 216.95651245 41.62187195 C216.96849123 45.89563637 216.97219277 50.16931994 216.9710083 54.44309998 C216.97080534 59.90842185 216.99808132 65.3732224 217.03255272 70.83842087 C217.05483944 75.04901998 217.05884526 79.25949413 217.05778885 83.47014618 C217.06014314 85.48429914 217.06895693 87.49845563 217.08445358 89.51255035 C217.10414459 92.33677139 217.09826276 95.1598749 217.08624268 97.9841156 C217.09748169 98.80933716 217.1087207 99.63455872 217.12030029 100.48478699 C217.049297 107.08084761 215.17131773 112.23366627 210.88946533 117.29759216 C210.06575439 117.9666156 210.06575439 117.9666156 209.22540283 118.64915466 C208.68141846 119.11063904 208.13743408 119.57212341 207.57696533 120.04759216 C202.52310124 123.18378451 197.43256138 123.55947295 191.62652588 123.51365662 C190.85006714 123.51567078 190.0736084 123.51768494 189.27362061 123.51976013 C187.59583072 123.52329184 185.91802748 123.52255564 184.2402401 123.51798439 C181.578142 123.51236418 178.91647527 123.52159445 176.25440979 123.53518677 C168.68848722 123.57219872 161.12271236 123.59087533 153.55670166 123.57957458 C148.92002677 123.57370046 144.28396026 123.59209426 139.64740944 123.62546349 C137.88810744 123.63338109 136.12873849 123.63219022 134.36945152 123.62143898 C122.21895389 123.31872078 122.21895389 123.31872078 111.31336975 128.10513306 C105.63624244 131.97951289 96.20519985 130.9351264 89.60040283 130.27415466 C84.72319157 129.0052378 80.77686403 127.05846213 76.60040283 124.27415466 C73.95994274 124.08169286 71.42400511 124.00428731 68.7835083 124.01878357 C67.9879805 124.01516312 67.1924527 124.01154266 66.37281799 124.0078125 C64.64423647 124.00091719 62.91563317 123.99841332 61.18703842 123.99975967 C58.44537421 124.00072499 55.70410204 123.98777997 52.9624939 123.97077942 C45.16702362 123.92452352 37.37159151 123.89992351 29.57598877 123.89329529 C24.8066743 123.88826239 20.03776571 123.86391679 15.26858902 123.8279686 C13.45626393 123.81820617 11.64388273 123.81581913 9.83153915 123.82114029 C-10.522208 123.87806638 -10.522208 123.87806638 -17.25338745 117.52430725 C-22.77619648 111.6390223 -23.69972538 106.21296184 -23.70599365 98.38816833 C-23.71431717 97.50296005 -23.72264069 96.61775177 -23.73121643 95.70571899 C-23.75527663 92.78447548 -23.76408385 89.86345545 -23.77069092 86.94212341 C-23.7796605 84.90577122 -23.78878241 82.8694197 -23.79804993 80.83306885 C-23.81453183 76.56528626 -23.82223855 72.29758204 -23.82513428 68.0297699 C-23.83051617 62.57222207 -23.86819207 57.11541505 -23.91387844 51.65807629 C-23.94368219 47.45176531 -23.95085857 43.24563199 -23.95186043 39.03922462 C-23.95605637 37.02784648 -23.96846543 35.01646751 -23.98937798 33.00519371 C-24.01636003 30.18568979 -24.01144663 27.36789348 -23.9989624 24.54832458 C-24.01379669 23.72467407 -24.02863098 22.90102356 -24.04391479 22.05241394 C-23.95956309 15.33207614 -21.61615061 10.52505749 -16.8860693 5.74446392 C-11.30621468 0.89826306 -7.2787199 -0.02197365 0 0 Z " fill="#FEFDFD" transform="translate(23.39959716796875,-0.2741546630859375)"/>
<path d="M0 0 C9.39708544 -0.06963455 18.79408151 -0.12287941 28.19136906 -0.15543652 C32.55532535 -0.17106549 36.91910458 -0.19225292 41.28295898 -0.22631836 C45.49751453 -0.25901093 49.71190019 -0.27687383 53.9265728 -0.28463173 C55.53127146 -0.29015752 57.13596126 -0.30094803 58.74058723 -0.31719017 C60.9953097 -0.33909662 63.24933794 -0.3419615 65.50415039 -0.34057617 C66.78544327 -0.34723801 68.06673615 -0.35389984 69.38685608 -0.36076355 C76.05912169 0.30544579 80.59955039 2.8451876 85 8 C86.81693314 11.02240244 87.25507463 13.25537574 87.2746582 16.76513672 C87.28419022 17.70646454 87.29372223 18.64779236 87.30354309 19.61764526 C87.30263168 20.6281192 87.30172028 21.63859314 87.30078125 22.6796875 C87.30506638 23.72520782 87.3093515 24.77072815 87.31376648 25.84793091 C87.31950675 28.05860673 87.32001227 30.26930145 87.31567383 32.47998047 C87.31251825 35.85547283 87.33596226 39.230085 87.36132812 42.60546875 C87.36360163 44.75520723 87.36430437 46.90494806 87.36328125 49.0546875 C87.372491 50.06111298 87.38170074 51.06753845 87.39118958 52.10446167 C87.35581032 57.48697082 87.07796797 61.37873971 84 66 C78.11796586 71.62629353 73.79938904 73.25492017 65.73120117 73.22705078 C65.01846039 73.22734283 64.3057196 73.22763489 63.57138062 73.22793579 C61.22845044 73.22654857 58.88584299 73.21101636 56.54296875 73.1953125 C54.91343866 73.1915802 53.28390631 73.18873425 51.65437317 73.18673706 C47.37506871 73.17911767 43.095901 73.1594838 38.81665039 73.1373291 C34.44614512 73.11683411 30.07561765 73.10772754 25.70507812 73.09765625 C17.13665615 73.07623625 8.56834511 73.04212085 0 73 C0.48678223 71.77474609 0.97356445 70.54949219 1.47509766 69.28710938 C3.44866578 63.33318582 3.43193353 57.63017845 3.3984375 51.40625 C3.40130768 50.21954712 3.40417786 49.03284424 3.40713501 47.81018066 C3.40916768 45.31241374 3.4036939 42.8146306 3.39111328 40.31689453 C3.37504931 36.51167933 3.39099028 32.70752623 3.41015625 28.90234375 C3.40817368 26.46614351 3.40432972 24.02994392 3.3984375 21.59375 C3.40451019 20.4653772 3.41058289 19.33700439 3.4168396 18.17443848 C3.35772369 11.47664997 2.4770192 6.23477457 0 0 Z " fill="#E64013" transform="translate(147,44)"/>
<path d="M0 0 C0.70269516 -0.00014603 1.40539032 -0.00029205 2.12937927 -0.0004425 C4.45062351 0.00025382 6.77178737 0.00803313 9.09301758 0.01586914 C10.70298722 0.01773431 12.31295744 0.01915775 13.92292786 0.02015686 C18.1594703 0.02397421 22.39597843 0.03379785 26.63250732 0.04486084 C30.9559279 0.05509175 35.27935401 0.05965808 39.6027832 0.06469727 C48.08522082 0.0754208 56.56763055 0.09248786 65.05004883 0.11352539 C64.31955826 1.66398056 64.31955826 1.66398056 63.5743103 3.24575806 C62.14657688 6.59022483 61.67089105 9.33000882 61.66186523 12.99780273 C61.64768051 14.66521011 61.64768051 14.66521011 61.63320923 16.36630249 C61.63928192 17.54874542 61.64535461 18.73118835 61.65161133 19.94946289 C61.64874115 21.18338776 61.64587097 22.41731262 61.64291382 23.68862915 C61.64087702 26.29250549 61.64637991 28.89639727 61.65893555 31.50024414 C61.67496608 35.46804366 61.65908669 39.43482029 61.63989258 43.40258789 C61.64187561 45.93904846 61.64572053 48.47550839 61.65161133 51.01196289 C61.64553864 52.19035736 61.63946594 53.36875183 61.63320923 54.58285522 C61.69094725 61.40842393 62.50650797 66.76603962 65.05004883 73.11352539 C55.78337736 73.20637686 46.51686708 73.27736686 37.2498312 73.32077408 C32.94633439 73.34161184 28.64315684 73.36985917 24.33984375 73.4152832 C20.18362877 73.45887789 16.02772007 73.48269115 11.87129402 73.49303436 C10.28890222 73.5004014 8.7065264 73.51478758 7.12426567 73.53644562 C4.90051475 73.5656623 2.67801481 73.56947402 0.45410156 73.56762695 C-0.80942642 73.5765094 -2.07295441 73.58539185 -3.37477112 73.59454346 C-8.76305957 72.86958302 -13.42910892 70.44220071 -16.82495117 66.05102539 C-19.48763818 62.37025217 -20.074378 59.88379157 -20.12695312 55.46191406 C-20.13978836 54.52051071 -20.1526236 53.57910736 -20.16584778 52.60917664 C-20.17323471 51.59354141 -20.18062164 50.57790619 -20.18823242 49.53149414 C-20.19630417 48.48455887 -20.20437592 47.4376236 -20.21269226 46.35896301 C-20.22652635 44.14232029 -20.23725153 41.92565632 -20.24511719 39.70898438 C-20.26233157 36.32453942 -20.30622488 32.94107092 -20.3503418 29.55688477 C-20.36046881 27.40259507 -20.36898489 25.24829707 -20.37573242 23.09399414 C-20.39324051 22.08443161 -20.4107486 21.07486908 -20.42878723 20.03471375 C-20.40714495 13.00059918 -19.29905766 9.56089417 -14.35229492 4.46899414 C-9.37825441 0.50302584 -6.2707999 -0.0109438 0 0 Z " fill="#068242" transform="translate(29.949951171875,43.886474609375)"/>
<path d="M0 0 C6.11678245 4.25776033 10.60692611 9.73349311 12.75 16.9375 C13.21218594 20.81620967 13.24165525 24.6709528 13.25390625 28.57421875 C13.26389145 29.69004837 13.27387665 30.80587799 13.28416443 31.95552063 C13.299312 34.31137399 13.30639127 36.66729135 13.3059082 39.02319336 C13.3124481 42.59664217 13.36691118 46.16727904 13.42382812 49.74023438 C13.59704201 72.84702747 13.59704201 72.84702747 6.75 80.9375 C-0.98338742 87.586685 -8.32590124 89.60929665 -18.4453125 89.3125 C-26.31629707 88.53671507 -31.95035098 85.05380048 -36.99609375 79.07421875 C-41.24137851 71.84004191 -41.71719526 65.3518783 -41.71875 57.1328125 C-41.72636353 56.01365448 -41.73397705 54.89449646 -41.74182129 53.74142456 C-41.75258643 51.38314027 -41.75549006 49.02480845 -41.75097656 46.66650391 C-41.75000481 43.0802368 -41.79166033 39.49611479 -41.8359375 35.91015625 C-41.84114573 33.60937942 -41.84383267 31.30859522 -41.84375 29.0078125 C-41.86014526 27.94708527 -41.87654053 26.88635803 -41.89343262 25.79348755 C-41.81674743 17.43305978 -39.62934075 10.93126634 -34.1875 4.5 C-33.2284375 3.7265625 -33.2284375 3.7265625 -32.25 2.9375 C-31.610625 2.40125 -30.97125 1.865 -30.3125 1.3125 C-22.40053698 -3.96214202 -8.45791019 -4.40274777 0 0 Z " fill="#FECC07" transform="translate(135.25,37.0625)"/>
<path d="M0 0 C18.15 0 36.3 0 55 0 C55 0.33 55 0.66 55 1 C50.71 1 46.42 1 42 1 C42 24.43 42 47.86 42 72 C46.29 72 50.58 72 55 72 C55 72.33 55 72.66 55 73 C36.85 73 18.7 73 0 73 C0.99 70.03 1.98 67.06 3 64 C3.4367192 60.9462396 3.4367192 60.9462396 3.38818359 58.07226562 C3.39764008 57.00085327 3.40709656 55.92944092 3.4168396 54.82556152 C3.41076691 53.69718872 3.40469421 52.56881592 3.3984375 51.40625 C3.40130768 50.21954712 3.40417786 49.03284424 3.40713501 47.81018066 C3.40916768 45.31241374 3.4036939 42.8146306 3.39111328 40.31689453 C3.37504931 36.51167933 3.39099028 32.70752623 3.41015625 28.90234375 C3.40817368 26.46614351 3.40432972 24.02994392 3.3984375 21.59375 C3.40451019 20.4653772 3.41058289 19.33700439 3.4168396 18.17443848 C3.40738312 17.10302612 3.39792664 16.03161377 3.38818359 14.92773438 C3.38579681 13.99779663 3.38341003 13.06785889 3.38095093 12.10974121 C2.97286679 7.92596215 2.97286679 7.92596215 0 0 Z " fill="#EE8307" transform="translate(147,44)"/>
<path d="M0 0 C13.2 0 26.4 0 40 0 C39.01 2.31 38.02 4.62 37 7 C36.5574288 9.93601943 36.5574288 9.93601943 36.61181641 12.88427734 C36.60235992 13.99588226 36.59290344 15.10748718 36.5831604 16.2527771 C36.59226944 18.0264415 36.59226944 18.0264415 36.6015625 19.8359375 C36.59725723 21.6868248 36.59725723 21.6868248 36.59286499 23.57510376 C36.59082819 26.1789801 36.59633108 28.78287188 36.60888672 31.38671875 C36.62491725 35.35451827 36.60903786 39.3212949 36.58984375 43.2890625 C36.59182678 45.82552307 36.5956717 48.361983 36.6015625 50.8984375 C36.59548981 52.07683197 36.58941711 53.25522644 36.5831604 54.46932983 C36.59261688 55.58723907 36.60207336 56.70514832 36.61181641 57.85693359 C36.61539658 59.3141835 36.61539658 59.3141835 36.61904907 60.8008728 C37.01716054 65.06064632 37.01716054 65.06064632 40 73 C22.51 73 5.02 73 -13 73 C-13 72.67 -13 72.34 -13 72 C-8.71 72 -4.42 72 0 72 C0 48.24 0 24.48 0 0 Z " fill="#87BC35" transform="translate(55,44)"/>
<path d="M0 0 C2.84625 -0.0825 5.6925 -0.165 8.625 -0.25 C9.51010254 -0.28641602 10.39520508 -0.32283203 11.30712891 -0.36035156 C16.70951742 -0.43573938 19.71108486 0.42037995 24 4 C27.87666717 8.27770171 28.31074455 12.18807537 28.21484375 17.91015625 C27.72039731 22.71977159 25.96426139 26.08395168 22.5 29.375 C19.24340996 31.49178353 16.7929846 32.12626304 12.98828125 32.09765625 C11.96408081 32.09390991 11.96408081 32.09390991 10.91918945 32.09008789 C9.62887817 32.07643188 9.62887817 32.07643188 8.3125 32.0625 C4.1978125 32.0315625 4.1978125 32.0315625 0 32 C0 21.44 0 10.88 0 0 Z " fill="#F5B870" transform="translate(156,64)"/>
<path d="M0 0 C5.32125 -0.1546875 5.32125 -0.1546875 10.75 -0.3125 C12.41820801 -0.38078003 12.41820801 -0.38078003 14.12011719 -0.45043945 C21.34776048 -0.55261792 21.34776048 -0.55261792 24.7109375 2.296875 C26.45957296 5.96371057 25.99010556 8.11029957 25 12 C23.9375 14.4375 23.9375 14.4375 23 16 C23.66 16.515625 24.32 17.03125 25 17.5625 C27 20 27 20 27.5 23.5 C26.92936321 27.49445751 26.14975126 28.59136668 23 31 C20.54724859 32.2263757 18.9494219 32.11415314 16.2109375 32.09765625 C15.36321777 32.09515869 14.51549805 32.09266113 13.64208984 32.09008789 C12.5639502 32.08098389 11.48581055 32.07187988 10.375 32.0625 C6.95125 32.041875 3.5275 32.02125 0 32 C0 21.44 0 10.88 0 0 Z " fill="#BAD88A" transform="translate(59,64)"/>
<path d="M0 0 C4.06691348 2.39805065 6.72836839 4.66190937 8.73828125 9.05859375 C5.27328125 11.53359375 5.27328125 11.53359375 1.73828125 14.05859375 C0.87203125 13.23359375 0.00578125 12.40859375 -0.88671875 11.55859375 C-3.2477952 9.60862238 -4.20541409 9.06893542 -7.32421875 8.49609375 C-10.93952983 9.18838736 -12.64280291 10.51450408 -15.26171875 13.05859375 C-17.22049347 16.97614319 -16.62053515 21.77754295 -16.26171875 26.05859375 C-14.87853005 29.13933223 -13.62326205 30.69705045 -11.26171875 33.05859375 C-8.33201507 33.34211346 -6.10776657 33.55183311 -3.26171875 33.05859375 C-1.03193879 31.07957801 -1.03193879 31.07957801 0.73828125 29.05859375 C3.72091186 29.24500816 6.12536084 30.65881496 8.73828125 32.05859375 C8.26354062 36.33125945 5.89493157 38.33239575 2.73828125 41.05859375 C-1.65776545 43.62295433 -6.31017606 43.58698557 -11.26171875 43.05859375 C-18.79887339 40.88687123 -22.40642177 36.33628508 -26.13671875 29.74609375 C-28.2065666 22.96159248 -28.17050683 17.34353994 -25.26171875 10.80859375 C-20.29525586 1.79801108 -10.190594 -4.24168075 0 0 Z " fill="#FEFDF5" transform="translate(129.26171875,59.94140625)"/>
<path d="M0 0 C2.31 0 4.62 0 7 0 C10.10048172 6.69441157 12.74737963 13.49968019 15.25 20.4375 C15.61351563 21.42943359 15.97703125 22.42136719 16.3515625 23.44335938 C16.69445312 24.38888672 17.03734375 25.33441406 17.390625 26.30859375 C17.70032227 27.16251709 18.01001953 28.01644043 18.32910156 28.89624023 C19 31 19 31 19 33 C16.36 33 13.72 33 11 33 C10.34 31.02 9.68 29.04 9 27 C5.37 26.67 1.74 26.34 -2 26 C-2.33 28.31 -2.66 30.62 -3 33 C-5.64 33 -8.28 33 -11 33 C-10.30657022 28.94891025 -9.10847912 25.25008768 -7.71484375 21.38671875 C-7.3840255 20.46509697 -7.3840255 20.46509697 -7.04652405 19.52485657 C-6.34680121 17.57786976 -5.64223285 15.63267824 -4.9375 13.6875 C-4.45996441 12.36144406 -3.98274752 11.0352733 -3.50585938 9.70898438 C-2.3403697 6.47151306 -1.17164035 3.23524939 0 0 Z " fill="#6FB692" transform="translate(26,63)"/>
<path d="M0 0 C7.26 0 14.52 0 22 0 C22 2.31 22 4.62 22 7 C17.05 7 12.1 7 7 7 C7 9.31 7 11.62 7 14 C11.29 14 15.58 14 20 14 C20 15.98 20 17.96 20 20 C15.71 20 11.42 20 7 20 C7 22.31 7 24.62 7 27 C12.28 27 17.56 27 23 27 C23 28.98 23 30.96 23 33 C15.41 33 7.82 33 0 33 C0 22.11 0 11.22 0 0 Z " fill="#F09177" transform="translate(198,63)"/>
<path d="M0 0 C8.07692308 0 8.07692308 0 12 3 C13.16297973 5.32595946 13.16600691 6.78723231 13.1875 9.375 C13.20167969 10.14585938 13.21585938 10.91671875 13.23046875 11.7109375 C12.97460352 14.252243 12.32635735 15.83045833 11 18 C7.2594195 20.77080037 5.15555314 20 0 20 C0 13.4 0 6.8 0 0 Z " fill="#EE8204" transform="translate(163,70)"/>
<path d="M0 0 C4.10703441 0.85563217 5.55401113 2.24378009 8 5.625 C8.625 9.125 8.625 9.125 8 12.625 C5.55804571 16.00064269 4.0769435 17.37820045 0 18.3125 C-4.35321372 17.31488852 -5.65945491 15.34233632 -8 11.625 C-8.625 8.5625 -8.625 8.5625 -8 5.625 C-5.54405875 2.30225596 -4.0743356 0.84881992 0 0 Z " fill="#868686" transform="translate(135,12.375)"/>
<path d="M0 0 C1.588125 -0.061875 3.17625 -0.12375 4.8125 -0.1875 C6.15248047 -0.23970703 6.15248047 -0.23970703 7.51953125 -0.29296875 C10 0 10 0 11.8125 1.328125 C13.60385359 3.85016229 13.18499541 5.97840832 13 9 C13 12.11257569 13.17361624 14.10765685 14 17 C12.35 16.67 10.7 16.34 9 16 C8.67 14.68 8.34 13.36 8 12 C7.01 12 6.02 12 5 12 C5 13.65 5 15.3 5 17 C3.35 17 1.7 17 0 17 C0 11.39 0 5.78 0 0 Z " fill="#8E8E8E" transform="translate(145,13)"/>
<path d="M0 0 C1.588125 -0.061875 3.17625 -0.12375 4.8125 -0.1875 C6.15248047 -0.23970703 6.15248047 -0.23970703 7.51953125 -0.29296875 C10 0 10 0 11.8515625 1.23828125 C13.37397395 3.57368113 13.08369863 4.67214693 12.5625 7.375 C11.97653118 11.19626474 12.08881481 13.51489759 14 17 C12.35 17 10.7 17 9 17 C8.34 15.02 7.68 13.04 7 11 C6.01 11 5.02 11 4 11 C4 12.98 4 14.96 4 17 C2.68 17 1.36 17 0 17 C0 11.39 0 5.78 0 0 Z " fill="#868686" transform="translate(65,13)"/>
<path d="M0 0 C4.22999675 1.05749919 4.54930356 1.20032488 6.75 4.5625 C7.17796875 5.20316406 7.6059375 5.84382813 8.046875 6.50390625 C8.36140625 6.99761719 8.6759375 7.49132812 9 8 C9.33 5.36 9.66 2.72 10 0 C11.32 0 12.64 0 14 0 C14 5.61 14 11.22 14 17 C8.82530321 15.7063258 8.08244463 14.19554964 5 10 C5 9.34 5 8.68 5 8 C4.34 8 3.68 8 3 8 C3 10.64 3 13.28 3 16 C2.01 16 1.02 16 0 16 C0 10.72 0 5.44 0 0 Z " fill="#828282" transform="translate(16,13)"/>
<path d="M0 0 C3.96 0 7.92 0 12 0 C12 0.99 12 1.98 12 3 C9.36 3 6.72 3 4 3 C4 4.32 4 5.64 4 7 C6.31 7 8.62 7 11 7 C11 7.99 11 8.98 11 10 C8.69 10 6.38 10 4 10 C4 10.99 4 11.98 4 13 C6.64 13 9.28 13 12 13 C12 14.32 12 15.64 12 17 C8.04 17 4.08 17 0 17 C0 11.39 0 5.78 0 0 Z " fill="#8A8A8A" transform="translate(161,13)"/>
<path d="M0 0 C1.32 0 2.64 0 4 0 C4.33 3.96 4.66 7.92 5 12 C6.65 12.33 8.3 12.66 10 13 C10.33 8.71 10.66 4.42 11 0 C12.32 0 13.64 0 15 0 C15.45663381 9.65695939 15.45663381 9.65695939 13.9375 14.125 C12 16 12 16 8.625 17.125 C5 17 5 17 2.0625 15.3125 C-1.01861877 10.36403653 -0.40776458 5.68151984 0 0 Z " fill="#868686" transform="translate(33,13)"/>
<path d="M0 0 C2.1640625 0.0234375 2.1640625 0.0234375 4.625 0.375 C5.85089844 0.54128906 5.85089844 0.54128906 7.1015625 0.7109375 C7.72804688 0.80632813 8.35453125 0.90171875 9 1 C8.34 2.32 7.68 3.64 7 5 C5.35 4.67 3.7 4.34 2 4 C1.67 4.66 1.34 5.32 1 6 C2.11375 6.28875 3.2275 6.5775 4.375 6.875 C8 8 8 8 10 10 C9.8125 12.5 9.8125 12.5 9 15 C5.53001271 17.31332486 4.07490752 17.33957563 0 17 C-0.99 16.34 -1.98 15.68 -3 15 C-2.67 14.01 -2.34 13.02 -2 12 C0.31 12.33 2.62 12.66 5 13 C5 12.34 5 11.68 5 11 C4.05125 10.71125 3.1025 10.4225 2.125 10.125 C-1 9 -1 9 -3 7 C-2.67028521 3.70285207 -2.3773161 2.3773161 0 0 Z " fill="#878787" transform="translate(100,13)"/>
<path d="M0 0 C3.5149153 0.67306889 4.71363628 1.82543696 6.9375 4.5625 C3.36105152 5.8005014 0.60055234 5.31176071 -3.0625 4.5625 C-3.10491723 6.89544775 -3.10342937 9.22952567 -3.0625 11.5625 C-2.01025333 12.83806818 -2.01025333 12.83806818 0.375 12.6875 C2.92728622 12.73556676 2.92728622 12.73556676 4.9375 11.5625 C5.5975 11.8925 6.2575 12.2225 6.9375 12.5625 C6.375 14.5 6.375 14.5 4.9375 16.5625 C1.625 17.5625 1.625 17.5625 -2.0625 17.5625 C-4.86439446 15.79608828 -6.57774911 14.53200178 -8.0625 11.5625 C-8.60285146 7.50986402 -8.40449395 6.02519769 -5.9375 2.6875 C-3.0625 0.5625 -3.0625 0.5625 0 0 Z " fill="#898989" transform="translate(119.0625,12.4375)"/>
<path d="M0 0 C4.62 0 9.24 0 14 0 C14 0.99 14 1.98 14 3 C12.35 3 10.7 3 9 3 C9 7.62 9 12.24 9 17 C7.68 17 6.36 17 5 17 C5 12.71 5 8.42 5 4 C3.35 4 1.7 4 0 4 C0 2.68 0 1.36 0 0 Z " fill="#8B8B8B" transform="translate(49,13)"/>
<path d="M0 0 C1.81242052 -0.02687279 3.62495233 -0.04633715 5.4375 -0.0625 C6.44683594 -0.07410156 7.45617187 -0.08570312 8.49609375 -0.09765625 C11 0 11 0 12 1 C12.125 3.5 12.125 3.5 12 6 C11 7 11 7 8.49609375 7.09765625 C6.98208984 7.08025391 6.98208984 7.08025391 5.4375 7.0625 C4.42558594 7.05347656 3.41367188 7.04445313 2.37109375 7.03515625 C1.58863281 7.02355469 0.80617188 7.01195313 0 7 C0 4.69 0 2.38 0 0 Z " fill="#88BD35" transform="translate(66,83)"/>
<path d="M0 0 C3.3 0 6.6 0 10 0 C10.625 2.375 10.625 2.375 11 5 C9 7 9 7 6.8359375 7.1953125 C5.61777344 7.16050781 5.61777344 7.16050781 4.375 7.125 C3.55773437 7.10695313 2.74046875 7.08890625 1.8984375 7.0703125 C1.27195312 7.04710938 0.64546875 7.02390625 0 7 C0 4.69 0 2.38 0 0 Z " fill="#89BD36" transform="translate(66,70)"/>
<path d="M0 0 C4.55555556 0.55555556 4.55555556 0.55555556 6 2 C6.125 5.5 6.125 5.5 6 9 C5 10 5 10 2.5625 10.1875 C0 10 0 10 -2 8 C-2.25 5 -2.25 5 -2 2 C-1.34 1.34 -0.68 0.68 0 0 Z " fill="#F6F6F6" transform="translate(133,16)"/>
<path d="M0 0 C1.32 0 2.64 0 4 0 C4 5.61 4 11.22 4 17 C2.68 17 1.36 17 0 17 C0 11.39 0 5.78 0 0 Z " fill="#8B8B8B" transform="translate(81,13)"/>
<path d="M0 0 C0.66 0 1.32 0 2 0 C2.99 3.63 3.98 7.26 5 11 C2.36 11 -0.28 11 -3 11 C-2.01 7.37 -1.02 3.74 0 0 Z " fill="#14894E" transform="translate(29,73)"/>
<path d="M0 0 C2.31 0 4.62 0 7 0 C7 1.32 7 2.64 7 4 C4.36 4 1.72 4 -1 4 C-0.67 2.68 -0.34 1.36 0 0 Z " fill="#9A9A9A" transform="translate(88,21)"/>
<path d="M0 0 C1.65 0 3.3 0 5 0 C5 1.65 5 3.3 5 5 C3.35 5 1.7 5 0 5 C0 3.35 0 1.7 0 0 Z " fill="#E6E6E6" transform="translate(149,16)"/>
<path d="M0 0 C2.475 0.495 2.475 0.495 5 1 C4.67 2.32 4.34 3.64 4 5 C2.68 5 1.36 5 0 5 C0 3.35 0 1.7 0 0 Z " fill="#F2F2F2" transform="translate(69,16)"/>
</svg>
