<?xml version="1.0" encoding="UTF-8"?>
<svg version="1.1" xmlns="http://www.w3.org/2000/svg" width="240" height="130">
<path d="M0 0 C1.28297875 -0.00785502 1.28297875 -0.00785502 2.59187627 -0.01586872 C5.4629296 -0.03089134 8.33380506 -0.03157438 11.20489502 -0.03224182 C13.26144716 -0.03986185 15.31799645 -0.04828907 17.37454224 -0.0574646 C22.96557878 -0.07943349 28.55656063 -0.08821187 34.14763546 -0.09329104 C37.64063861 -0.09693217 41.13362738 -0.10317099 44.62662506 -0.11029243 C56.81255219 -0.13479643 68.9984367 -0.14784063 81.18438721 -0.15138245 C92.54290162 -0.15501717 103.90114572 -0.18490576 115.25957751 -0.22678703 C125.01087965 -0.26148176 134.76209218 -0.27693076 144.51345563 -0.27762848 C150.33764328 -0.27842165 156.16155575 -0.28717873 161.98567963 -0.31562614 C167.46541356 -0.34179208 172.94464391 -0.34401991 178.42441177 -0.3279705 C180.43353752 -0.32615479 182.44269212 -0.33285775 184.45175552 -0.34878922 C187.19938883 -0.36924563 189.94525952 -0.35870073 192.69287109 -0.34057617 C193.48393903 -0.35377614 194.27500696 -0.36697611 195.09004664 -0.38057607 C201.66704817 -0.28179728 206.45856896 2.16854865 211.13152575 6.78762251 C216.0735822 12.48412888 216.89901042 16.61764156 216.89093018 24.0466156 C216.8976474 24.93167786 216.90436462 25.81674011 216.9112854 26.72862244 C216.9302862 29.65531529 216.93419097 32.58177896 216.93634033 35.50852966 C216.94276795 37.54631138 216.94949628 39.58409217 216.95651245 41.62187195 C216.96849123 45.89563637 216.97219277 50.16931994 216.9710083 54.44309998 C216.97080534 59.90842185 216.99808132 65.3732224 217.03255272 70.83842087 C217.05483944 75.04901998 217.05884526 79.25949413 217.05778885 83.47014618 C217.06014314 85.48429914 217.06895693 87.49845563 217.08445358 89.51255035 C217.10414459 92.33677139 217.09826276 95.1598749 217.08624268 97.9841156 C217.09748169 98.80933716 217.1087207 99.63455872 217.12030029 100.48478699 C217.049297 107.08084761 215.17131773 112.23366627 210.88946533 117.29759216 C210.06575439 117.9666156 210.06575439 117.9666156 209.22540283 118.64915466 C208.68141846 119.11063904 208.13743408 119.57212341 207.57696533 120.04759216 C202.53477573 123.17653986 197.46640743 123.54633208 191.67462158 123.51243591 C190.14010755 123.52785811 188.60560218 123.54416193 187.07110596 123.56126404 C184.68166806 123.57766862 182.29287063 123.58666941 179.90338135 123.57957458 C168.01379265 123.37984494 168.01379265 123.37984494 157.33795166 128.10691833 C151.60811343 131.95606216 142.2399691 130.93860592 135.60040283 130.27415466 C130.72319157 129.0052378 126.77686403 127.05846213 122.60040283 124.27415466 C120.16657484 123.97377877 120.16657484 123.97377877 117.40286255 124.02259827 C116.32631912 124.01721542 115.2497757 124.01183258 114.14060974 124.00628662 C112.36862968 124.01247261 112.36862968 124.01247261 110.56085205 124.01878357 C109.31666 124.01516312 108.07246796 124.01154266 106.79057312 124.0078125 C104.08296907 124.00090814 101.37561352 123.99753273 98.66802597 123.99975967 C94.3806154 124.00259394 90.09336949 123.98823465 85.80599976 123.97077942 C73.61379491 123.92376947 61.42160051 123.89982756 49.22930908 123.89329529 C42.49626412 123.88953564 35.76340488 123.87143043 29.0304395 123.83820093 C24.77524235 123.81805704 20.52052657 123.81558247 16.26530147 123.8264811 C12.98223455 123.82971826 9.69932523 123.806958 6.4163208 123.78831482 C5.24714615 123.79648727 4.0779715 123.80465973 2.87336731 123.81307983 C-4.72211407 123.73651467 -11.52272088 122.8873088 -17.27726936 117.52420998 C-22.7537022 111.5993359 -23.69971624 106.22437294 -23.70599365 98.38816833 C-23.71431717 97.50296005 -23.72264069 96.61775177 -23.73121643 95.70571899 C-23.75527663 92.78447548 -23.76408385 89.86345545 -23.77069092 86.94212341 C-23.7796605 84.90577122 -23.78878241 82.8694197 -23.79804993 80.83306885 C-23.81453183 76.56528626 -23.82223855 72.29758204 -23.82513428 68.0297699 C-23.83051617 62.57222207 -23.86819207 57.11541505 -23.91387844 51.65807629 C-23.94368219 47.45176531 -23.95085857 43.24563199 -23.95186043 39.03922462 C-23.95605637 37.02784648 -23.96846543 35.01646751 -23.98937798 33.00519371 C-24.01636003 30.18568979 -24.01144663 27.36789348 -23.9989624 24.54832458 C-24.01379669 23.72467407 -24.02863098 22.90102356 -24.04391479 22.05241394 C-23.95956309 15.33207614 -21.61615061 10.52505749 -16.8860693 5.74446392 C-11.30621468 0.89826306 -7.2787199 -0.02197365 0 0 Z " fill="#FEFDFD" transform="translate(23.39959716796875,-0.2741546630859375)"/>
<path d="M0 0 C0.99699417 -0.00137466 1.99398834 -0.00274933 3.02119446 -0.00416565 C4.11379578 -0.00057037 5.20639709 0.0030249 6.33210754 0.00672913 C7.48346695 0.0065831 8.63482635 0.00643707 9.82107544 0.00628662 C13.63572559 0.00698461 17.45032722 0.01477173 21.26496887 0.02259827 C23.90627007 0.02446285 26.54757162 0.02588656 29.18887329 0.02688599 C35.43615841 0.02999504 41.68342604 0.0382027 47.93070346 0.04823548 C55.04308994 0.05940982 62.15547724 0.0649104 69.26787031 0.06993091 C83.8984226 0.08038566 98.52896112 0.09797687 113.15950012 0.12025452 C112.67250641 1.1538913 112.1855127 2.18752808 111.6837616 3.25248718 C110.25602817 6.59695396 109.78034234 9.33673795 109.77131653 13.00453186 C109.75713181 14.67193924 109.75713181 14.67193924 109.74266052 16.37303162 C109.74873322 17.55547455 109.75480591 18.73791748 109.76106262 19.95619202 C109.75819244 21.19011688 109.75532227 22.42404175 109.75236511 23.69535828 C109.75032831 26.29923462 109.7558312 28.9031264 109.76838684 31.50697327 C109.78441737 35.47477278 109.76853798 39.44154942 109.74934387 43.40931702 C109.75132691 45.94577758 109.75517182 48.48223752 109.76106262 51.01869202 C109.75498993 52.19708649 109.74891724 53.37548096 109.74266052 54.58958435 C109.752117 55.70749359 109.76157349 56.82540283 109.77131653 57.97718811 C109.7748967 59.43443802 109.7748967 59.43443802 109.77854919 60.92112732 C110.29021694 65.21798047 111.67504593 69.07121314 113.15950012 73.12025452 C97.89517541 73.21379503 82.63086394 73.28428126 67.3663168 73.3275032 C60.27831871 73.34810752 53.19049896 73.37618699 46.10261536 73.42201233 C39.26209893 73.46621719 32.4217679 73.48939425 25.58111763 73.49976349 C22.97162523 73.50715287 20.36214294 73.5215825 17.75272942 73.54317474 C14.09699998 73.57222126 10.44203542 73.57620981 6.78620911 73.57435608 C5.70798889 73.58873718 4.62976868 73.60311829 3.51887512 73.61793518 C-3.68638123 73.57841446 -8.14832353 72.50612924 -13.58268738 67.52259827 C-16.759885 63.41415307 -17.95640171 60.60752293 -18.01750183 55.46864319 C-18.03033707 54.52723984 -18.0431723 53.58583649 -18.05639648 52.61590576 C-18.06378342 51.60027054 -18.07117035 50.58463531 -18.07878113 49.53822327 C-18.08685287 48.49128799 -18.09492462 47.44435272 -18.10324097 46.36569214 C-18.11707506 44.14904941 -18.12780023 41.93238544 -18.13566589 39.7157135 C-18.15288028 36.33126854 -18.19677359 32.94780004 -18.2408905 29.56361389 C-18.25101752 27.40932419 -18.25953359 25.2550262 -18.26628113 23.10072327 C-18.28378922 22.09116074 -18.3012973 21.08159821 -18.31933594 20.04144287 C-18.29769365 13.00732831 -17.18960636 9.56762329 -12.24284363 4.47572327 C-8.05242342 1.13456156 -5.29480429 -0.00562678 0 0 Z " fill="#86BB30" transform="translate(27.840499877929688,43.87974548339844)"/>
<path d="M0 0 C1.15338867 -0.03673828 1.15338867 -0.03673828 2.33007812 -0.07421875 C9.15344178 -0.10876743 14.20899536 1.81823053 19.39453125 6.26953125 C19.92433594 6.90246094 20.45414063 7.53539062 21 8.1875 C21.81404297 9.12529297 21.81404297 9.12529297 22.64453125 10.08203125 C27.26568487 16.9494165 27.6438028 22.75583744 27.62109375 30.86328125 C27.6263356 31.96165817 27.63157745 33.0600351 27.63697815 34.19169617 C27.64338313 36.50889239 27.64208117 38.82612119 27.63354492 41.14331055 C27.62505232 44.66579946 27.65379201 48.18665609 27.68554688 51.70898438 C27.68715965 53.96874952 27.68657989 56.2285175 27.68359375 58.48828125 C27.69482773 59.53027176 27.70606171 60.57226227 27.71763611 61.64582825 C27.63458072 70.47916735 25.63911059 78.94750758 19.1875 85.375 C11.26957037 90.94777184 3.72223821 92.59740233 -5.8125 91.375 C-12.92936848 89.9686727 -17.92100216 87.08534908 -22.37548828 81.36938477 C-28.56945145 71.29624747 -27.68360214 60.26391996 -27.53979492 48.80224609 C-27.50001186 45.25105897 -27.51916684 41.70359562 -27.54492188 38.15234375 C-27.53736384 35.86977735 -27.52641147 33.58721913 -27.51171875 31.3046875 C-27.51870285 30.25650848 -27.52568695 29.20832947 -27.53288269 28.12838745 C-27.37580171 19.84279291 -25.14413773 13.31239004 -19.75 6.9375 C-18.7909375 6.1640625 -18.7909375 6.1640625 -17.8125 5.375 C-17.173125 4.83875 -16.53375 4.3025 -15.875 3.75 C-10.68173036 0.28782024 -6.07157399 0.01002737 0 0 Z " fill="#EE8407" transform="translate(166.8125,34.625)"/>
<path d="M0 0 C0 23.76 0 47.52 0 72 C-15.92107251 73.22469789 -15.92107251 73.22469789 -22.875 73.3125 C-24.05835938 73.35600586 -24.05835938 73.35600586 -25.265625 73.40039062 C-31.75437051 73.47045183 -35.86730292 71.87280966 -40.7421875 67.40234375 C-43.91938512 63.29389855 -45.11590183 60.48726841 -45.17700195 55.34838867 C-45.18983719 54.40698532 -45.20267242 53.46558197 -45.21589661 52.49565125 C-45.22328354 51.48001602 -45.23067047 50.4643808 -45.23828125 49.41796875 C-45.246353 48.37103348 -45.25442474 47.32409821 -45.26274109 46.24543762 C-45.27657518 44.02879489 -45.28730035 41.81213093 -45.29516602 39.59545898 C-45.3123804 36.21101403 -45.35627371 32.82754553 -45.40039062 29.44335938 C-45.41051764 27.28906968 -45.41903372 25.13477168 -45.42578125 22.98046875 C-45.44328934 21.97090622 -45.46079742 20.96134369 -45.47883606 19.92118835 C-45.45719378 12.88707379 -44.34910648 9.44736878 -39.40234375 4.35546875 C-27.357969 -5.24791271 -19.91203238 0 0 0 Z " fill="#068242" transform="translate(55,44)"/>
<path d="M0 0 C13.53 0 27.06 0 41 0 C40.01 2.31 39.02 4.62 38 7 C37.5574288 9.93601943 37.5574288 9.93601943 37.61181641 12.88427734 C37.60235992 13.99588226 37.59290344 15.10748718 37.5831604 16.2527771 C37.59226944 18.0264415 37.59226944 18.0264415 37.6015625 19.8359375 C37.59725723 21.6868248 37.59725723 21.6868248 37.59286499 23.57510376 C37.59082819 26.1789801 37.59633108 28.78287188 37.60888672 31.38671875 C37.62491725 35.35451827 37.60903786 39.3212949 37.58984375 43.2890625 C37.59182678 45.82552307 37.5956717 48.361983 37.6015625 50.8984375 C37.59548981 52.07683197 37.58941711 53.25522644 37.5831604 54.46932983 C37.59261688 55.58723907 37.60207336 56.70514832 37.61181641 57.85693359 C37.61539658 59.3141835 37.61539658 59.3141835 37.61904907 60.8008728 C38.01716054 65.06064632 38.01716054 65.06064632 41 73 C27.47 73 13.94 73 0 73 C0 48.91 0 24.82 0 0 Z " fill="#FECC08" transform="translate(100,44)"/>
<path d="M0 0 C4.35403865 -0.08755672 8.70784877 -0.14057969 13.0625 -0.1875 C14.29162109 -0.21263672 15.52074219 -0.23777344 16.78710938 -0.26367188 C25.00392924 -0.33011516 30.43390303 -0.09061738 36.8125 5.4375 C40.02271066 9.19803249 41.24702732 11.81313834 41.2746582 16.76513672 C41.28895622 18.17712845 41.28895622 18.17712845 41.30354309 19.61764526 C41.30263168 20.6281192 41.30172028 21.63859314 41.30078125 22.6796875 C41.30506638 23.72520782 41.3093515 24.77072815 41.31376648 25.84793091 C41.31950675 28.05860673 41.32001227 30.26930145 41.31567383 32.47998047 C41.31251825 35.85547283 41.33596226 39.230085 41.36132812 42.60546875 C41.36360163 44.75520723 41.36430437 46.90494806 41.36328125 49.0546875 C41.372491 50.06111298 41.38170074 51.06753845 41.39118958 52.10446167 C41.35581032 57.48697082 41.07796797 61.37873971 38 66 C32.4635878 71.29569863 28.22898857 73.26757335 20.60546875 73.1953125 C19.40341797 73.18886719 18.20136719 73.18242188 16.96289062 73.17578125 C15.09407227 73.15064453 15.09407227 73.15064453 13.1875 73.125 C11.92228516 73.11597656 10.65707031 73.10695313 9.35351562 73.09765625 C6.23548436 73.07412394 3.11783903 73.04124545 0 73 C0.73017334 71.17782959 0.73017334 71.17782959 1.47509766 69.31884766 C3.50148768 63.20452669 3.43136416 57.28779355 3.3984375 50.8984375 C3.40130768 49.66259918 3.40417786 48.42676086 3.40713501 47.1534729 C3.40916797 44.55315693 3.40369219 41.9528254 3.39111328 39.35253906 C3.37502233 35.38051128 3.39100345 31.40949679 3.41015625 27.4375 C3.40817422 24.9036436 3.40433138 22.36978782 3.3984375 19.8359375 C3.40451019 18.65349457 3.41058289 17.47105164 3.4168396 16.2527771 C3.36417573 10.06216442 2.98956834 5.46751576 0 0 Z " fill="#E64216" transform="translate(193,44)"/>
<path d="M0 0 C21 0 21 0 28 4 C33.76191729 10.07337228 34.40710491 15.6558359 34.2421875 23.7734375 C33.77044708 30.05823732 32.33100909 34.09960612 27.625 38.375 C19.10246875 45.34090454 11.82193072 43 0 43 C0 28.81 0 14.62 0 0 Z " fill="#FEFCFA" transform="translate(150,60)"/>
<path d="M0 0 C3.196875 -0.0825 6.39375 -0.165 9.6875 -0.25 C10.68612061 -0.28641602 11.68474121 -0.32283203 12.71362305 -0.36035156 C16.98285395 -0.41369006 19.36670269 -0.38848656 23.08203125 1.890625 C25.38413109 4.42246596 25.94636247 5.39657773 26.25 8.8125 C25.97212427 12.35541555 25.02619474 14.12955745 23 17 C23.66 17.515625 24.32 18.03125 25 18.5625 C27 21 27 21 27.5 24.5 C26.92936321 28.49445751 26.14975126 29.59136668 23 32 C20.54724859 33.2263757 18.9494219 33.11415314 16.2109375 33.09765625 C15.36321777 33.09515869 14.51549805 33.09266113 13.64208984 33.09008789 C12.5639502 33.08098389 11.48581055 33.07187988 10.375 33.0625 C6.95125 33.041875 3.5275 33.02125 0 33 C0 22.11 0 11.22 0 0 Z " fill="#B9D788" transform="translate(66,63)"/>
<path d="M0 0 C7.59 0 15.18 0 23 0 C23 2.31 23 4.62 23 7 C18.05 7 13.1 7 8 7 C8 9.31 8 11.62 8 14 C12.29 14 16.58 14 21 14 C21 15.98 21 17.96 21 20 C16.71 20 12.42 20 8 20 C8 22.31 8 24.62 8 27 C12.95 27 17.9 27 23 27 C23 29.31 23 31.62 23 34 C15.41 34 7.82 34 0 34 C0 22.78 0 11.56 0 0 Z " fill="#F08D72" transform="translate(203,63)"/>
<path d="M0 0 C2.31 0 4.62 0 7 0 C10.10048172 6.69441157 12.74737963 13.49968019 15.25 20.4375 C15.61351563 21.42943359 15.97703125 22.42136719 16.3515625 23.44335938 C16.69445312 24.38888672 17.03734375 25.33441406 17.390625 26.30859375 C17.70032227 27.16251709 18.01001953 28.01644043 18.32910156 28.89624023 C19 31 19 31 19 33 C16.36 33 13.72 33 11 33 C10.34 31.02 9.68 29.04 9 27 C5.37 26.67 1.74 26.34 -2 26 C-2.33 28.31 -2.66 30.62 -3 33 C-5.64 33 -8.28 33 -11 33 C-10.30657022 28.94891025 -9.10847912 25.25008768 -7.71484375 21.38671875 C-7.3840255 20.46509697 -7.3840255 20.46509697 -7.04652405 19.52485657 C-6.34680121 17.57786976 -5.64223285 15.63267824 -4.9375 13.6875 C-4.45996441 12.36144406 -3.98274752 11.0352733 -3.50585938 9.70898438 C-2.3403697 6.47151306 -1.17164035 3.23524939 0 0 Z " fill="#6FB692" transform="translate(26,63)"/>
<path d="M0 0 C3.99924698 1.99962349 6.47255894 3.72316502 8 8 C6.02 8.99 4.04 9.98 2 11 C1.484375 10.505 0.96875 10.01 0.4375 9.5 C-2.94888329 7.41607182 -5.09385318 7.44197903 -9 8 C-11.71735902 9.81224392 -11.71735902 9.81224392 -13 13 C-13.09602159 17.21756378 -12.32904013 21.01287962 -11 25 C-9.41753293 25.08153933 -7.83383727 25.13943557 -6.25 25.1875 C-5.36828125 25.22230469 -4.4865625 25.25710937 -3.578125 25.29296875 C-0.55328417 24.94923684 0.75583602 23.99772541 3 22 C4.65 22.99 6.3 23.98 8 25 C7.4375 27.3125 7.4375 27.3125 6 30 C0.5916003 33.26757482 -4.75550086 33.91861227 -11 33 C-15.85113998 30.66426593 -18.76436171 27.90120703 -21 23 C-21.88663022 17.55963699 -22.33522165 12.37574861 -19.56640625 7.44921875 C-13.89577669 0.77860721 -8.68271611 -1.12300114 0 0 Z " fill="#FEE16E" transform="translate(124,63)"/>
<path d="M0 0 C9.33333333 0 9.33333333 0 14 4 C16.75044055 8.42707897 16.65413669 12.94240657 16 18 C14.39306865 21.2138627 13.05663831 23.16978419 10.25 25.375 C8 26 8 26 0 26 C0 17.42 0 8.84 0 0 Z " fill="#EE8305" transform="translate(159,68)"/>
<path d="M0 0 C4.10703441 0.85563217 5.55401113 2.24378009 8 5.625 C8.625 9.125 8.625 9.125 8 12.625 C5.55804571 16.00064269 4.0769435 17.37820045 0 18.3125 C-4.35321372 17.31488852 -5.65945491 15.34233632 -8 11.625 C-8.625 8.5625 -8.625 8.5625 -8 5.625 C-5.54405875 2.30225596 -4.0743356 0.84881992 0 0 Z " fill="#868686" transform="translate(135,12.375)"/>
<path d="M0 0 C1.588125 -0.061875 3.17625 -0.12375 4.8125 -0.1875 C6.15248047 -0.23970703 6.15248047 -0.23970703 7.51953125 -0.29296875 C10 0 10 0 11.8125 1.328125 C13.60385359 3.85016229 13.18499541 5.97840832 13 9 C13 12.11257569 13.17361624 14.10765685 14 17 C12.35 16.67 10.7 16.34 9 16 C8.67 14.68 8.34 13.36 8 12 C7.01 12 6.02 12 5 12 C5 13.65 5 15.3 5 17 C3.35 17 1.7 17 0 17 C0 11.39 0 5.78 0 0 Z " fill="#8E8E8E" transform="translate(145,13)"/>
<path d="M0 0 C1.588125 -0.061875 3.17625 -0.12375 4.8125 -0.1875 C6.15248047 -0.23970703 6.15248047 -0.23970703 7.51953125 -0.29296875 C10 0 10 0 11.8515625 1.23828125 C13.37397395 3.57368113 13.08369863 4.67214693 12.5625 7.375 C11.97653118 11.19626474 12.08881481 13.51489759 14 17 C12.35 17 10.7 17 9 17 C8.34 15.02 7.68 13.04 7 11 C6.01 11 5.02 11 4 11 C4 12.98 4 14.96 4 17 C2.68 17 1.36 17 0 17 C0 11.39 0 5.78 0 0 Z " fill="#868686" transform="translate(65,13)"/>
<path d="M0 0 C4.22999675 1.05749919 4.54930356 1.20032488 6.75 4.5625 C7.17796875 5.20316406 7.6059375 5.84382813 8.046875 6.50390625 C8.36140625 6.99761719 8.6759375 7.49132812 9 8 C9.33 5.36 9.66 2.72 10 0 C11.32 0 12.64 0 14 0 C14 5.61 14 11.22 14 17 C8.82530321 15.7063258 8.08244463 14.19554964 5 10 C5 9.34 5 8.68 5 8 C4.34 8 3.68 8 3 8 C3 10.64 3 13.28 3 16 C2.01 16 1.02 16 0 16 C0 10.72 0 5.44 0 0 Z " fill="#828282" transform="translate(16,13)"/>
<path d="M0 0 C3.96 0 7.92 0 12 0 C12 0.99 12 1.98 12 3 C9.36 3 6.72 3 4 3 C4 4.32 4 5.64 4 7 C6.31 7 8.62 7 11 7 C11 7.99 11 8.98 11 10 C8.69 10 6.38 10 4 10 C4 10.99 4 11.98 4 13 C6.64 13 9.28 13 12 13 C12 14.32 12 15.64 12 17 C8.04 17 4.08 17 0 17 C0 11.39 0 5.78 0 0 Z " fill="#8A8A8A" transform="translate(161,13)"/>
<path d="M0 0 C1.32 0 2.64 0 4 0 C4.33 3.96 4.66 7.92 5 12 C6.65 12.33 8.3 12.66 10 13 C10.33 8.71 10.66 4.42 11 0 C12.32 0 13.64 0 15 0 C15.45663381 9.65695939 15.45663381 9.65695939 13.9375 14.125 C12 16 12 16 8.625 17.125 C5 17 5 17 2.0625 15.3125 C-1.01861877 10.36403653 -0.40776458 5.68151984 0 0 Z " fill="#868686" transform="translate(33,13)"/>
<path d="M0 0 C2.1640625 0.0234375 2.1640625 0.0234375 4.625 0.375 C5.85089844 0.54128906 5.85089844 0.54128906 7.1015625 0.7109375 C7.72804688 0.80632813 8.35453125 0.90171875 9 1 C8.34 2.32 7.68 3.64 7 5 C5.35 4.67 3.7 4.34 2 4 C1.67 4.66 1.34 5.32 1 6 C2.11375 6.28875 3.2275 6.5775 4.375 6.875 C8 8 8 8 10 10 C9.8125 12.5 9.8125 12.5 9 15 C5.53001271 17.31332486 4.07490752 17.33957563 0 17 C-0.99 16.34 -1.98 15.68 -3 15 C-2.67 14.01 -2.34 13.02 -2 12 C0.31 12.33 2.62 12.66 5 13 C5 12.34 5 11.68 5 11 C4.05125 10.71125 3.1025 10.4225 2.125 10.125 C-1 9 -1 9 -3 7 C-2.67028521 3.70285207 -2.3773161 2.3773161 0 0 Z " fill="#878787" transform="translate(100,13)"/>
<path d="M0 0 C3.5149153 0.67306889 4.71363628 1.82543696 6.9375 4.5625 C3.36105152 5.8005014 0.60055234 5.31176071 -3.0625 4.5625 C-3.10491723 6.89544775 -3.10342937 9.22952567 -3.0625 11.5625 C-2.01025333 12.83806818 -2.01025333 12.83806818 0.375 12.6875 C2.92728622 12.73556676 2.92728622 12.73556676 4.9375 11.5625 C5.5975 11.8925 6.2575 12.2225 6.9375 12.5625 C6.375 14.5 6.375 14.5 4.9375 16.5625 C1.625 17.5625 1.625 17.5625 -2.0625 17.5625 C-4.86439446 15.79608828 -6.57774911 14.53200178 -8.0625 11.5625 C-8.60285146 7.50986402 -8.40449395 6.02519769 -5.9375 2.6875 C-3.0625 0.5625 -3.0625 0.5625 0 0 Z " fill="#898989" transform="translate(119.0625,12.4375)"/>
<path d="M0 0 C4.62 0 9.24 0 14 0 C14 0.99 14 1.98 14 3 C12.35 3 10.7 3 9 3 C9 7.62 9 12.24 9 17 C7.68 17 6.36 17 5 17 C5 12.71 5 8.42 5 4 C3.35 4 1.7 4 0 4 C0 2.68 0 1.36 0 0 Z " fill="#8B8B8B" transform="translate(49,13)"/>
<path d="M0 0 C1.64574566 -0.02688151 3.29161413 -0.04634123 4.9375 -0.0625 C5.85402344 -0.07410156 6.77054687 -0.08570312 7.71484375 -0.09765625 C10 0 10 0 11 1 C11.125 3.5 11.125 3.5 11 6 C10 7 10 7 7.71484375 7.09765625 C6.34005859 7.08025391 6.34005859 7.08025391 4.9375 7.0625 C4.01839844 7.05347656 3.09929687 7.04445313 2.15234375 7.03515625 C1.44207031 7.02355469 0.73179688 7.01195313 0 7 C0 4.69 0 2.38 0 0 Z " fill="#86BB31" transform="translate(74,83)"/>
<path d="M0 0 C1.64574566 -0.02688151 3.29161413 -0.04634123 4.9375 -0.0625 C5.85402344 -0.07410156 6.77054687 -0.08570312 7.71484375 -0.09765625 C10 0 10 0 11 1 C11.04063832 2.66617115 11.042721 4.33388095 11 6 C8.59454362 7.20272819 7.05003047 7.10071472 4.375 7.0625 C3.14910156 7.04896484 3.14910156 7.04896484 1.8984375 7.03515625 C0.95871094 7.01775391 0.95871094 7.01775391 0 7 C0 4.69 0 2.38 0 0 Z " fill="#8ABD37" transform="translate(73,70)"/>
<path d="M0 0 C4.55555556 0.55555556 4.55555556 0.55555556 6 2 C6.125 5.5 6.125 5.5 6 9 C5 10 5 10 2.5625 10.1875 C0 10 0 10 -2 8 C-2.25 5 -2.25 5 -2 2 C-1.34 1.34 -0.68 0.68 0 0 Z " fill="#F6F6F6" transform="translate(133,16)"/>
<path d="M0 0 C1.32 0 2.64 0 4 0 C4 5.61 4 11.22 4 17 C2.68 17 1.36 17 0 17 C0 11.39 0 5.78 0 0 Z " fill="#8B8B8B" transform="translate(81,13)"/>
<path d="M0 0 C0.66 0 1.32 0 2 0 C2.99 3.63 3.98 7.26 5 11 C2.36 11 -0.28 11 -3 11 C-2.01 7.37 -1.02 3.74 0 0 Z " fill="#14894E" transform="translate(29,73)"/>
<path d="M0 0 C2.31 0 4.62 0 7 0 C7 1.32 7 2.64 7 4 C4.36 4 1.72 4 -1 4 C-0.67 2.68 -0.34 1.36 0 0 Z " fill="#9A9A9A" transform="translate(88,21)"/>
<path d="M0 0 C1.65 0 3.3 0 5 0 C5 1.65 5 3.3 5 5 C3.35 5 1.7 5 0 5 C0 3.35 0 1.7 0 0 Z " fill="#E6E6E6" transform="translate(149,16)"/>
<path d="M0 0 C2.475 0.495 2.475 0.495 5 1 C4.67 2.32 4.34 3.64 4 5 C2.68 5 1.36 5 0 5 C0 3.35 0 1.7 0 0 Z " fill="#F2F2F2" transform="translate(69,16)"/>
</svg>
