<?xml version="1.0" encoding="UTF-8"?>
<svg version="1.1" xmlns="http://www.w3.org/2000/svg" width="225" height="121">
<path d="M0 0 C0.80223299 -0.00523668 1.60446598 -0.01047336 2.43100905 -0.01586872 C5.12241161 -0.03088484 7.81362432 -0.03157423 10.50506592 -0.03224182 C12.43354107 -0.0398623 14.36201318 -0.0482896 16.29048157 -0.0574646 C21.53235606 -0.07942929 26.77417221 -0.08821132 32.01608753 -0.09329104 C35.29132849 -0.09693272 38.56655412 -0.10317184 41.84178925 -0.11029243 C53.26910576 -0.13479515 64.69637683 -0.14784031 76.12371826 -0.15138245 C86.77333006 -0.15501689 97.4226535 -0.18490375 108.07217717 -0.22678703 C117.21626627 -0.26148804 126.36025982 -0.27693087 135.50441432 -0.27762848 C140.96531572 -0.27842145 146.42592356 -0.28716915 151.8867569 -0.31562614 C157.02505845 -0.34180287 162.16282301 -0.344014 167.30116081 -0.3279705 C169.18450784 -0.32615563 171.0678857 -0.3328502 172.95116615 -0.34878922 C175.5280543 -0.36926451 178.10306622 -0.35869055 180.67993164 -0.34057617 C181.42041724 -0.35377614 182.16090285 -0.36697611 182.92382741 -0.38057607 C189.34402508 -0.27791171 194.11393024 2.33135868 198.66238427 6.8230229 C203.0456065 11.86925325 203.25525131 16.04483699 203.30267334 22.45823669 C203.31245712 23.29277878 203.32224091 24.12732086 203.33232117 24.9871521 C203.3622597 27.75207429 203.38365961 30.51694803 203.40252686 33.28196716 C203.40909868 34.22781551 203.41567051 35.17366386 203.42244148 36.14817429 C203.45503278 41.15760045 203.47948087 46.1670054 203.4989624 51.17649841 C203.51675349 55.31451033 203.55153876 59.45183797 203.60150146 63.58958435 C203.66183354 68.59223187 203.69245635 73.59424646 203.70213509 78.59724045 C203.7106709 80.49898009 203.7294426 82.40070368 203.75887871 84.30223465 C204.02160974 102.24451715 204.02160974 102.24451715 198.7447052 108.75752258 C193.10860769 113.9356367 187.46660289 115.3974747 179.93548584 115.40013123 C179.20983932 115.40199936 178.48419281 115.40386749 177.73655701 115.40579224 C176.16021009 115.40979518 174.58385737 115.41187098 173.00750542 115.41225433 C169.64567725 115.41567764 166.28404111 115.43705647 162.92228031 115.4574852 C156.66624064 115.49543233 150.4104038 115.5267784 144.15423584 115.52464294 C139.79976997 115.52385192 135.44600505 115.54738875 131.09172249 115.58652496 C129.43932313 115.59693113 127.78684232 115.59854897 126.13442802 115.59087372 C114.11422962 115.53300125 114.11422962 115.53300125 103.133255 120.13917542 C99.47259415 122.1765066 95.68907201 122.00102379 91.59393311 121.89915466 C90.81662842 121.9184906 90.03932373 121.93782654 89.23846436 121.95774841 C84.65383637 121.91985893 81.78076878 121.22328991 77.902771 118.76805115 C71.15049422 115.29554473 64.26325712 115.60728601 56.86643791 115.6825695 C54.321286 115.70825288 51.77773267 115.70310762 49.23249817 115.69067383 C43.83196262 115.67004908 38.43193494 115.68954067 33.03143311 115.71165466 C26.76365795 115.73284135 20.49640429 115.73720799 14.2286396 115.71115303 C11.73519051 115.7078172 9.24276402 115.72892131 6.74943542 115.7515564 C-2.14149005 115.7679657 -10.29555353 115.70091568 -17.06231689 109.20384216 C-17.50575439 108.52579529 -17.94919189 107.84774841 -18.40606689 107.14915466 C-18.87012939 106.46595154 -19.33419189 105.78274841 -19.81231689 105.07884216 C-22.20982341 101.12295641 -22.07464121 97.71494238 -22.09893799 93.18772888 C-22.10711548 92.35172653 -22.11529297 91.51572418 -22.12371826 90.65438843 C-22.14859063 87.87921364 -22.16509613 85.10409021 -22.17950439 82.32884216 C-22.18482807 81.38082859 -22.19015175 80.43281502 -22.19563675 79.45607376 C-22.22238085 74.4348303 -22.24174863 69.41361177 -22.25616455 64.39231873 C-22.27278336 59.21383724 -22.31753428 54.03599575 -22.368536 48.85775566 C-22.40225663 44.87020671 -22.41374747 40.88280847 -22.41939163 36.89513016 C-22.42609459 34.98700719 -22.44129173 33.0788938 -22.46528244 31.17090988 C-22.49703023 28.49239942 -22.49695619 25.81559814 -22.48956299 23.13694763 C-22.50596832 22.35533768 -22.52237366 21.57372772 -22.53927612 20.76843262 C-22.47257343 14.83354848 -20.57744505 10.90776263 -16.90606689 6.27415466 C-11.44754808 1.21503967 -7.35662191 -0.02370785 0 0 Z " fill="#FDFDFD" transform="translate(21.90606689453125,-0.2741546630859375)"/>
<path d="M0 0 C8.74516358 -0.0696572 17.49023095 -0.12289077 26.23561192 -0.15543652 C30.29690446 -0.17106063 34.35800652 -0.19223893 38.41918945 -0.22631836 C42.34197284 -0.25902862 46.26457354 -0.27687748 50.18748283 -0.28463173 C51.68054007 -0.29015439 53.17358785 -0.30093873 54.66656685 -0.31719017 C56.76563882 -0.33912048 58.8639658 -0.34196056 60.96313477 -0.34057617 C62.15560318 -0.34723801 63.34807159 -0.35389984 64.57667542 -0.36076355 C69.33024811 0.14018683 73.30177841 1.51151893 76.9609375 4.71875 C77.66089844 5.60046875 77.66089844 5.60046875 78.375 6.5 C78.85710937 7.0878125 79.33921875 7.675625 79.8359375 8.28125 C82.68465468 12.48740959 82.17904634 17.14660009 82.203125 22.015625 C82.20882507 22.90481628 82.21452515 23.79400757 82.22039795 24.71014404 C82.22984443 26.59304618 82.23638054 28.47596483 82.24023438 30.35888672 C82.24991634 33.22523269 82.28093309 36.09085426 82.3125 38.95703125 C82.31903279 40.78905826 82.32428218 42.62109038 82.328125 44.453125 C82.3404718 45.30440979 82.3528186 46.15569458 82.36553955 47.03277588 C82.34037165 53.83098124 81.13056515 58.5416556 76.5625 63.8125 C72.0229852 67.68769556 69.11337097 68.24860925 63.12011719 68.22705078 C62.43678314 68.22734283 61.7534491 68.22763489 61.04940796 68.22793579 C58.79843294 68.22654624 56.54779196 68.21100302 54.296875 68.1953125 C52.73317648 68.19158103 51.16947562 68.18873469 49.60577393 68.18673706 C45.49578362 68.17911114 41.3859353 68.15947164 37.27600098 68.1373291 C33.07985352 68.11684822 28.88368306 68.10773055 24.6875 68.09765625 C16.45826827 68.07622472 8.22915181 68.04210139 0 68 C0.21194 67.48667618 0.42388 66.97335236 0.64224243 66.44447327 C3.0854912 59.96168585 3.43847023 54.12850272 3.3984375 47.24609375 C3.40130768 46.14580338 3.40417786 45.045513 3.40713501 43.91188049 C3.40916632 41.59823081 3.40370219 39.28456359 3.39111328 36.97094727 C3.37503161 33.44443145 3.3910026 29.91905894 3.41015625 26.39257812 C3.40817395 24.13541416 3.40433056 21.8782509 3.3984375 19.62109375 C3.40754654 18.05203529 3.40754654 18.05203529 3.4168396 16.45127869 C3.35785094 10.2669863 2.5461769 5.65072593 0 0 Z " fill="#C6A09F" transform="translate(138,41)"/>
<path d="M0 0 C1.51456451 0.00746962 3.02913876 0.01315914 4.54371643 0.01715088 C8.51084544 0.03235078 12.47737939 0.07158251 16.4442749 0.1159668 C20.49987745 0.15704237 24.55557708 0.17518798 28.61132812 0.1953125 C36.55495917 0.23808345 44.49810848 0.30626479 52.44140625 0.390625 C52.12349625 1.16061073 52.12349625 1.16061073 51.79916382 1.94615173 C49.35591505 8.42893915 49.00293602 14.26212228 49.04296875 21.14453125 C49.04009857 22.24482162 49.03722839 23.345112 49.03427124 24.47874451 C49.03223993 26.79239419 49.03770406 29.10606141 49.05029297 31.41967773 C49.06637464 34.94619355 49.05040365 38.47156606 49.03125 41.99804688 C49.0332323 44.25521084 49.03707569 46.5123741 49.04296875 48.76953125 C49.03689606 49.81557022 49.03082336 50.86160919 49.02456665 51.93934631 C49.08355531 58.1236387 49.89522935 62.73989907 52.44140625 68.390625 C43.69627409 68.48350093 34.95131295 68.55447868 26.20579433 68.59787369 C22.144424 68.61870623 18.08339228 68.64694366 14.0222168 68.69238281 C10.09941871 68.73599665 6.17694534 68.75979467 2.25392342 68.77013397 C0.76084345 68.77749763 -0.7322197 68.79187719 -2.2251606 68.81354523 C-17.24442256 69.02276597 -17.24442256 69.02276597 -22.55859375 64.390625 C-27.52376396 58.77609972 -28.30516427 53.57033539 -28.22265625 46.265625 C-28.2298317 44.84612549 -28.2298317 44.84612549 -28.2371521 43.39794922 C-28.24053702 41.40786058 -28.23143377 39.41771526 -28.21044922 37.42773438 C-28.18366309 34.39846671 -28.21024477 31.37290376 -28.2421875 28.34375 C-28.23888315 26.40103357 -28.2324764 24.45831942 -28.22265625 22.515625 C-28.2327774 21.61956543 -28.24289856 20.72350586 -28.25332642 19.80029297 C-28.13714561 13.50143743 -26.77274722 9.15591404 -22.55859375 4.390625 C-16.11110099 -1.22938502 -8.09718341 -0.11751978 0 0 Z " fill="#94A797" transform="translate(36.55859375,40.609375)"/>
<path d="M0 0 C0.7734375 -0.02449219 1.546875 -0.04898438 2.34375 -0.07421875 C9.0558729 -0.1080046 14.2045633 1.69407503 19.2734375 6.15625 C19.71945313 6.7234375 20.16546875 7.290625 20.625 7.875 C21.08648437 8.4421875 21.54796875 9.009375 22.0234375 9.59375 C24.60492147 13.34265666 25.50377897 16.07834328 25.55639648 20.65917969 C25.57238388 21.71417664 25.58837128 22.76917358 25.60484314 23.85614014 C25.61020584 24.99158264 25.61556854 26.12702515 25.62109375 27.296875 C25.63463646 29.05780487 25.63463646 29.05780487 25.64845276 30.85430908 C25.66296076 33.33904468 25.67184335 35.82381854 25.67553711 38.30859375 C25.68741228 42.09701567 25.73657867 45.88379781 25.78710938 49.671875 C25.79657621 52.08853374 25.80381 54.50520246 25.80859375 56.921875 C25.82812607 58.04922058 25.84765839 59.17656616 25.86778259 60.33807373 C25.82317175 68.17435446 24.32451357 73.29083421 18.73631287 78.89227295 C12.88496517 84.02170674 8.50622167 84.76045378 1 84.8125 C0.17886719 84.84537109 -0.64226562 84.87824219 -1.48828125 84.91210938 C-8.48767012 84.97311831 -13.16839876 82.75388015 -18.24243164 77.96704102 C-24.46211025 71.05488108 -25.21692751 64.43246775 -25.21875 55.54296875 C-25.22636353 54.51117996 -25.23397705 53.47939117 -25.24182129 52.41633606 C-25.25259141 50.24039113 -25.25548801 48.06439464 -25.25097656 45.88842773 C-25.250006 42.58293088 -25.29162909 39.27977065 -25.3359375 35.97460938 C-25.34114666 33.85156729 -25.34383266 31.72851722 -25.34375 29.60546875 C-25.36014526 28.62909958 -25.37654053 27.65273041 -25.39343262 26.64677429 C-25.31655887 18.90070452 -23.3355176 12.16462333 -17.90661621 6.42668152 C-16.24583031 4.92764918 -14.61500718 3.60999357 -12.75 2.375 C-12.19957031 2.00117187 -11.64914063 1.62734375 -11.08203125 1.2421875 C-7.43497007 -0.1140061 -3.85965493 0.00630663 0 0 Z " fill="#BBBEB7" transform="translate(112.75,32.625)"/>
<path d="M0 0 C12.87 0 25.74 0 39 0 C39 22.11 39 44.22 39 67 C25.8 67 12.6 67 -1 67 C-0.01 64.03 0.98 61.06 2 58 C2.42916899 55.09439208 2.42916899 55.09439208 2.37231445 52.40771484 C2.37854324 51.40993011 2.38477203 50.41214539 2.39118958 49.38412476 C2.38197983 48.33697296 2.37277008 47.28982117 2.36328125 46.2109375 C2.36377975 45.10827545 2.36427826 44.0056134 2.36479187 42.86953735 C2.3624632 40.55167833 2.35280653 38.2338162 2.33618164 35.91601562 C2.31252458 32.37867538 2.31563852 28.84208718 2.32226562 25.3046875 C2.31669 23.04426637 2.30958085 20.78384838 2.30078125 18.5234375 C2.30169266 17.47223724 2.30260406 16.42103699 2.30354309 15.33798218 C2.29401108 14.34650177 2.28447906 13.35502136 2.2746582 12.33349609 C2.27005081 11.4701767 2.26544342 10.6068573 2.26069641 9.71737671 C2.00911835 6.22966375 2.00911835 6.22966375 0 0 Z " fill="#CEA18D" transform="translate(139,42)"/>
<path d="M0 0 C22.44 0 44.88 0 68 0 C67.01 2.97 66.02 5.94 65 9 C64.56494878 11.89820357 64.56494878 11.89820357 64.61181641 14.57641602 C64.59763168 16.06825157 64.59763168 16.06825157 64.5831604 17.59022522 C64.58923309 18.63423996 64.59530579 19.6782547 64.6015625 20.75390625 C64.59869232 21.85419662 64.59582214 22.954487 64.59286499 24.08811951 C64.59083368 26.40176919 64.59629781 28.71543641 64.60888672 31.02905273 C64.62496839 34.55556855 64.6089974 38.08094106 64.58984375 41.60742188 C64.59182605 43.86458584 64.59566944 46.1217491 64.6015625 48.37890625 C64.59548981 49.42494522 64.58941711 50.47098419 64.5831604 51.54872131 C64.59261688 52.54012619 64.60207336 53.53153107 64.61181641 54.55297852 C64.61539658 55.84462669 64.61539658 55.84462669 64.61904907 57.16236877 C65.02192218 60.96454031 65.02192218 60.96454031 68 68 C55.46 68 42.92 68 30 68 C30 45.89 30 23.78 30 1 C20.1 1 10.2 1 0 1 C0 0.67 0 0.34 0 0 Z " fill="#B8BEA2" transform="translate(21,41)"/>
<path d="M0 0 C3.52849958 2.13948202 6.086881 4.4956328 8.28125 8.01953125 C9.14819986 12.75260889 8.82772468 16.85827256 6.78125 21.20703125 C4.10205066 24.2211305 1.2510105 26.72068195 -1.9140625 29.2109375 C-4.19456217 31.25949195 -4.19456217 31.25949195 -5.71875 36.01953125 C-10.33875 36.01953125 -14.95875 36.01953125 -19.71875 36.01953125 C-19.71875 29.6491608 -19.53431873 28.69360294 -15.71875 24.01953125 C-14.33694796 22.83627941 -12.94012855 21.6704105 -11.53125 20.51953125 C-8.602718 18.07999346 -7.81956968 17.36609892 -6.71875 13.58203125 C-6.71875 12.73640625 -6.71875 11.89078125 -6.71875 11.01953125 C-10.05017278 10.51827842 -10.05017278 10.51827842 -13.71875 11.01953125 C-14.316875 12.00953125 -14.915 12.99953125 -15.53125 14.01953125 C-17.71875 17.01953125 -17.71875 17.01953125 -20.04296875 17.453125 C-24.10102419 17.45904917 -27.80533661 17.11564935 -31.71875 16.01953125 C-30.60640965 9.67919124 -28.75332216 5.22447865 -23.71875 1.01953125 C-17.21469123 -2.41635845 -6.8752738 -2.479445 0 0 Z " fill="#FDFDFD" transform="translate(123.71875,48.98046875)"/>
<path d="M0 0 C2.51625 -0.0825 5.0325 -0.165 7.625 -0.25 C8.79603271 -0.30462402 8.79603271 -0.30462402 9.99072266 -0.36035156 C15.12505046 -0.44116606 17.95833766 0.59527585 22 4 C24.75076146 6.75534606 25.87499023 8.26556762 26.53125 12.12109375 C26.42330559 23.57669441 26.42330559 23.57669441 22 28 C17.05329362 31.08433032 13.24897369 31.38425202 7.625 31.1875 C3.850625 31.0946875 3.850625 31.0946875 0 31 C0 20.77 0 10.54 0 0 Z " fill="#E3C9BE" transform="translate(146,59)"/>
<path d="M0 0 C4.5478125 -0.1546875 4.5478125 -0.1546875 9.1875 -0.3125 C10.13391357 -0.35802002 11.08032715 -0.40354004 12.05541992 -0.45043945 C16.48343879 -0.5232919 18.42370007 -0.42948588 22.08203125 2.296875 C24.57569393 5.81136497 24.61458441 7.77473218 24 12 C22.5 14.4375 22.5 14.4375 21 16 C21.99 16.33 22.98 16.66 24 17 C26 20 26 20 25.9375 23.4375 C25 27 25 27 23.0859375 29.20703125 C18.62308091 31.80000742 14.74060382 31.43426809 9.6875 31.25 C6.490625 31.1675 3.29375 31.085 0 31 C0 20.77 0 10.54 0 0 Z " fill="#D6D9C9" transform="translate(55,59)"/>
<path d="M0 0 C6.93 0 13.86 0 21 0 C21 2.31 21 4.62 21 7 C16.38 7 11.76 7 7 7 C7 8.65 7 10.3 7 12 C10.96 12 14.92 12 19 12 C19 13.98 19 15.96 19 18 C15.04 18 11.08 18 7 18 C7 20.31 7 22.62 7 25 C11.62 25 16.24 25 21 25 C21 26.98 21 28.96 21 31 C14.07 31 7.14 31 0 31 C0 20.77 0 10.54 0 0 Z " fill="#DDC7C7" transform="translate(188,59)"/>
<path d="M0 0 C2.31 0 4.62 0 7 0 C8.56861844 4.25339842 10.13514517 8.50755891 11.69970703 12.76245117 C12.23265552 14.21090696 12.76618298 15.65914984 13.30029297 17.10717773 C14.06628987 19.18418047 14.83022617 21.26193083 15.59375 23.33984375 C15.83436157 23.99089584 16.07497314 24.64194794 16.32287598 25.31272888 C18 29.88612829 18 29.88612829 18 31 C15.36 31 12.72 31 10 31 C9.34 29.02 8.68 27.04 8 25 C4.7 24.67 1.4 24.34 -2 24 C-2.144375 24.969375 -2.28875 25.93875 -2.4375 26.9375 C-3 30 -3 30 -4 31 C-6.33297433 31.04092937 -8.66705225 31.04241723 -11 31 C-9.10702069 24.20754483 -6.8151793 17.61127733 -4.375 11 C-4.06167725 10.15074951 -3.74835449 9.30149902 -3.42553711 8.42651367 C-1.14179887 2.28359773 -1.14179887 2.28359773 0 0 Z " fill="#C0CBC2" transform="translate(27,59)"/>
<path d="M0 0 C4.95 0 9.9 0 15 0 C15 4.29 15 8.58 15 13 C10.05 13 5.1 13 0 13 C0 8.71 0 4.42 0 0 Z " fill="#FBFBFB" transform="translate(104,89)"/>
<path d="M0 0 C8 0 8 0 10.5 1.4375 C12.74047235 5.2649736 12.62013515 8.67495485 12 13 C11.0625 15.5 11.0625 15.5 9 17 C5.96474192 17.62427294 3.11244783 17.81956824 0 18 C0 12.06 0 6.12 0 0 Z " fill="#CEA18D" transform="translate(153,66)"/>
<path d="M0 0 C4.99268902 1.47931526 4.99268902 1.47931526 6.375 4 C6.76809578 7.09562931 6.99838668 9.04336605 6.375 12 C4.3125 14.5625 4.3125 14.5625 1.375 16 C-2.4387751 16 -4.64924548 15.84985071 -7.5625 13.3125 C-8.9863395 10.2135552 -9.17653827 8.37817188 -8.625 5 C-5.91953265 1.14675862 -4.77773264 0 0 0 Z " fill="#878787" transform="translate(127.625,12)"/>
<path d="M0 0 C8.24550898 -0.48502994 8.24550898 -0.48502994 11.625 1.6875 C13 4 13 4 12.75 6.75 C12.5025 7.4925 12.255 8.235 12 9 C11.34 9 10.68 9 10 9 C10.7425 10.175625 10.7425 10.175625 11.5 11.375 C13 14 13 14 13 16 C11.68 16 10.36 16 9 16 C8.5978125 15.0409375 8.5978125 15.0409375 8.1875 14.0625 C7.11332248 11.66868314 7.11332248 11.66868314 4 11 C4 12.65 4 14.3 4 16 C2.68 16 1.36 16 0 16 C0 10.72 0 5.44 0 0 Z " fill="#8C8C8C" transform="translate(136,12)"/>
<path d="M0 0 C1.423125 -0.061875 2.84625 -0.12375 4.3125 -0.1875 C5.51326172 -0.23970703 5.51326172 -0.23970703 6.73828125 -0.29296875 C9 0 9 0 10.77734375 1.359375 C12.49441438 3.66343143 12.27480564 5.18324217 12 8 C11.79375 8.680625 11.5875 9.36125 11.375 10.0625 C10.87811029 12.6297635 11.67320572 13.81469177 13 16 C11.35 15.67 9.7 15.34 8 15 C7.67 13.68 7.34 12.36 7 11 C6.01 11 5.02 11 4 11 C4 12.65 4 14.3 4 16 C2.68 16 1.36 16 0 16 C0 10.72 0 5.44 0 0 Z " fill="#888888" transform="translate(61,12)"/>
<path d="M0 0 C1.32 0 2.64 0 4 0 C5.703125 1.75 5.703125 1.75 7.25 4 C8.03117187 5.11375 8.03117187 5.11375 8.828125 6.25 C9.21484375 6.8275 9.6015625 7.405 10 8 C10.33 5.36 10.66 2.72 11 0 C11.99 0 12.98 0 14 0 C14 5.28 14 10.56 14 16 C9.77000325 14.94250081 9.45069644 14.79967512 7.25 11.4375 C6.82203125 10.79683594 6.3940625 10.15617187 5.953125 9.49609375 C5.63859375 9.00238281 5.3240625 8.50867187 5 8 C4.67 10.64 4.34 13.28 4 16 C2.68 16 1.36 16 0 16 C0 10.72 0 5.44 0 0 Z " fill="#888888" transform="translate(14,12)"/>
<path d="M0 0 C1.32 0 2.64 0 4 0 C4 3.96 4 7.92 4 12 C5.65 11.67 7.3 11.34 9 11 C9.33 7.37 9.66 3.74 10 0 C11.32 0 12.64 0 14 0 C14.77760323 9.86692101 14.77760323 9.86692101 11.8125 14.1875 C9 16 9 16 6.4375 16.625 C4 16 4 16 1.6875 14.1875 C-0.78285497 9.52127395 -0.32633581 5.17604848 0 0 Z " fill="#8C8C8C" transform="translate(31,12)"/>
<path d="M0 0 C3.63 0 7.26 0 11 0 C11 0.99 11 1.98 11 3 C8.69 3 6.38 3 4 3 C4 3.99 4 4.98 4 6 C5.98 6 7.96 6 10 6 C10 6.99 10 7.98 10 9 C8.02 9 6.04 9 4 9 C4 10.32 4 11.64 4 13 C6.31 13 8.62 13 11 13 C11 13.99 11 14.98 11 16 C7.37 16 3.74 16 0 16 C0 10.72 0 5.44 0 0 Z " fill="#898989" transform="translate(151,12)"/>
<path d="M0 0 C0 0.99 0 1.98 0 3 C-2.31 2.67 -4.62 2.34 -7 2 C-7 2.99 -7 3.98 -7 5 C-6.05125 5.12375 -5.1025 5.2475 -4.125 5.375 C-1 6 -1 6 1 8 C0.67028521 11.29714793 0.3773161 12.6226839 -2 15 C-5.625 15.125 -5.625 15.125 -9 15 C-9.66 13.68 -10.32 12.36 -11 11 C-8.53721199 9.768606 -6.7204945 9.92840804 -4 10 C-5.4540625 9.4121875 -5.4540625 9.4121875 -6.9375 8.8125 C-10 7 -10 7 -11.0625 4.5 C-11 2 -11 2 -10.0625 0.125 C-6.67379594 -1.72338403 -3.72908833 -0.67245855 0 0 Z " fill="#898989" transform="translate(102,13)"/>
<path d="M0 0 C3.3125 1 3.3125 1 5.3125 4 C3.9925 4 2.6725 4 1.3125 4 C-0.35975729 4.30404678 -2.02830104 4.63128912 -3.6875 5 C-3.6875 6.98 -3.6875 8.96 -3.6875 11 C-0.63486336 11.98120464 1.25986336 11.98120464 4.3125 11 C4.3125 11.99 4.3125 12.98 4.3125 14 C1.06423326 16.16551116 0.08155843 16.55156953 -3.6875 16 C-6.84239656 13.80909961 -7.61032318 12.24968972 -8.75 8.5625 C-8.6875 5 -8.6875 5 -6.6875 2 C-3.6875 0 -3.6875 0 0 0 Z " fill="#878787" transform="translate(112.6875,12)"/>
<path d="M0 0 C4.29 0 8.58 0 13 0 C13 1.32 13 2.64 13 4 C11.68 4 10.36 4 9 4 C9 7.96 9 11.92 9 16 C7.68 16 6.36 16 5 16 C5 11.71 5 7.42 5 3 C3.35 3 1.7 3 0 3 C0 2.01 0 1.02 0 0 Z " fill="#8D8D8D" transform="translate(46,12)"/>
<path d="M0 0 C1.64574566 -0.02688151 3.29161413 -0.04634123 4.9375 -0.0625 C5.85402344 -0.07410156 6.77054687 -0.08570312 7.71484375 -0.09765625 C10 0 10 0 11 1 C11.125 3.5 11.125 3.5 11 6 C10 7 10 7 7.71484375 7.09765625 C6.34005859 7.08025391 6.34005859 7.08025391 4.9375 7.0625 C4.01839844 7.05347656 3.09929687 7.04445313 2.15234375 7.03515625 C1.44207031 7.02355469 0.73179688 7.01195313 0 7 C0 4.69 0 2.38 0 0 Z " fill="#BBC0A4" transform="translate(62,77)"/>
<path d="M0 0 C1.47906892 -0.02689216 2.95827483 -0.04634621 4.4375 -0.0625 C5.26121094 -0.07410156 6.08492188 -0.08570312 6.93359375 -0.09765625 C9 0 9 0 10 1 C10.125 3.5 10.125 3.5 10 6 C9 7 9 7 6.93359375 7.09765625 C6.10988281 7.08605469 5.28617187 7.07445313 4.4375 7.0625 C3.61121094 7.05347656 2.78492187 7.04445313 1.93359375 7.03515625 C1.29550781 7.02355469 0.65742187 7.01195313 0 7 C0 4.69 0 2.38 0 0 Z " fill="#BDC1A6" transform="translate(62,65)"/>
<path d="M0 0 C2.93453261 0.36681658 3.86437246 0.86437246 6 3 C5.67028521 6.29714793 5.3773161 7.6226839 3 10 C-0.53571429 9.46428571 -0.53571429 9.46428571 -2 8 C-2.1875 5.0625 -2.1875 5.0625 -2 2 C-1.34 1.34 -0.68 0.68 0 0 Z " fill="#F4F4F4" transform="translate(125,15)"/>
<path d="M0 0 C0.99 0 1.98 0 3 0 C3 5.28 3 10.56 3 16 C2.01 16 1.02 16 0 16 C0 10.72 0 5.44 0 0 Z " fill="#808080" transform="translate(76,12)"/>
<path d="M0 0 C0.33 0 0.66 0 1 0 C1 5.28 1 10.56 1 16 C-0.65 14.68 -2.3 13.36 -4 12 C-3.42415568 9.61435923 -2.77772405 7.33317216 -2 5 C-1.34 5 -0.68 5 0 5 C0 3.35 0 1.7 0 0 Z " fill="#EFEFEF" transform="translate(75,12)"/>
<path d="M0 0 C3.00617269 3.00617269 2.59585316 5.82381598 3 10 C1.02 10 -0.96 10 -3 10 C-2.39009109 6.44219804 -1.4216319 3.3171411 0 0 Z " fill="#97A99A" transform="translate(30,68)"/>
<path d="M0 0 C1.65 0 3.3 0 5 0 C5 1.65 5 3.3 5 5 C3.35 5 1.7 5 0 5 C0 3.35 0 1.7 0 0 Z " fill="#DADADA" transform="translate(64,15)"/>
<path d="M0 0 C2.475 0.495 2.475 0.495 5 1 C4.67 2.32 4.34 3.64 4 5 C2.68 5 1.36 5 0 5 C0 3.35 0 1.7 0 0 Z " fill="#E7E7E7" transform="translate(140,15)"/>
<path d="M0 0 C2.31 0 4.62 0 7 0 C7 0.99 7 1.98 7 3 C4.69 3 2.38 3 0 3 C0 2.01 0 1.02 0 0 Z " fill="#868686" transform="translate(82,20)"/>
</svg>
