<?xml version="1.0" encoding="UTF-8"?>
<svg version="1.1" xmlns="http://www.w3.org/2000/svg" width="240" height="130">
<path d="M0 0 C1.28297875 -0.00785502 1.28297875 -0.00785502 2.59187627 -0.01586872 C5.4629296 -0.03089134 8.33380506 -0.03157438 11.20489502 -0.03224182 C13.26144716 -0.03986185 15.31799645 -0.04828907 17.37454224 -0.0574646 C22.96557878 -0.07943349 28.55656063 -0.08821187 34.14763546 -0.09329104 C37.64063861 -0.09693217 41.13362738 -0.10317099 44.62662506 -0.11029243 C56.81255219 -0.13479643 68.9984367 -0.14784063 81.18438721 -0.15138245 C92.54290162 -0.15501717 103.90114572 -0.18490576 115.25957751 -0.22678703 C125.01087965 -0.26148176 134.76209218 -0.27693076 144.51345563 -0.27762848 C150.33764328 -0.27842165 156.16155575 -0.28717873 161.98567963 -0.31562614 C167.46541356 -0.34179208 172.94464391 -0.34401991 178.42441177 -0.3279705 C180.43353752 -0.32615479 182.44269212 -0.33285775 184.45175552 -0.34878922 C187.19938883 -0.36924563 189.94525952 -0.35870073 192.69287109 -0.34057617 C193.48393903 -0.35377614 194.27500696 -0.36697611 195.09004664 -0.38057607 C201.66704817 -0.28179728 206.45856896 2.16854865 211.13152575 6.78762251 C216.08995034 12.50299576 216.89897711 16.65319928 216.89093018 24.10667419 C216.8976474 24.99827744 216.90436462 25.88988068 216.9112854 26.8085022 C216.93029112 29.75804718 216.93419154 32.70736473 216.93634033 35.65696716 C216.94276875 37.71237786 216.94949715 39.76778764 216.95651245 41.82319641 C216.96849328 46.13564676 216.97219267 50.44801697 216.9710083 54.76048279 C216.97080559 60.26820456 216.9980546 65.77540756 217.03255272 71.28300667 C217.05487241 75.53143133 217.05884421 79.77973242 217.05778885 84.02820969 C217.06013922 86.057456 217.06893074 88.08670601 217.08445358 90.11589432 C217.24514196 113.30130412 217.24514196 113.30130412 209.35040283 122.14915466 C200.63772301 130.0936197 190.89205668 130.98774762 179.56671143 130.47093201 C173.92549125 129.90638973 169.23468539 127.36367637 164.60040283 124.27415466 C161.46257827 123.97160669 161.46257827 123.97160669 157.80838013 124.02259827 C156.76662917 124.01814306 156.76662917 124.01814306 155.70383275 124.01359785 C153.37093296 124.00594444 151.03828395 124.01245738 148.7053833 124.01878357 C147.03483408 124.0160342 145.36428616 124.01235463 143.69374084 124.0078125 C140.09240835 123.99969214 136.49113798 123.9975342 132.88979721 123.99975967 C127.190996 124.00259043 121.49231902 123.98824831 115.79354858 123.97077942 C99.58693318 123.92373401 83.38032565 123.89982089 67.17364502 123.89329529 C58.22563786 123.88954026 49.27777075 123.87147239 40.32982361 123.83820093 C34.66969863 123.81801554 29.00993559 123.81560313 23.34978938 123.8264811 C19.81915141 123.82909566 16.28872231 123.8150473 12.75813866 123.79640007 C11.12679113 123.79109516 9.49540473 123.79254566 7.8640728 123.80143547 C-10.48304487 123.89331079 -10.48304487 123.89331079 -17.26220894 117.52420998 C-22.76806868 111.62446249 -23.6997221 106.21706067 -23.70599365 98.38816833 C-23.71431717 97.50296005 -23.72264069 96.61775177 -23.73121643 95.70571899 C-23.75527663 92.78447548 -23.76408385 89.86345545 -23.77069092 86.94212341 C-23.7796605 84.90577122 -23.78878241 82.8694197 -23.79804993 80.83306885 C-23.81453183 76.56528626 -23.82223855 72.29758204 -23.82513428 68.0297699 C-23.83051617 62.57222207 -23.86819207 57.11541505 -23.91387844 51.65807629 C-23.94368219 47.45176531 -23.95085857 43.24563199 -23.95186043 39.03922462 C-23.95605637 37.02784648 -23.96846543 35.01646751 -23.98937798 33.00519371 C-24.01636003 30.18568979 -24.01144663 27.36789348 -23.9989624 24.54832458 C-24.01379669 23.72467407 -24.02863098 22.90102356 -24.04391479 22.05241394 C-23.95956309 15.33207614 -21.61615061 10.52505749 -16.8860693 5.74446392 C-11.30621468 0.89826306 -7.2787199 -0.02197365 0 0 Z " fill="#FEFDFD" transform="translate(23.39959716796875,-0.2741546630859375)"/>
<path d="M0 0 C0.75146301 -0.00014603 1.50292603 -0.00029205 2.27716064 -0.0004425 C4.76073087 0.0002541 7.24422608 0.00803472 9.7277832 0.01586914 C11.44985412 0.01773422 13.17192556 0.0191577 14.89399719 0.02015686 C19.42645737 0.02397499 23.95888549 0.03379928 28.49133301 0.04486084 C33.92954089 0.05688858 39.36775949 0.06148056 44.80597687 0.06731415 C53.06769502 0.07701139 61.32934285 0.09617288 69.59106445 0.11352539 C69.59106445 24.20352539 69.59106445 48.29352539 69.59106445 73.11352539 C50.65524991 73.27396063 50.65524991 73.27396063 42.56176758 73.30883789 C37.04671772 73.33271682 31.5319344 73.36091598 26.01708984 73.4152832 C21.56910347 73.4588568 17.12140307 73.48268682 12.67321968 73.49303436 C10.97918766 73.50040512 9.28517066 73.5147986 7.59126091 73.53644562 C5.21186815 73.56563365 2.83364556 73.56947512 0.45410156 73.56762695 C-0.24073837 73.58200806 -0.93557831 73.59638916 -1.651474 73.61120605 C-7.62589724 73.56124304 -11.76210908 71.54077209 -16.15112305 67.51586914 C-19.32832067 63.40742394 -20.52483738 60.60079381 -20.5859375 55.46191406 C-20.59877274 54.52051071 -20.61160797 53.57910736 -20.62483215 52.60917664 C-20.63221909 51.59354141 -20.63960602 50.57790619 -20.6472168 49.53149414 C-20.65528854 48.48455887 -20.66336029 47.4376236 -20.67167664 46.35896301 C-20.68551073 44.14232029 -20.6962359 41.92565632 -20.70410156 39.70898438 C-20.72131595 36.32453942 -20.76520926 32.94107092 -20.80932617 29.55688477 C-20.81945319 27.40259507 -20.82796926 25.24829707 -20.8347168 23.09399414 C-20.85222488 22.08443161 -20.86973297 21.07486908 -20.88777161 20.03471375 C-20.86612932 13.00059918 -19.75804203 9.56089417 -14.8112793 4.46899414 C-9.78794846 0.46372502 -6.23079287 -0.03158595 0 0 Z " fill="#86BB30" transform="translate(30.408935546875,43.886474609375)"/>
<path d="M0 0 C27.39 0 54.78 0 83 0 C82.01 2.64 81.02 5.28 80 8 C79.56088589 10.94707902 79.56088589 10.94707902 79.61181641 13.79833984 C79.59763168 15.40073013 79.59763168 15.40073013 79.5831604 17.03549194 C79.58923309 18.16588898 79.59530579 19.29628601 79.6015625 20.4609375 C79.59869232 21.64668365 79.59582214 22.83242981 79.59286499 24.05410767 C79.59083032 26.55365478 79.59631824 29.05321803 79.60888672 31.55273438 C79.62491921 35.3558356 79.60903129 39.15786949 79.58984375 42.9609375 C79.59182684 45.39843982 79.59567188 47.83594149 79.6015625 50.2734375 C79.59548981 51.39978607 79.58941711 52.52613464 79.5831604 53.68661499 C79.59261688 54.7611795 79.60207336 55.83574402 79.61181641 56.94287109 C79.61539658 58.3389711 79.61539658 58.3389711 79.61904907 59.76327515 C80.15135215 64.28595374 81.69144763 68.63815877 83 73 C55.61 73 28.22 73 0 73 C0 48.91 0 24.82 0 0 Z " fill="#FDCA07" transform="translate(100,44)"/>
<path d="M0 0 C0.7734375 -0.02449219 1.546875 -0.04898438 2.34375 -0.07421875 C9.50629461 -0.11027183 14.60036453 2.08667846 20 6.75 C24.61638093 12.13577776 27.34337909 16.37733217 27.44287109 23.51391602 C27.45893402 24.56253311 27.47499695 25.61115021 27.49154663 26.69154358 C27.53617777 31.5021187 27.5770902 36.31255686 27.60009766 41.12329102 C27.61661801 43.65365827 27.64385553 46.18397961 27.68212891 48.71411133 C27.73717102 52.37345455 27.75881804 56.03170358 27.7734375 59.69140625 C27.79610687 60.81156631 27.81877625 61.93172638 27.84213257 63.08583069 C27.820251 71.30614946 26.13493518 78.03588014 20.54086304 84.28395081 C14.5934058 89.95389626 8.45654407 91.54228204 0.375 91.875 C-7.46079716 91.67386724 -13.02490871 89.75324853 -18.84765625 84.47265625 C-25.811798 77.02231159 -26.07493349 69.92013744 -26.12109375 60.07421875 C-26.13012222 58.88327103 -26.1391507 57.6923233 -26.14845276 56.46528625 C-26.16293646 53.94962063 -26.17183731 51.43391749 -26.17553711 48.91821289 C-26.18742678 45.08610003 -26.23662975 41.25560121 -26.28710938 37.42382812 C-26.29657511 34.97396615 -26.30380942 32.52409434 -26.30859375 30.07421875 C-26.32812607 28.93643478 -26.34765839 27.79865082 -26.36778259 26.62638855 C-26.32117518 18.3359462 -24.57391482 12.24164013 -18.65234375 6.25390625 C-18.00394531 5.81949219 -17.35554687 5.38507812 -16.6875 4.9375 C-15.71103516 4.25880859 -15.71103516 4.25880859 -14.71484375 3.56640625 C-14.06644531 3.17324219 -13.41804687 2.78007813 -12.75 2.375 C-11.90888672 1.81232422 -11.90888672 1.81232422 -11.05078125 1.23828125 C-7.42071497 -0.12376399 -3.84503764 0.00628274 0 0 Z " fill="#E64014" transform="translate(208.75,34.625)"/>
<path d="M0 0 C0 23.76 0 47.52 0 72 C-15.92107251 73.22469789 -15.92107251 73.22469789 -22.875 73.3125 C-24.05835938 73.35600586 -24.05835938 73.35600586 -25.265625 73.40039062 C-31.75437051 73.47045183 -35.86730292 71.87280966 -40.7421875 67.40234375 C-43.91938512 63.29389855 -45.11590183 60.48726841 -45.17700195 55.34838867 C-45.18983719 54.40698532 -45.20267242 53.46558197 -45.21589661 52.49565125 C-45.22328354 51.48001602 -45.23067047 50.4643808 -45.23828125 49.41796875 C-45.246353 48.37103348 -45.25442474 47.32409821 -45.26274109 46.24543762 C-45.27657518 44.02879489 -45.28730035 41.81213093 -45.29516602 39.59545898 C-45.3123804 36.21101403 -45.35627371 32.82754553 -45.40039062 29.44335938 C-45.41051764 27.28906968 -45.41903372 25.13477168 -45.42578125 22.98046875 C-45.44328934 21.97090622 -45.46079742 20.96134369 -45.47883606 19.92118835 C-45.45719378 12.88707379 -44.34910648 9.44736878 -39.40234375 4.35546875 C-27.357969 -5.24791271 -19.91203238 0 0 0 Z " fill="#068242" transform="translate(55,44)"/>
<path d="M0 0 C-0.48678223 1.06299316 -0.97356445 2.12598633 -1.47509766 3.22119141 C-3.59062209 8.89819851 -3.4306376 14.46707237 -3.3984375 20.4609375 C-3.40274277 22.23955673 -3.40274277 22.23955673 -3.40713501 24.05410767 C-3.40916968 26.55365478 -3.40368176 29.05321803 -3.39111328 31.55273438 C-3.37508079 35.3558356 -3.39096871 39.15786949 -3.41015625 42.9609375 C-3.40817316 45.39843982 -3.40432812 47.83594149 -3.3984375 50.2734375 C-3.40451019 51.39978607 -3.41058289 52.52613464 -3.4168396 53.68661499 C-3.35592303 60.6087229 -2.39982582 66.49794876 0 73 C-12.72061402 73.16401938 -25.25872606 72.57914882 -38 72 C-38 48.57 -38 25.14 -38 1 C-12.46428571 -0.16071429 -12.46428571 -0.16071429 0 0 Z " fill="#EE8102" transform="translate(183,44)"/>
<path d="M0 0 C18.55657492 0 18.55657492 0 24 4 C28.05894911 8.97221266 29.42599453 13.28004417 29.34375 19.58203125 C28.7560457 23.71599676 26.89770716 27.02142659 24 30 C18.888775 33.3792587 14.51878006 33.36936705 8.625 33.1875 C4.355625 33.0946875 4.355625 33.0946875 0 33 C0 22.11 0 11.22 0 0 Z " fill="#F5B66C" transform="translate(148,63)"/>
<path d="M0 0 C8.91 0 17.82 0 27 0 C27 2.64 27 5.28 27 8 C21.06 8 15.12 8 9 8 C9 10.97 9 13.94 9 17 C14.28 17 19.56 17 25 17 C25 19.64 25 22.28 25 25 C19.72 25 14.44 25 9 25 C9 27.97 9 30.94 9 34 C15.27 34 21.54 34 28 34 C28 36.97 28 39.94 28 43 C18.76 43 9.52 43 0 43 C0 28.81 0 14.62 0 0 Z " fill="#FEFCFB" transform="translate(193,60)"/>
<path d="M0 0 C3.196875 -0.0825 6.39375 -0.165 9.6875 -0.25 C10.68612061 -0.28641602 11.68474121 -0.32283203 12.71362305 -0.36035156 C16.98285395 -0.41369006 19.36670269 -0.38848656 23.08203125 1.890625 C25.38413109 4.42246596 25.94636247 5.39657773 26.25 8.8125 C25.97212427 12.35541555 25.02619474 14.12955745 23 17 C23.66 17.515625 24.32 18.03125 25 18.5625 C27 21 27 21 27.5 24.5 C26.92936321 28.49445751 26.14975126 29.59136668 23 32 C20.54724859 33.2263757 18.9494219 33.11415314 16.2109375 33.09765625 C15.36321777 33.09515869 14.51549805 33.09266113 13.64208984 33.09008789 C12.5639502 33.08098389 11.48581055 33.07187988 10.375 33.0625 C6.95125 33.041875 3.5275 33.02125 0 33 C0 22.11 0 11.22 0 0 Z " fill="#B9D788" transform="translate(66,63)"/>
<path d="M0 0 C2.31 0 4.62 0 7 0 C10.10048172 6.69441157 12.74737963 13.49968019 15.25 20.4375 C15.61351563 21.42943359 15.97703125 22.42136719 16.3515625 23.44335938 C16.69445312 24.38888672 17.03734375 25.33441406 17.390625 26.30859375 C17.70032227 27.16251709 18.01001953 28.01644043 18.32910156 28.89624023 C19 31 19 31 19 33 C16.36 33 13.72 33 11 33 C10.34 31.02 9.68 29.04 9 27 C5.37 26.67 1.74 26.34 -2 26 C-2.33 28.31 -2.66 30.62 -3 33 C-5.64 33 -8.28 33 -11 33 C-10.30657022 28.94891025 -9.10847912 25.25008768 -7.71484375 21.38671875 C-7.3840255 20.46509697 -7.3840255 20.46509697 -7.04652405 19.52485657 C-6.34680121 17.57786976 -5.64223285 15.63267824 -4.9375 13.6875 C-4.45996441 12.36144406 -3.98274752 11.0352733 -3.50585938 9.70898438 C-2.3403697 6.47151306 -1.17164035 3.23524939 0 0 Z " fill="#6FB692" transform="translate(26,63)"/>
<path d="M0 0 C2.76565128 1.45710966 4.60421707 2.55871473 5.828125 5.49609375 C5.84875 6.07359375 5.869375 6.65109375 5.890625 7.24609375 C2.140625 10.24609375 2.140625 10.24609375 -0.109375 10.24609375 C-0.50125 9.75109375 -0.893125 9.25609375 -1.296875 8.74609375 C-3.16532966 6.92738028 -3.16532966 6.92738028 -6.546875 6.80859375 C-10.06221468 6.9996999 -10.06221468 6.9996999 -12.546875 8.68359375 C-14.8738341 12.49980667 -14.73241544 15.89279839 -14.109375 20.24609375 C-13.40100412 22.94205666 -13.40100412 22.94205666 -11.109375 24.24609375 C-8.0613032 24.67595003 -5.15087034 24.74242885 -2.109375 24.24609375 C-1.449375 23.58609375 -0.789375 22.92609375 -0.109375 22.24609375 C2.50642979 22.57306935 4.53140637 23.06648443 6.890625 24.24609375 C5.49477708 27.6193929 3.96696889 29.28842037 0.890625 31.24609375 C-4.69177952 33.10689526 -10.16069469 33.18434723 -15.484375 30.62109375 C-20.31596326 26.24965676 -22.87956259 22.00384265 -23.421875 15.49609375 C-23.35169081 10.7235688 -21.86703393 8.12172252 -19.109375 4.24609375 C-13.65769774 -0.8066803 -7.16427957 -2.56056659 0 0 Z " fill="#FEE16E" transform="translate(129.109375,63.75390625)"/>
<path d="M0 0 C7 0 7 0 9.875 1.875 C12.61346146 4.61346146 12.95538144 5.40880413 13.25 9.3125 C12.984656 13.22632394 12.36680088 14.93192479 10 18 C7 20 7 20 0 20 C0 13.4 0 6.8 0 0 Z " fill="#EE8202" transform="translate(156,70)"/>
<path d="M0 0 C4.10703441 0.85563217 5.55401113 2.24378009 8 5.625 C8.625 9.125 8.625 9.125 8 12.625 C5.55804571 16.00064269 4.0769435 17.37820045 0 18.3125 C-4.35321372 17.31488852 -5.65945491 15.34233632 -8 11.625 C-8.625 8.5625 -8.625 8.5625 -8 5.625 C-5.54405875 2.30225596 -4.0743356 0.84881992 0 0 Z " fill="#868686" transform="translate(135,12.375)"/>
<path d="M0 0 C1.588125 -0.061875 3.17625 -0.12375 4.8125 -0.1875 C6.15248047 -0.23970703 6.15248047 -0.23970703 7.51953125 -0.29296875 C10 0 10 0 11.8125 1.328125 C13.60385359 3.85016229 13.18499541 5.97840832 13 9 C13 12.11257569 13.17361624 14.10765685 14 17 C12.35 16.67 10.7 16.34 9 16 C8.67 14.68 8.34 13.36 8 12 C7.01 12 6.02 12 5 12 C5 13.65 5 15.3 5 17 C3.35 17 1.7 17 0 17 C0 11.39 0 5.78 0 0 Z " fill="#8E8E8E" transform="translate(145,13)"/>
<path d="M0 0 C1.588125 -0.061875 3.17625 -0.12375 4.8125 -0.1875 C6.15248047 -0.23970703 6.15248047 -0.23970703 7.51953125 -0.29296875 C10 0 10 0 11.8515625 1.23828125 C13.37397395 3.57368113 13.08369863 4.67214693 12.5625 7.375 C11.97653118 11.19626474 12.08881481 13.51489759 14 17 C12.35 17 10.7 17 9 17 C8.34 15.02 7.68 13.04 7 11 C6.01 11 5.02 11 4 11 C4 12.98 4 14.96 4 17 C2.68 17 1.36 17 0 17 C0 11.39 0 5.78 0 0 Z " fill="#868686" transform="translate(65,13)"/>
<path d="M0 0 C4.22999675 1.05749919 4.54930356 1.20032488 6.75 4.5625 C7.17796875 5.20316406 7.6059375 5.84382813 8.046875 6.50390625 C8.36140625 6.99761719 8.6759375 7.49132812 9 8 C9.33 5.36 9.66 2.72 10 0 C11.32 0 12.64 0 14 0 C14 5.61 14 11.22 14 17 C8.82530321 15.7063258 8.08244463 14.19554964 5 10 C5 9.34 5 8.68 5 8 C4.34 8 3.68 8 3 8 C3 10.64 3 13.28 3 16 C2.01 16 1.02 16 0 16 C0 10.72 0 5.44 0 0 Z " fill="#828282" transform="translate(16,13)"/>
<path d="M0 0 C3.96 0 7.92 0 12 0 C12 0.99 12 1.98 12 3 C9.36 3 6.72 3 4 3 C4 4.32 4 5.64 4 7 C6.31 7 8.62 7 11 7 C11 7.99 11 8.98 11 10 C8.69 10 6.38 10 4 10 C4 10.99 4 11.98 4 13 C6.64 13 9.28 13 12 13 C12 14.32 12 15.64 12 17 C8.04 17 4.08 17 0 17 C0 11.39 0 5.78 0 0 Z " fill="#8A8A8A" transform="translate(161,13)"/>
<path d="M0 0 C1.32 0 2.64 0 4 0 C4.33 3.96 4.66 7.92 5 12 C6.65 12.33 8.3 12.66 10 13 C10.33 8.71 10.66 4.42 11 0 C12.32 0 13.64 0 15 0 C15.45663381 9.65695939 15.45663381 9.65695939 13.9375 14.125 C12 16 12 16 8.625 17.125 C5 17 5 17 2.0625 15.3125 C-1.01861877 10.36403653 -0.40776458 5.68151984 0 0 Z " fill="#868686" transform="translate(33,13)"/>
<path d="M0 0 C2.1640625 0.0234375 2.1640625 0.0234375 4.625 0.375 C5.85089844 0.54128906 5.85089844 0.54128906 7.1015625 0.7109375 C7.72804688 0.80632813 8.35453125 0.90171875 9 1 C8.34 2.32 7.68 3.64 7 5 C5.35 4.67 3.7 4.34 2 4 C1.67 4.66 1.34 5.32 1 6 C2.11375 6.28875 3.2275 6.5775 4.375 6.875 C8 8 8 8 10 10 C9.8125 12.5 9.8125 12.5 9 15 C5.53001271 17.31332486 4.07490752 17.33957563 0 17 C-0.99 16.34 -1.98 15.68 -3 15 C-2.67 14.01 -2.34 13.02 -2 12 C0.31 12.33 2.62 12.66 5 13 C5 12.34 5 11.68 5 11 C4.05125 10.71125 3.1025 10.4225 2.125 10.125 C-1 9 -1 9 -3 7 C-2.67028521 3.70285207 -2.3773161 2.3773161 0 0 Z " fill="#878787" transform="translate(100,13)"/>
<path d="M0 0 C3.5149153 0.67306889 4.71363628 1.82543696 6.9375 4.5625 C3.36105152 5.8005014 0.60055234 5.31176071 -3.0625 4.5625 C-3.10491723 6.89544775 -3.10342937 9.22952567 -3.0625 11.5625 C-2.01025333 12.83806818 -2.01025333 12.83806818 0.375 12.6875 C2.92728622 12.73556676 2.92728622 12.73556676 4.9375 11.5625 C5.5975 11.8925 6.2575 12.2225 6.9375 12.5625 C6.375 14.5 6.375 14.5 4.9375 16.5625 C1.625 17.5625 1.625 17.5625 -2.0625 17.5625 C-4.86439446 15.79608828 -6.57774911 14.53200178 -8.0625 11.5625 C-8.60285146 7.50986402 -8.40449395 6.02519769 -5.9375 2.6875 C-3.0625 0.5625 -3.0625 0.5625 0 0 Z " fill="#898989" transform="translate(119.0625,12.4375)"/>
<path d="M0 0 C4.62 0 9.24 0 14 0 C14 0.99 14 1.98 14 3 C12.35 3 10.7 3 9 3 C9 7.62 9 12.24 9 17 C7.68 17 6.36 17 5 17 C5 12.71 5 8.42 5 4 C3.35 4 1.7 4 0 4 C0 2.68 0 1.36 0 0 Z " fill="#8B8B8B" transform="translate(49,13)"/>
<path d="M0 0 C1.64574566 -0.02688151 3.29161413 -0.04634123 4.9375 -0.0625 C5.85402344 -0.07410156 6.77054687 -0.08570312 7.71484375 -0.09765625 C10 0 10 0 11 1 C11.125 3.5 11.125 3.5 11 6 C10 7 10 7 7.71484375 7.09765625 C6.34005859 7.08025391 6.34005859 7.08025391 4.9375 7.0625 C4.01839844 7.05347656 3.09929687 7.04445313 2.15234375 7.03515625 C1.44207031 7.02355469 0.73179688 7.01195313 0 7 C0 4.69 0 2.38 0 0 Z " fill="#86BB31" transform="translate(74,83)"/>
<path d="M0 0 C1.64574566 -0.02688151 3.29161413 -0.04634123 4.9375 -0.0625 C5.85402344 -0.07410156 6.77054687 -0.08570312 7.71484375 -0.09765625 C10 0 10 0 11 1 C11.04063832 2.66617115 11.042721 4.33388095 11 6 C8.59454362 7.20272819 7.05003047 7.10071472 4.375 7.0625 C3.14910156 7.04896484 3.14910156 7.04896484 1.8984375 7.03515625 C0.95871094 7.01775391 0.95871094 7.01775391 0 7 C0 4.69 0 2.38 0 0 Z " fill="#8ABD37" transform="translate(73,70)"/>
<path d="M0 0 C4.55555556 0.55555556 4.55555556 0.55555556 6 2 C6.125 5.5 6.125 5.5 6 9 C5 10 5 10 2.5625 10.1875 C0 10 0 10 -2 8 C-2.25 5 -2.25 5 -2 2 C-1.34 1.34 -0.68 0.68 0 0 Z " fill="#F6F6F6" transform="translate(133,16)"/>
<path d="M0 0 C1.32 0 2.64 0 4 0 C4 5.61 4 11.22 4 17 C2.68 17 1.36 17 0 17 C0 11.39 0 5.78 0 0 Z " fill="#8B8B8B" transform="translate(81,13)"/>
<path d="M0 0 C0.66 0 1.32 0 2 0 C2.99 3.63 3.98 7.26 5 11 C2.36 11 -0.28 11 -3 11 C-2.01 7.37 -1.02 3.74 0 0 Z " fill="#14894E" transform="translate(29,73)"/>
<path d="M0 0 C2.31 0 4.62 0 7 0 C7 1.32 7 2.64 7 4 C4.36 4 1.72 4 -1 4 C-0.67 2.68 -0.34 1.36 0 0 Z " fill="#9A9A9A" transform="translate(88,21)"/>
<path d="M0 0 C1.65 0 3.3 0 5 0 C5 1.65 5 3.3 5 5 C3.35 5 1.7 5 0 5 C0 3.35 0 1.7 0 0 Z " fill="#E6E6E6" transform="translate(149,16)"/>
<path d="M0 0 C2.475 0.495 2.475 0.495 5 1 C4.67 2.32 4.34 3.64 4 5 C2.68 5 1.36 5 0 5 C0 3.35 0 1.7 0 0 Z " fill="#F2F2F2" transform="translate(69,16)"/>
</svg>
